<svg version="1.1" xmlns="http://www.w3.org/2000/svg" viewBox="-149.49242504917504 -31.400248756155165 298.9848500983501 62.800497512310336" fill="none" stroke="black" stroke-width="0.6%" vector-effect="non-scaling-stroke">
    <path d="M -137.53227 -26.23138 A 34.5 2.44206 360 0 1 -147.63708 -27.95818 A 34.5 2.44206 360 0 1 -78.63708 -27.95818 A 34.5 2.44206 360 0 1 -137.53227 -26.23138 Z" />
    <path d="M -52.5 10.24515 L -60.54521 9.67567" />
    <path d="M -74.68735 10.67671 L -56.56854 11.95924 L -52.5 11.67125" />
    <path d="M -60.10408 11.20846 A 5 0.35392 360 0 1 -61.56854 10.9582 A 5 0.35392 360 0 1 -52.5 10.75247" />
    <path d="M -52.5 11.16392 A 5 0.35392 360 0 1 -60.10408 11.20846" />
    <path d="M -78.63708 15.38459 L -56.56854 16.9467 L -47.68348 16.31778" />
    <path d="M -56.56854 16.9467 L -56.56854 11.95924" />
    <path d="M -116.67262 -27.70792 A 5 0.35392 360 0 1 -118.13708 -27.95818 A 5 0.35392 360 0 1 -108.13708 -27.95818 A 5 0.35392 360 0 1 -116.67262 -27.70792 Z" />
    <path d="M -147.63708 -4.982 L -148.49242 -4.92145 L -147.63708 -4.86091" />
    <path d="M -148.49242 0.066 L -147.63708 0.12655" />
    <path d="M -148.49242 0.066 L -148.49242 -4.92145" />
    <path d="M -52.5 -0.12877 L -78.63708 -1.97887" />
    <path d="M -78.63708 0.02322 L -52.5 1.87332" />
    <path d="M 52.48108 4.48871 A 52.5 3.71619 360 0 1 52.5 4.58846 A 52.5 3.71619 360 0 1 -31.02693 7.58623" />
    <path d="M -52.5 9.57592 A 52.5 3.71619 180 0 0 52.5 9.57592" />
    <path d="M -88.7419 29.68498 A 34.5 2.44206 180 0 0 -78.63708 27.95818" />
    <path d="M -88.7419 -10.21468 A 34.5 2.44206 360 0 1 -147.63708 -11.94148 A 34.5 2.44206 360 0 1 -78.63708 -11.94148 A 34.5 2.44206 360 0 1 -88.7419 -10.21468 Z" />
    <path d="M -147.63708 27.95818 A 34.5 2.44206 180 0 0 -88.7419 29.68498" />
    <path d="M -129.41393 9.56305 A 34.5 2.44206 360 0 1 -135.82459 9.24961" />
    <path d="M -129.41393 9.56305 L -129.41393 14.55051" />
    <path d="M -139.12799 9.01578 A 34.5 2.44206 360 0 1 -143.55606 8.562 L -148.49242 8.91142 L -134.35029 9.91246 L -129.41393 9.56305" />
    <path d="M -56.56854 17.96551 L -78.63708 19.52762" />
    <path d="M -78.63708 21.5297 L -42.42641 18.96655 L -56.56854 17.96551" />
    <path d="M -53.03301 19.21681 A 5 0.35392 360 0 1 -61.56854 18.96655 A 5 0.35392 360 0 1 -51.56854 18.96655 A 5 0.35392 360 0 1 -53.03301 19.21681 Z" />
    <path d="M -78.63708 26.51716 L -42.42641 23.95401 L -42.42641 18.96655" />
    <path d="M -109.60155 -11.69122 A 5 0.35392 360 0 1 -118.13708 -11.94148 A 5 0.35392 360 0 1 -108.13708 -11.94148 A 5 0.35392 360 0 1 -109.60155 -11.69122 Z" />
    <path d="M -139.12799 9.01578 A 5 0.35392 180 0 0 -135.82459 9.24961" />
    <path d="M -148.49242 13.89888 L -134.35029 14.89992 L -134.35029 9.91246" />
    <path d="M -134.35029 14.89992 L -129.41393 14.55051" />
    <path d="M -148.49242 13.89888 L -148.49242 8.91142" />
    <path d="M -43.51452 1.48061 L -78.63708 3.96675" />
    <path d="M -78.63708 5.96883 L -29.37238 2.48166 L -29.37238 7.46912 A 52.5 3.71619 180 0 0 52.5 4.38896" />
    <path d="M -43.51452 1.48061 A 52.5 3.71619 360 0 1 -52.5 -0.59849 L -52.5 2.11665" />
    <path d="M -52.5 -0.59849 A 52.5 3.71619 360 0 1 -52.48108 -0.69824" />
    <path d="M 31.02693 2.39928 A 52.5 3.71619 360 0 1 -29.37238 2.48166" />
    <path d="M -26.12619 -3.19197 A 45 3.1853 360 0 1 26.12619 -3.19197" />
    <path d="M -78.63708 10.95629 L -29.37238 7.46912" />
    <path d="M 137.53227 -13.66828 A 34.5 2.44206 360 0 1 147.63708 -11.94148 L 147.63708 3.66392" />
    <path d="M 147.63708 -11.94148 A 34.5 2.44206 360 0 1 78.63708 -11.94148 L 78.63708 27.95818 A 34.5 2.44206 180 0 0 147.63708 27.95818" />
    <path d="M 78.63708 -11.94148 A 34.5 2.44206 360 0 1 137.53227 -13.66828" />
    <path d="M 143.55606 3.37505 A 34.5 2.44206 360 0 1 139.12799 3.82882 A 5 0.35392 360 0 1 135.82459 4.06265 A 34.5 2.44206 360 0 1 129.41393 4.37609 L 134.35029 4.72551 L 148.49242 3.72446 L 148.49242 0.2655 L 147.63708 0.20496" />
    <path d="M 129.41393 4.37609 L 129.41393 9.36355 L 134.35029 9.71297 L 134.35029 4.72551" />
    <path d="M 42.42641 23.95401 L 78.63708 26.51716" />
    <path d="M 42.42641 18.96655 L 78.63708 21.5297" />
    <path d="M 42.42641 23.95401 L 42.42641 18.96655" />
    <path d="M 78.63708 19.52762 L 56.56854 17.96551 L 42.42641 18.96655" />
    <path d="M 60.10408 18.71629 A 5 0.35392 360 0 1 61.56854 18.96655 A 5 0.35392 360 0 1 51.56854 18.96655 A 5 0.35392 360 0 1 60.10408 18.71629 Z" />
    <path d="M 116.67262 -12.19174 A 5 0.35392 360 0 1 118.13708 -11.94148 A 5 0.35392 360 0 1 108.13708 -11.94148 A 5 0.35392 360 0 1 116.67262 -12.19174 Z" />
    <path d="M 148.49242 3.72446 L 143.55606 3.37505" />
    <path d="M 134.35029 9.71297 L 148.49242 8.71192 L 148.49242 3.72446" />
    <path d="M 29.37238 -2.7053 L 78.63708 0.78188" />
    <path d="M 78.63708 -1.22021 L 43.51452 -3.70634" />
    <path d="M 29.37238 -2.7053 A 52.5 3.71619 360 0 1 -52.5 -5.78545 L -52.5 -0.79799 A 52.5 3.71619 180 0 0 29.37238 2.28216 L 78.63708 5.76934" />
    <path d="M -52.5 -5.78545 A 52.5 3.71619 360 0 1 52.5 -5.78545 L 52.5 -3.07031" />
    <path d="M 52.5 -5.78545 A 52.5 3.71619 360 0 1 43.51452 -3.70634" />
    <path d="M 31.81981 -8.0378 A 45 3.1853 360 0 1 45 -5.78545 A 45 3.1853 360 0 1 -45 -5.78545 A 45 3.1853 360 0 1 31.81981 -8.0378 Z" />
    <path d="M 27.99742 -3.29172 A 45 3.1853 180 0 0 -27.99742 -3.29172" />
    <path d="M 29.37238 -2.7053 L 29.37238 2.28216" />
    <path d="M 88.7419 -29.68498 A 34.5 2.44206 360 0 1 147.63708 -27.95818 L 147.63708 -11.94148" />
    <path d="M 147.63708 -27.95818 A 34.5 2.44206 360 0 1 78.63708 -27.95818 L 78.63708 -11.94148" />
    <path d="M 78.63708 -27.95818 A 34.5 2.44206 360 0 1 88.7419 -29.68498" />
    <path d="M 56.56854 16.9467 L 78.63708 15.38459" />
    <path d="M 56.56854 11.95924 L 78.63708 10.39713" />
    <path d="M 56.56854 16.9467 L 56.56854 11.95924" />
    <path d="M 55.15935 11.85949 L 56.56854 11.95924" />
    <path d="M 47.68348 16.31778 L 56.56854 16.9467" />
    <path d="M 109.60155 -28.20844 A 5 0.35392 360 0 1 118.13708 -27.95818 A 5 0.35392 360 0 1 108.13708 -27.95818 A 5 0.35392 360 0 1 109.60155 -28.20844 Z" />
    <path d="M 147.63708 0.32605 L 148.49242 0.2655" />
    <path d="M 52.5 7.06028 L 74.68735 5.48976" />
    <path d="M 60.54521 4.48871 L 52.5 5.05819" />
    <path d="M 52.48108 9.67567 A 52.5 3.71619 360 0 1 52.5 9.77542 L 52.5 14.76288" />
    <path d="M 52.5 9.77542 A 52.5 3.71619 360 0 1 -52.5 9.77542 L -52.5 14.76288 A 52.5 3.71619 180 0 0 52.5 14.76288" />
    <path d="M -52.5 9.77542 A 52.5 3.71619 360 0 1 -52.48108 9.67567" />
    <path d="M 52.5 12.04773 L 78.63708 10.19763" />
    <path d="M -147.63708 -27.95818 L -147.63708 -11.94148 L -147.63708 8.85088" />
    <path d="M -78.63708 -27.95818 L -78.63708 -11.94148 L -78.63708 27.95818" />
    <path d="M -52.5 9.10619 L -52.5 9.57592" />
    <path d="M 52.5 4.58846 L 52.5 9.57592" />
    <path d="M -147.63708 13.95942 L -147.63708 27.95818" />
    <path d="M 52.5 3.91924 L 52.5 4.38896" />
    <path d="M 147.63708 8.77247 L 147.63708 27.95818" />
</svg>