<svg version="1.1" xmlns="http://www.w3.org/2000/svg" viewBox="-237.22576307451325 -33.37438393065575 494.93721229712287 59.89681709687782" fill="none" stroke="black" stroke-width="0.6%" vector-effect="non-scaling-stroke">
    <path d="M -42.65718 23.80234 A 30 1.72009 180 1 0 17.34282 23.80234" />
    <path d="M 17.29225 18.71073 A 30 1.72009 360 0 1 17.34282 18.81057 A 30 1.72009 360 0 1 -42.65718 18.81057 A 30 1.72009 360 0 1 -42.6066 18.71073" />
    <path d="M 17.34282 22.78627 L 123.29506 16.21465" />
    <path d="M 149.45487 11.04778 L 149.45487 9.60033 L 134.76861 8.82192 L 122.18502 9.60241" />
    <path d="M 17.34282 17.7945 L 79.89852 13.91452" />
    <path d="M 136.87128 10.38082 L 149.45487 9.60033" />
    <path d="M 65.21226 13.13611 L 17.34282 16.10518" />
    <path d="M 133.00969 9.35335 A 5 0.28668 180 0 0 131.68126 9.54795 A 5 0.28668 180 1 0 141.68126 9.54795 A 5 0.28668 180 0 0 133.00969 9.35335 Z" />
    <path d="M -42.65718 18.6109 A 30 1.72009 180 0 0 17.34282 18.6109" />
    <path d="M 17.29225 13.51929 A 30 1.72009 360 0 1 17.34282 13.61912 A 30 1.72009 360 0 1 -26.74351 15.1378" />
    <path d="M -186.86865 10.15804 L -115.31737 13.95045" />
    <path d="M -57.23456 17.02899 L -42.65718 17.80163" />
    <path d="M -58.3446 10.41675 L -173.29243 4.32421 L -186.86865 5.16627 L -71.92082 11.25881" />
    <path d="M -177.60009 5.26712 A 5 0.28668 180 0 0 -169.20603 5.0566 A 5 0.28668 180 0 0 -179.20603 5.0566 A 5 0.28668 180 0 0 -177.60009 5.26712 Z" />
    <path d="M -186.86865 10.15804 L -186.86865 5.16627" />
    <path d="M -24.51372 14.9995 A 30 1.72009 180 0 0 17.34282 13.41945" />
    <path d="M -39.19998 9.22932 A 30 1.72009 360 0 1 -42.65718 8.42768 A 30 1.72009 360 0 1 -42.6066 8.32784" />
    <path d="M 3.63124 9.87215 A 30 1.72009 360 0 1 -24.51372 10.00773 L -24.51372 14.9995" />
    <path d="M -160.08297 23.4081 L -24.51372 14.9995" />
    <path d="M -174.76923 22.62969 L -160.08297 23.4081 L -160.08297 18.41632 L -24.51372 10.00773" />
    <path d="M -174.76923 22.62969 L -174.76923 17.63791 L -160.08297 18.41632" />
    <path d="M -39.19998 9.22932 L -174.76923 17.63791" />
    <path d="M -158.32404 17.8849 A 5 0.28668 180 0 0 -156.99561 17.6903 A 5 0.28668 180 0 0 -166.99561 17.6903 A 5 0.28668 180 0 0 -158.32404 17.8849 Z" />
    <path d="M -42.65718 8.22801 A 30 1.72009 180 0 0 1.32422 9.74987 L 147.97807 17.52292 L 161.55429 16.68086 L 161.55429 11.68909 L 14.90044 3.91604" />
    <path d="M 1.32422 4.7581 L 1.32422 9.74987" />
    <path d="M 1.32422 4.7581 A 30 1.72009 360 0 1 -42.65718 3.23623 A 30 1.72009 360 0 1 17.34282 3.23623 L 17.34282 4.04549" />
    <path d="M 17.34282 3.23623 A 30 1.72009 360 0 1 14.90044 3.91604" />
    <path d="M 147.97807 17.52292 L 147.97807 12.53114 L 161.55429 11.68909" />
    <path d="M 1.32422 4.7581 L 147.97807 12.53114" />
    <path d="M 4.3131 2.18366 A 25 1.43341 360 0 1 12.34282 3.23623 A 25 1.43341 360 0 1 -37.65718 3.23623 A 25 1.43341 360 0 1 4.3131 2.18366 Z" />
    <path d="M 152.28573 11.58824 A 5 0.28668 180 0 0 143.89168 11.79875 A 5 0.28668 180 0 0 153.89168 11.79875 A 5 0.28668 180 0 0 152.28573 11.58824 Z" />
    <path d="M -225.14474 -24.09911 A 34.5 1.9781 360 0 1 -236.22576 -25.55166 L -236.22576 10.38912 A 34.5 1.9781 180 0 0 -225.14474 11.84167 A 34.5 1.9781 180 0 0 -184.26764 12.09526 L -130.96033 14.92069" />
    <path d="M -236.22576 -25.55166 A 34.5 1.9781 360 0 1 -190.89036 -27.42967" />
    <path d="M -171.07423 -24.64376 A 34.5 1.9781 360 0 1 -225.14474 -24.09911" />
    <path d="M -170.69142 11.25321 A 34.5 1.9781 180 0 0 -169.41783 11.08298" />
    <path d="M -184.26764 12.09526 A 34.5 1.9781 180 0 0 -170.69142 11.25321" />
    <path d="M -205.11982 -25.34114 A 5 0.28668 360 0 1 -206.72576 -25.55166 A 5 0.28668 360 0 1 -196.72576 -25.55166 A 5 0.28668 360 0 1 -205.11982 -25.34114 Z" />
    <path d="M -117.3841 14.07864 L -170.69142 11.25321" />
    <path d="M -150.78066 13.47976 A 5 0.28668 360 0 1 -152.3866 13.26924 A 5 0.28668 360 0 1 -142.3866 13.26924 A 5 0.28668 360 0 1 -150.78066 13.47976 Z" />
    <path d="M -190.89036 16.73602 L -190.89036 12.26713" />
    <path d="M -190.89036 16.73602 L -174.35687 17.61234" />
    <path d="M -117.45906 -21.80201 L -117.45906 -26.79379 L -103.88284 -27.63584 L -177.31414 -31.5279 L -182.06582 -31.23318 A 5 0.28668 360 0 1 -186.13868 -30.98056 L -190.89036 -30.68584 L -117.45906 -26.79379" />
    <path d="M -103.88284 -22.64407 L -103.88284 -27.63584" />
    <path d="M -117.45906 -21.80201 L -103.88284 -22.64407" />
    <path d="M -190.89036 -25.69407 L -190.89036 -30.68584" />
    <path d="M -190.89036 -25.69407 L -117.45906 -21.80201" />
    <path d="M -150.78066 -28.95033 A 5 0.28668 360 0 1 -152.3866 -29.16084 A 5 0.28668 360 0 1 -142.3866 -29.16084 A 5 0.28668 360 0 1 -150.78066 -28.95033 Z" />
    <path d="M 213.26311 -28.41675 A 34.5 1.9781 360 0 1 256.71145 -26.50634 L 256.71145 9.43444" />
    <path d="M 256.71145 -26.50634 A 34.5 1.9781 360 0 1 193.71196 -25.39155" />
    <path d="M 207.14096 11.21383 A 34.5 1.9781 180 0 0 256.71145 9.43444" />
    <path d="M 192.4547 10.43542 A 34.5 1.9781 180 0 0 207.14096 11.21383" />
    <path d="M 187.71145 9.43444 A 34.5 1.9781 180 0 0 192.4547 10.43542 L 161.55429 12.352" />
    <path d="M 218.53988 -26.70094 A 5 0.28668 360 0 1 227.21145 -26.50634 A 5 0.28668 360 1 1 217.21145 -26.50634 A 5 0.28668 360 0 1 218.53988 -26.70094 Z" />
    <path d="M 161.55429 14.04132 L 207.14096 11.21383" />
    <path d="M 168.30787 12.35544 A 5 0.28668 360 0 1 176.97943 12.55005 A 5 0.28668 360 1 1 166.97943 12.55005 A 5 0.28668 360 0 1 168.30787 12.35544 Z" />
    <path d="M 130.69575 19.25776 L 130.69575 16.60691" />
    <path d="M 213.26311 15.82589 L 213.26311 11.34485" />
    <path d="M 145.38201 20.03617 L 145.38201 17.38532" />
    <path d="M 145.38201 20.03617 L 213.26311 15.82589" />
    <path d="M 130.69575 19.25776 L 145.38201 20.03617" />
    <path d="M 130.69575 -23.17233 L 130.69575 -28.1641 L 145.38201 -27.38569 L 213.26311 -31.59597 L 208.12292 -31.86842 A 5 0.28668 360 0 1 203.71704 -32.10194 L 198.57685 -32.37438 L 130.69575 -28.1641" />
    <path d="M 145.38201 -22.39392 L 145.38201 -27.38569" />
    <path d="M 130.69575 -23.17233 L 145.38201 -22.39392 L 213.26311 -26.6042 L 213.26311 -31.59597" />
    <path d="M 168.30787 -30.07464 A 5 0.28668 360 0 1 176.97943 -29.88004 A 5 0.28668 360 1 1 166.97943 -29.88004 A 5 0.28668 360 0 1 168.30787 -30.07464 Z" />
    <path d="M -42.65718 18.81057 L -42.65718 23.80234" />
    <path d="M 17.34282 18.81057 L 17.34282 23.80234" />
    <path d="M -42.65718 16.12484 L -42.65718 18.6109" />
    <path d="M 17.34282 13.61912 L 17.34282 18.6109" />
    <path d="M -42.65718 8.42768 L -42.65718 9.44375" />
    <path d="M 17.34282 10.5989 L 17.34282 13.41945" />
    <path d="M -42.65718 3.23623 L -42.65718 8.22801" />
    <path d="M -167.22576 -24.43978 L -167.22576 4.64576" />
    <path d="M 187.71145 -25.01937 L 187.71145 9.43444" />
</svg>