<svg version="1.1" xmlns="http://www.w3.org/2000/svg" viewBox="-169.29141492239836 -34.104608062835524 338.58282984479666 55.812123236060934" fill="none" stroke="black" stroke-width="0.6%" vector-effect="non-scaling-stroke">
    <path d="M -30 18.4997 A 30 2.20782 180 0 0 30 18.4997" />
    <path d="M 29.96938 13.41353 A 30 2.20782 0 0 1 30 13.51326 A 30 2.20782 0 0 1 -30 13.51326 A 30 2.20782 0 0 1 -29.96938 13.41353" />
    <path d="M 30 17.33266 L 97.56735 12.36011" />
    <path d="M 97.56735 11.16313 L 97.56735 12.36011" />
    <path d="M 30 12.34621 L 71.82157 9.2684" />
    <path d="M 57.67944 8.22763 L 30 10.26467" />
    <path d="M 97.56735 12.55957 A 34.5 2.53899 180 0 0 120.0589 12.81838" />
    <path d="M 95.84404 12.48694 A 34.5 2.53899 180 0 0 97.56735 12.55957" />
    <path d="M 127.98633 -27.89733 A 34.5 2.53899 360 0 1 148.34419 -25.58146 A 34.5 2.53899 360 0 1 86.55344 -24.02818" />
    <path d="M 57.27565 15.52479 L 97.56735 12.55957" />
    <path d="M 55.92053 15.42506 L 57.27565 15.52479" />
    <path d="M 112.46568 -25.93517 A 5 0.36797 360 0 1 118.84419 -25.58146 A 5 0.36797 360 0 1 108.84419 -25.58146 A 5 0.36797 360 0 1 109.03798 -25.68291" />
    <path d="M 153.71991 8.22763 L 168.29141 7.15525 L 168.29141 2.16881 L 154.14928 1.12804 L 148.34419 1.55526" />
    <path d="M 148.34419 3.63681 L 168.29141 2.16881" />
    <path d="M 152.02796 1.80454 A 5 0.36797 180 0 0 150.56349 2.06474 A 5 0.36797 180 0 0 160.56349 2.06474 A 5 0.36797 180 0 0 152.02796 1.80454 Z" />
    <path d="M 43.13351 19.47046 L 43.13351 16.36611" />
    <path d="M 127.98633 15.30736 L 127.98633 13.40179" />
    <path d="M 57.27565 20.51123 L 57.27565 15.52479" />
    <path d="M 57.27565 20.51123 L 127.98633 15.30736" />
    <path d="M 43.13351 19.47046 L 57.27565 20.51123" />
    <path d="M 43.13351 -22.91429 L 43.13351 -27.90073 L 57.27565 -26.85996 L 127.98633 -32.06383 L 113.84419 -33.10461 L 43.13351 -27.90073" />
    <path d="M 57.27565 -21.87352 L 57.27565 -26.85996" />
    <path d="M 43.13351 -22.91429 L 57.27565 -21.87352 L 127.98633 -27.07739 L 127.98633 -32.06383" />
    <path d="M 53.74012 -28.16093 A 5 0.36797 360 0 1 62.27565 -27.90073 A 5 0.36797 360 0 1 52.27565 -27.90073 A 5 0.36797 360 0 1 53.74012 -28.16093 Z" />
    <path d="M 110.30866 -32.32403 A 5 0.36797 360 0 1 118.84419 -32.06383 A 5 0.36797 360 0 1 108.84419 -32.06383 A 5 0.36797 360 0 1 110.30866 -32.32403 Z" />
    <path d="M -30 13.3138 A 30 2.20782 180 0 0 30 13.3138" />
    <path d="M 29.96938 8.22763 A 30 2.20782 360 0 1 30 8.32736 L 30 13.3138" />
    <path d="M 30 8.32736 A 30 2.20782 360 0 1 -14.71266 10.25144" />
    <path d="M -168.29141 1.96936 L -83.25346 8.22763" />
    <path d="M -35.23322 11.76162 L -30 12.14676" />
    <path d="M -35.23322 4.69363 L -154.14928 -4.05786 L -168.29141 -3.01709 L -49.37536 5.73441" />
    <path d="M -159.09903 -2.86097 A 5 0.36797 180 0 0 -150.56349 -3.12116 A 5 0.36797 180 0 0 -160.56349 -3.12116 A 5 0.36797 180 0 0 -159.09903 -2.86097 Z" />
    <path d="M -168.29141 1.96936 L -168.29141 -3.01709" />
    <path d="M -12.92893 10.12016 A 30 2.20782 180 0 0 30 8.1279" />
    <path d="M -27.07107 4.09295 A 30 2.20782 360 0 1 -30 3.14146 L -30 4.3085" />
    <path d="M -30 3.14146 A 30 2.20782 360 0 1 -29.96938 3.04173" />
    <path d="M 14.71266 5.06554 A 30 2.20782 360 0 1 -12.92893 5.13372 L -12.92893 10.12016" />
    <path d="M -154.14928 20.51312 L -12.92893 10.12016" />
    <path d="M -168.29141 19.47234 L -154.14928 20.51312 L -154.14928 15.52668 L -12.92893 5.13372" />
    <path d="M -168.29141 19.47234 L -168.29141 14.4859 L -154.14928 15.52668" />
    <path d="M -27.07107 4.09295 L -168.29141 14.4859" />
    <path d="M -152.02796 14.85017 A 5 0.36797 180 0 0 -150.56349 14.58998 A 5 0.36797 180 0 0 -160.56349 14.58998 A 5 0.36797 180 0 0 -152.02796 14.85017 Z" />
    <path d="M -30 2.942 A 30 2.20782 180 0 0 12.92893 4.93427 L 154.14928 15.32722 L 154.14928 10.34078 L 168.29141 9.3 L 27.07107 -1.09295" />
    <path d="M 12.92893 -0.05218 L 12.92893 4.93427" />
    <path d="M 12.92893 -0.05218 A 30 2.20782 360 0 1 -30 -2.04444 L -30 2.942" />
    <path d="M -30 -2.04444 A 30 2.20782 360 1 1 30 -2.04444 L 30 -0.8774" />
    <path d="M 30 -2.04444 A 30 2.20782 360 0 1 27.07107 -1.09295" />
    <path d="M 154.14928 15.32722 L 168.29141 14.28644 L 168.29141 9.3" />
    <path d="M 12.92893 -0.05218 L 154.14928 10.34078" />
    <path d="M 17.67767 -3.34541 A 25 1.83985 0 0 1 25 -2.04444 A 25 1.83985 0 0 1 -25 -2.04444 A 25 1.83985 0 0 1 17.67767 -3.34541 Z" />
    <path d="M 159.09903 9.14389 A 5 0.36797 0 0 1 160.56349 9.40408 A 5 0.36797 0 0 1 150.56349 9.40408 A 5 0.36797 0 0 1 159.09903 9.14389 Z" />
    <path d="M -30 13.51326 L -30 18.4997" />
    <path d="M 30 13.51326 L 30 18.4997" />
    <path d="M 79.34419 -23.49763 L 79.34419 2.75403" />
    <path d="M 148.34419 -25.58146 L 148.34419 7.83201" />
    <path d="M -30 11.37649 L -30 13.3138" />
    <path d="M 30 6.19059 L 30 8.1279" />
</svg>