<svg version="1.1" xmlns="http://www.w3.org/2000/svg" viewBox="-149.492425049175 -27.222159972766132 298.98485009834997 54.44431994553228" fill="none" stroke="black" stroke-width="0.6%" vector-effect="non-scaling-stroke">
    <path d="M -52.5 11.27832 A 52.5 3.2504 180 0 0 52.5 11.27832" />
    <path d="M 51.60128 5.68907 A 52.5 3.2504 360 0 1 52.5 6.28791 A 52.5 3.2504 360 0 1 -52.5 6.28791 A 52.5 3.2504 360 0 1 -51.60128 5.68907" />
    <path d="M 52.5 8.9035 L 148.49242 2.96038 L 148.49242 1.03195 L 148.49242 -3.95846 L 139.80927 -4.49605" />
    <path d="M 52.5 3.91309 L 109.62195 0.37653" />
    <path d="M 95.47982 -0.49904 L 52.5 2.16194" />
    <path d="M 44.04373 6.85922 A 45 2.78606 360 0 1 -44.04373 6.85922" />
    <path d="M -52.5 5.09022 A 52.5 3.2504 180 0 0 52.5 5.09022" />
    <path d="M 51.60128 -0.49904 A 52.5 3.2504 360 0 1 52.5 0.09981 A 52.5 3.2504 360 0 1 -39.6333 2.23147" />
    <path d="M -148.49242 -3.22773 L -140.85029 -2.75459" />
    <path d="M -127.85029 -1.94972 L -104.41904 -0.49904" />
    <path d="M -52.5 -4.02616 L -87.41938 -6.18811" />
    <path d="M -148.49242 -8.21814 L -141.42136 -7.78035" />
    <path d="M -101.56152 -5.31253 L -64.11685 -2.99424" />
    <path d="M -141.42136 -8.65592 L -148.49242 -8.21814" />
    <path d="M -31.81981 2.06985 A 45 2.78606 360 0 1 -34.31474 1.90219" />
    <path d="M 44.04373 0.67111 A 45 2.78606 360 0 1 -31.81981 2.06985" />
    <path d="M -148.49242 -3.22773 L -148.49242 -8.21814" />
    <path d="M -29.37238 1.5962 A 52.5 3.2504 180 0 0 52.5 -1.09789" />
    <path d="M -43.51452 -4.26978 A 52.5 3.2504 360 0 1 -52.5 -6.0883 A 52.5 3.2504 360 0 1 -51.60128 -6.68715" />
    <path d="M 39.6333 -3.95663 A 52.5 3.2504 360 0 1 -29.37238 -3.39421 L -29.37238 1.5962" />
    <path d="M -134.35029 8.09563 L -29.37238 1.5962" />
    <path d="M -148.49242 7.22005 L -134.35029 8.09563 L -134.35029 3.10522 L -29.37238 -3.39421" />
    <path d="M -148.49242 7.22005 L -148.49242 2.22965 L -134.35029 3.10522" />
    <path d="M -43.51452 -4.26978 L -127.85029 0.95164" />
    <path d="M -140.60139 1.74109 L -148.49242 2.22965" />
    <path d="M 31.81981 -4.11826 A 45 2.78606 360 0 1 -44.04373 -5.51699" />
    <path d="M 34.31474 -4.28592 A 45 2.78606 360 0 1 31.81981 -4.11826" />
    <path d="M -130.81475 2.44854 A 5 0.30956 360 0 1 -139.35029 2.22965 A 5 0.30956 360 0 1 -137.42282 1.98543" />
    <path d="M -131.27776 1.98543 A 5 0.30956 360 0 1 -129.35029 2.22965 A 5 0.30956 360 0 1 -130.81475 2.44854" />
    <path d="M -52.5 -7.286 A 52.5 3.2504 180 0 0 29.37238 -4.59191 L 134.35029 1.90752 L 134.35029 -3.08289 L 148.49242 -3.95846" />
    <path d="M 29.37238 -9.58232 L 29.37238 -4.59191" />
    <path d="M 29.37238 -9.58232 A 52.5 3.2504 0 0 1 -52.5 -12.2764 A 52.5 3.2504 0 0 1 -15.53797 -15.38118" />
    <path d="M 15.53797 -15.38118 A 52.5 3.2504 0 0 1 52.5 -12.2764 A 52.5 3.2504 0 0 1 43.51452 -10.45789" />
    <path d="M 134.35029 1.90752 L 148.49242 1.03195" />
    <path d="M 29.37238 -9.58232 L 134.35029 -3.08289" />
    <path d="M 56.56854 -9.64968 L 43.51452 -10.45789" />
    <path d="M 32.3817 -14.21103 A 45 2.78606 360 0 1 45 -12.2764 A 45 2.78606 360 0 1 -45 -12.2764 A 45 2.78606 360 0 1 -32.3817 -14.21103" />
    <path d="M 137.88582 -4.17735 A 5 0.30956 180 0 0 135.88481 -4.25308" />
    <path d="M 129.59159 -3.86345 A 5 0.30956 180 0 0 139.35029 -3.95846 A 5 0.30956 180 0 0 137.88582 -4.17735" />
    <path d="M 129.75409 4.34048 A 6.5 0.40243 360 0 1 140.85029 4.62504 A 6.5 0.40243 360 0 1 127.85029 4.62504 A 6.5 0.40243 360 0 1 129.75409 4.34048 Z" />
    <path d="M 127.85029 19.59627 A 6.5 0.40243 180 0 0 140.85029 19.59627" />
    <path d="M 137.88582 4.84394 A 5 0.30956 180 0 0 139.35029 4.62504 A 5 0.30956 180 0 0 129.35029 4.62504 A 5 0.30956 180 0 0 137.88582 4.84394 Z" />
    <path d="M 129.75409 -18.2839 A 6.5 0.40243 360 0 1 140.85029 -17.99934 A 6.5 0.40243 360 0 1 127.85029 -17.99934 A 6.5 0.40243 360 0 1 129.75409 -18.2839 Z" />
    <path d="M 137.88582 -17.78044 A 5 0.30956 180 0 0 139.35029 -17.99934 A 5 0.30956 180 0 0 129.35029 -17.99934 A 5 0.30956 180 0 0 137.88582 -17.78044 Z" />
    <path d="M -138.94648 -19.28198 A 6.5 0.40243 360 0 1 -127.85029 -18.99742 A 6.5 0.40243 360 0 1 -140.85029 -18.99742 A 6.5 0.40243 360 0 1 -138.94648 -19.28198 Z" />
    <path d="M -130.81475 -18.77852 A 5 0.30956 180 0 0 -129.35029 -18.99742 A 5 0.30956 180 0 0 -139.35029 -18.99742 A 5 0.30956 180 0 0 -130.81475 -18.77852 Z" />
    <path d="M -138.94648 9.33089 A 6.5 0.40243 360 0 1 -127.85029 9.61545 A 6.5 0.40243 360 0 1 -140.85029 9.61545 A 6.5 0.40243 360 0 1 -138.94648 9.33089 Z" />
    <path d="M -140.85029 19.59627 A 6.5 0.40243 180 0 0 -127.85029 19.59627" />
    <path d="M -130.81475 9.83434 A 5 0.30956 180 0 0 -129.35029 9.61545 A 5 0.30956 180 0 0 -139.35029 9.61545 A 5 0.30956 180 0 0 -130.81475 9.83434 Z" />
    <path d="M -138.94648 -3.64417 A 6.5 0.40243 360 0 1 -127.85029 -3.35961 A 6.5 0.40243 360 0 1 -140.85029 -3.35961 L -140.85029 1.6308 A 6.5 0.40243 180 0 0 -127.85029 1.6308" />
    <path d="M -140.85029 -3.35961 A 6.5 0.40243 360 0 1 -138.94648 -3.64417" />
    <path d="M -130.81475 -3.14072 A 5 0.30956 180 0 0 -129.35029 -3.35961 A 5 0.30956 180 0 0 -139.35029 -3.35961 A 5 0.30956 180 0 0 -130.81475 -3.14072 Z" />
    <path d="M -24.39518 -14.98447 A 34.5 2.13598 360 0 1 34.5 -13.4741 L 34.5 -10.48763" />
    <path d="M 34.5 -13.4741 A 34.5 2.13598 360 0 1 -34.5 -13.4741 L -34.5 -10.48763" />
    <path d="M -34.5 -13.4741 A 34.5 2.13598 360 0 1 -24.39518 -14.98447" />
    <path d="M -34.5 14.47218 A 34.5 2.13598 180 0 0 34.5 14.47218" />
    <path d="M -32.431 -13.09633 A 33 2.04311 360 0 1 -33 -13.4741 A 33 2.04311 360 0 1 6.10167 -15.48198 L 1.15041 -14.33794 A 14 0.86677 180 0 0 -14 -13.4741 L -14 -13.40209" />
    <path d="M -13.95265 -13.40288 L -32.431 -13.09633" />
    <path d="M -14 -13.4741 A 14 0.86677 180 0 0 -13.95265 -13.40288" />
    <path d="M 5.98004 -14.25782 L 10.9313 -15.40186 L 10.9313 -14.01564" />
    <path d="M 5.98004 -14.25782 A 14 0.86677 360 0 1 14 -13.4741 L 14 -12.82622" />
    <path d="M 14 -13.4741 A 14 0.86677 360 0 1 11.50815 -12.9805" />
    <path d="M 25.03523 -12.143 L 11.50815 -12.9805" />
    <path d="M 10.9313 -15.40186 A 33 2.04311 360 0 1 33 -13.4741 A 33 2.04311 360 0 1 25.03523 -12.143" />
    <path d="M 7.97261 -12.7616 L 21.4997 -11.92411 A 33 2.04311 360 0 1 -31.1369 -12.79732 L -12.65856 -13.10386 L -12.65856 -11.58729" />
    <path d="M 7.97261 -12.7616 A 14 0.86677 360 0 1 -12.65856 -13.10386" />
    <path d="M -7.84889 -13.96004 A 11.1 0.68723 360 0 1 11.1 -13.4741 A 11.1 0.68723 360 0 1 -11.1 -13.4741 A 11.1 0.68723 360 0 1 -7.84889 -13.96004 Z" />
    <path d="M 7.97261 -12.7616 L 7.97261 -11.49152" />
    <path d="M -70.71068 13.96414 L -70.71068 8.97373 L -56.56854 8.09815 L -95.47982 5.68907" />
    <path d="M -56.56854 13.08856 L -56.56854 8.09815" />
    <path d="M -70.71068 13.96414 L -56.56854 13.08856" />
    <path d="M -141.42136 9.58627 L -141.42136 7.65784" />
    <path d="M -141.42136 9.58627 L -140.85029 9.62163" />
    <path d="M -127.85029 10.42649 L -70.71068 13.96414" />
    <path d="M -109.62195 6.56464 L -70.71068 8.97373" />
    <path d="M -67.17514 7.87926 A 5 0.30956 360 0 1 -65.71068 8.09815 A 5 0.30956 360 0 1 -75.71068 8.09815 A 5 0.30956 360 0 1 -67.17514 7.87926 Z" />
    <path d="M -70.71068 -15.97831 L -70.71068 -20.96872 L -56.56854 -21.84429 L -127.27922 -26.22216 L -141.42136 -25.34659 L -70.71068 -20.96872" />
    <path d="M -56.56854 -16.85389 L -56.56854 -21.84429" />
    <path d="M -70.71068 -15.97831 L -56.56854 -16.85389" />
    <path d="M -141.42136 -20.35618 L -141.42136 -25.34659" />
    <path d="M -141.42136 -20.35618 L -70.71068 -15.97831" />
    <path d="M -67.17514 -22.06319 A 5 0.30956 360 0 1 -65.71068 -21.84429 A 5 0.30956 360 0 1 -75.71068 -21.84429 A 5 0.30956 360 0 1 -67.17514 -22.06319 Z" />
    <path d="M -123.74369 -25.56548 A 5 0.30956 360 0 1 -122.27922 -25.34659 A 5 0.30956 360 0 1 -132.27922 -25.34659 A 5 0.30956 360 0 1 -123.74369 -25.56548 Z" />
    <path d="M 56.56854 13.08856 L 56.56854 8.6516" />
    <path d="M 70.71068 13.96414 L 70.71068 8.97373 L 127.85029 5.43608" />
    <path d="M 56.56854 13.08856 L 70.71068 13.96414 L 127.85029 10.42649" />
    <path d="M 61.03815 8.37488 L 70.71068 8.97373" />
    <path d="M 141.42136 9.58627 L 141.42136 4.59586 L 140.74886 4.55423" />
    <path d="M 140.85029 9.62163 L 141.42136 9.58627" />
    <path d="M 140.85029 4.63122 L 141.42136 4.59586" />
    <path d="M 135.49412 4.22889 L 131.74883 3.99701" />
    <path d="M 74.24621 8.31705 A 5 0.30956 360 0 1 65.71068 8.09815 A 5 0.30956 360 0 1 65.71497 8.08533" />
    <path d="M 70.50347 7.78886 A 5 0.30956 360 0 1 75.71068 8.09815 A 5 0.30956 360 0 1 74.24621 8.31705" />
    <path d="M 127.85029 4.9034 A 5 0.30956 360 0 1 122.27922 4.59586 A 5 0.30956 360 0 1 122.28352 4.58303" />
    <path d="M 127.07201 4.28657 A 5 0.30956 360 0 1 129.89475 4.33203" />
    <path d="M 56.56854 -16.85389 L 56.56854 -21.84429 L 70.71068 -20.96872 L 141.42136 -25.34659 L 127.27922 -26.22216 L 56.56854 -21.84429" />
    <path d="M 70.71068 -15.97831 L 70.71068 -20.96872" />
    <path d="M 56.56854 -16.85389 L 70.71068 -15.97831 L 141.42136 -20.35618 L 141.42136 -25.34659" />
    <path d="M 74.24621 -21.6254 A 5 0.30956 360 0 1 65.71068 -21.84429 A 5 0.30956 360 0 1 75.71068 -21.84429 A 5 0.30956 360 0 1 74.24621 -21.6254 Z" />
    <path d="M 130.81475 -25.12769 A 5 0.30956 360 0 1 122.27922 -25.34659 A 5 0.30956 360 0 1 132.27922 -25.34659 A 5 0.30956 360 0 1 130.81475 -25.12769 Z" />
    <path d="M -56.56854 21.84429 L -56.56854 16.85389 L -70.71068 15.97831 L -127.85029 19.51596" />
    <path d="M -127.27922 26.22216 L -127.27922 21.23175 L -56.56854 16.85389" />
    <path d="M -127.27922 26.22216 L -56.56854 21.84429" />
    <path d="M -141.42136 25.34659 L -141.42136 20.35618 L -127.27922 21.23175" />
    <path d="M -135.53795 19.99192 L -141.42136 20.35618" />
    <path d="M -141.42136 25.34659 L -127.27922 26.22216" />
    <path d="M -74.24621 16.63499 A 5 0.30956 360 0 1 -65.71068 16.85389 A 5 0.30956 360 0 1 -75.71068 16.85389 A 5 0.30956 360 0 1 -74.24621 16.63499 Z" />
    <path d="M -130.81475 20.13728 A 5 0.30956 360 0 1 -122.27922 20.35618 A 5 0.30956 360 0 1 -132.27922 20.35618 A 5 0.30956 360 0 1 -130.81475 20.13728 Z" />
    <path d="M -56.56854 -8.09815 L -56.56854 -13.08856 L -70.71068 -13.96414 L -141.42136 -9.58627 L -127.27922 -8.7107 L -56.56854 -13.08856" />
    <path d="M -127.27922 -3.72029 L -127.27922 -8.7107" />
    <path d="M -127.27922 -3.72029 L -56.56854 -8.09815" />
    <path d="M -141.42136 -4.59586 L -141.42136 -9.58627" />
    <path d="M -141.42136 -4.59586 L -127.27922 -3.72029" />
    <path d="M -74.24621 -13.30746 A 5 0.30956 360 0 1 -65.71068 -13.08856 A 5 0.30956 360 0 1 -75.71068 -13.08856 A 5 0.30956 360 0 1 -74.24621 -13.30746 Z" />
    <path d="M -130.81475 -9.80516 A 5 0.30956 360 0 1 -122.27922 -9.58627 A 5 0.30956 360 0 1 -132.27922 -9.58627 A 5 0.30956 360 0 1 -130.81475 -9.80516 Z" />
    <path d="M 56.56854 21.84429 L 56.56854 16.85389 L 127.27922 21.23175 L 141.42136 20.35618 L 135.53795 19.99192" />
    <path d="M 70.71068 15.97831 L 56.56854 16.85389" />
    <path d="M 141.42136 25.34659 L 141.42136 20.35618" />
    <path d="M 127.85029 19.51596 L 70.71068 15.97831" />
    <path d="M 127.27922 26.22216 L 127.27922 21.23175" />
    <path d="M 56.56854 21.84429 L 127.27922 26.22216 L 141.42136 25.34659" />
    <path d="M 67.17514 17.07278 A 5 0.30956 360 0 1 65.71068 16.85389 A 5 0.30956 360 0 1 75.71068 16.85389 A 5 0.30956 360 0 1 67.17514 17.07278 Z" />
    <path d="M 123.74369 20.57507 A 5 0.30956 360 0 1 122.27922 20.35618 A 5 0.30956 360 0 1 132.27922 20.35618 A 5 0.30956 360 0 1 123.74369 20.57507 Z" />
    <path d="M 56.56854 -8.09815 L 56.56854 -13.08856 L 127.27922 -8.7107 L 141.42136 -9.58627 L 70.71068 -13.96414 L 56.56854 -13.08856" />
    <path d="M 141.42136 -4.59586 L 141.42136 -9.58627" />
    <path d="M 127.27922 -3.72029 L 127.27922 -8.7107" />
    <path d="M 56.56854 -8.09815 L 127.27922 -3.72029 L 141.42136 -4.59586" />
    <path d="M 67.17514 -12.86967 A 5 0.30956 360 0 1 65.71068 -13.08856 A 5 0.30956 360 0 1 75.71068 -13.08856 A 5 0.30956 360 0 1 67.17514 -12.86967 Z" />
    <path d="M 123.74369 -9.36738 A 5 0.30956 360 0 1 122.27922 -9.58627 A 5 0.30956 360 0 1 132.27922 -9.58627 A 5 0.30956 360 0 1 123.74369 -9.36738 Z" />
    <path d="M -52.5 6.28791 L -52.5 11.27832" />
    <path d="M 52.5 6.28791 L 52.5 11.27832" />
    <path d="M -52.5 3.02808 L -52.5 5.09022" />
    <path d="M 52.5 0.09981 L 52.5 5.09022" />
    <path d="M -52.5 -6.0883 L -52.5 -3.71347" />
    <path d="M 52.5 -3.16002 L 52.5 -1.09789" />
    <path d="M -52.5 -12.2764 L -52.5 -7.286" />
    <path d="M 52.5 -12.2764 L 52.5 -9.90158" />
    <path d="M 127.85029 4.62504 L 127.85029 19.59627" />
    <path d="M 140.85029 4.62504 L 140.85029 19.59627" />
    <path d="M 127.85029 -17.99934 L 127.85029 -10.42649" />
    <path d="M 140.85029 -17.99934 L 140.85029 -9.62163" />
    <path d="M 140.85029 -4.56051 L 140.85029 -4.4316" />
    <path d="M -140.85029 -18.99742 L -140.85029 -9.62163" />
    <path d="M -127.85029 -18.99742 L -127.85029 -10.42649" />
    <path d="M -140.85029 9.61545 L -140.85029 19.59627" />
    <path d="M -127.85029 9.61545 L -127.85029 19.59627" />
    <path d="M -140.85029 1.6308 L -140.85029 1.7565" />
    <path d="M -127.85029 -3.35961 L -127.85029 1.6308" />
    <path d="M -34.5 -4.83595 L -34.5 -4.29952" />
    <path d="M -34.5 7.54026 L -34.5 8.07669" />
    <path d="M -34.5 13.72836 L -34.5 14.47218" />
    <path d="M 34.5 1.35215 L 34.5 1.88858" />
    <path d="M 34.5 7.54026 L 34.5 8.07669" />
    <path d="M 34.5 13.72836 L 34.5 14.47218" />
</svg>