<svg version="1.1" xmlns="http://www.w3.org/2000/svg" viewBox="-149.492425049175 -33.54154731752405 298.98485009834997 67.0830946350481" fill="none" stroke="black" stroke-width="0.6%" vector-effect="non-scaling-stroke">
    <path d="M -52.5 16.24847 A 52.5 4.17127 180 0 0 52.5 16.24847" />
    <path d="M 51.95751 10.66617 A 52.5 4.17127 360 0 1 52.5 11.26428 A 52.5 4.17127 360 0 1 -52.5 11.26428 A 52.5 4.17127 360 0 1 -51.95751 10.66617" />
    <path d="M 52.5 13.20083 L 116.68074 8.1015" />
    <path d="M 148.49242 3.39757 L 148.49242 0.58978 L 139.6746 -0.11082" />
    <path d="M 52.5 8.21664 L 85.31495 5.6094" />
    <path d="M 130.82288 1.99368 L 148.49242 0.58978" />
    <path d="M 129.02597 -0.11082 L 116.68074 0.87005" />
    <path d="M 71.17282 4.48577 L 52.5 5.96938" />
    <path d="M 41.76356 12.59568 A 45 3.57537 360 0 1 -41.76356 12.59568" />
    <path d="M 130.81475 0.30888 A 5 0.39726 360 0 1 139.35029 0.58978 A 5 0.39726 360 0 1 129.35029 0.58978 A 5 0.39726 360 0 1 130.81475 0.30888 Z" />
    <path d="M -52.5 10.06807 A 52.5 4.17127 180 0 0 52.5 10.06807" />
    <path d="M 51.95751 4.48577 A 52.5 4.17127 0 0 1 52.5 5.08388 A 52.5 4.17127 0 0 1 -37.57702 7.9969" />
    <path d="M -148.49242 -0.60642 L -84.40151 4.48577" />
    <path d="M -52.5 -0.21102 L -128.18532 -6.22442" />
    <path d="M -148.49242 -5.59062 L -53.03572 1.99368" />
    <path d="M -140.51526 -6.22442 L -148.49242 -5.59062" />
    <path d="M -31.81981 7.61205 A 45 3.57537 360 0 1 -32.27325 7.5755" />
    <path d="M 41.76356 6.41528 A 45 3.57537 360 0 1 -31.81981 7.61205" />
    <path d="M -137.88582 -5.30971 A 5 0.39726 360 0 1 -139.35029 -5.59062 A 5 0.39726 360 0 1 -137.12535 -5.92108" />
    <path d="M -131.57523 -5.92108 A 5 0.39726 360 0 1 -129.35029 -5.59062 A 5 0.39726 360 0 1 -137.88582 -5.30971" />
    <path d="M -148.49242 -0.60642 L -148.49242 -5.59062" />
    <path d="M -29.37238 7.34502 A 52.5 4.17127 180 0 0 52.5 3.88767" />
    <path d="M -43.51452 1.23719 A 52.5 4.17127 0 0 1 -52.5 -1.09652 A 52.5 4.17127 0 0 1 -51.95751 -1.69463" />
    <path d="M 37.57702 1.8165 A 52.5 4.17127 0 0 1 -29.37238 2.36082 L -29.37238 7.34502" />
    <path d="M -134.35029 15.68579 L -29.37238 7.34502" />
    <path d="M -148.49242 14.56216 L -134.35029 15.68579 L -134.35029 10.7016 L -29.37238 2.36082" />
    <path d="M -148.49242 14.56216 L -148.49242 9.57797 L -134.35029 10.7016" />
    <path d="M -43.51452 1.23719 L -127.85029 7.9379" />
    <path d="M -140.85029 8.97078 L -148.49242 9.57797" />
    <path d="M 31.81981 1.43165 A 45 3.57537 360 0 1 -41.76356 0.23488" />
    <path d="M 32.27325 1.3951 A 45 3.57537 360 0 1 31.81981 1.43165" />
    <path d="M -130.81475 9.85888 A 5 0.39726 360 0 1 -139.35029 9.57797 A 5 0.39726 360 0 1 -138.61002 9.36995" />
    <path d="M -130.09055 9.36995 A 5 0.39726 360 0 1 -129.35029 9.57797 A 5 0.39726 360 0 1 -130.81475 9.85888" />
    <path d="M -52.5 -2.29273 A 52.5 4.17127 180 0 0 29.37238 1.16462 L 134.35029 9.50539 L 148.49242 8.38176 L 148.49242 3.39757 L 43.51452 -4.94321" />
    <path d="M 29.37238 -3.81958 L 29.37238 1.16462" />
    <path d="M 29.37238 -3.81958 A 52.5 4.17127 0 0 1 -52.5 -7.27692 A 52.5 4.17127 0 0 1 52.5 -7.27692 A 52.5 4.17127 0 0 1 43.51452 -4.94321" />
    <path d="M 134.35029 9.50539 L 134.35029 4.5212 L 148.49242 3.39757" />
    <path d="M 29.37238 -3.81958 L 134.35029 4.5212" />
    <path d="M 31.81981 -9.80509 A 45 3.57537 0 0 1 45 -7.27692 A 45 3.57537 0 0 1 -45 -7.27692 A 45 3.57537 0 0 1 -27.972 -10.07764" />
    <path d="M 27.972 -10.07764 A 45 3.57537 0 0 1 31.81981 -9.80509" />
    <path d="M 137.88582 3.11666 A 5 0.39726 180 0 0 129.35029 3.39757 A 5 0.39726 180 0 0 139.35029 3.39757 A 5 0.39726 180 0 0 137.88582 3.11666 Z" />
    <path d="M 129.75409 11.6052 A 6.5 0.51644 360 0 1 140.85029 11.97038 A 6.5 0.51644 360 0 1 127.85029 11.97038 A 6.5 0.51644 360 0 1 129.75409 11.6052 Z" />
    <path d="M 127.85029 26.92296 A 6.5 0.51644 180 0 0 140.85029 26.92296" />
    <path d="M 137.88582 12.25129 A 5 0.39726 180 0 0 139.35029 11.97038 A 5 0.39726 180 0 0 129.35029 11.97038 A 5 0.39726 180 0 0 137.88582 12.25129 Z" />
    <path d="M 129.75409 -15.72481 A 6.5 0.51644 360 0 1 140.85029 -15.35963 A 6.5 0.51644 360 0 1 127.85029 -15.35963 A 6.5 0.51644 360 0 1 129.75409 -15.72481 Z" />
    <path d="M 127.85029 -0.40705 A 6.5 0.51644 180 0 0 140.85029 -0.40705" />
    <path d="M 137.88582 -15.07873 A 5 0.39726 180 0 0 139.35029 -15.35963 A 5 0.39726 180 0 0 129.35029 -15.35963 A 5 0.39726 180 0 0 137.88582 -15.07873 Z" />
    <path d="M -138.94648 -16.72165 A 6.5 0.51644 360 0 1 -127.85029 -16.35647 A 6.5 0.51644 360 0 1 -140.85029 -16.35647 A 6.5 0.51644 360 0 1 -138.94648 -16.72165 Z" />
    <path d="M -140.85029 -6.38809 A 6.5 0.51644 180 0 0 -127.85029 -6.38809" />
    <path d="M -130.81475 -16.07556 A 5 0.39726 180 0 0 -129.35029 -16.35647 A 5 0.39726 180 0 0 -139.35029 -16.35647 A 5 0.39726 180 0 0 -130.81475 -16.07556 Z" />
    <path d="M -138.94648 16.5894 A 6.5 0.51644 360 0 1 -127.85029 16.95458 L -127.85029 26.92296" />
    <path d="M -127.85029 16.95458 A 6.5 0.51644 360 0 1 -140.85029 16.95458 L -140.85029 26.92296 A 6.5 0.51644 180 0 0 -127.85029 26.92296" />
    <path d="M -140.85029 16.95458 A 6.5 0.51644 360 0 1 -138.94648 16.5894" />
    <path d="M -130.81475 17.23548 A 5 0.39726 180 0 0 -129.35029 16.95458 A 5 0.39726 180 0 0 -139.35029 16.95458 A 5 0.39726 180 0 0 -130.81475 17.23548 Z" />
    <path d="M -138.94648 0.2246 A 6.5 0.51644 360 0 1 -138.46701 0.19012" />
    <path d="M -129.32012 0.91687 A 6.5 0.51644 360 0 1 -140.85029 0.58978 L -140.85029 3.99567 A 6.5 0.51644 360 0 1 -138.94648 3.63049 A 6.5 0.51644 360 0 1 -127.85029 3.99567 L -127.85029 8.97987" />
    <path d="M -140.85029 0.58978 A 6.5 0.51644 360 0 1 -138.94648 0.2246" />
    <path d="M -130.81475 0.87069 A 5 0.39726 180 0 0 -130.38766 0.83205" />
    <path d="M -137.39948 0.27494 A 5 0.39726 180 0 0 -139.35029 0.58978 A 5 0.39726 180 0 0 -130.81475 0.87069" />
    <path d="M -127.85029 3.99567 A 6.5 0.51644 360 0 1 -140.85029 3.99567 L -140.85029 8.97987 A 6.5 0.51644 180 0 0 -127.85029 8.97987" />
    <path d="M -130.81475 4.27658 A 5 0.39726 180 0 0 -129.35029 3.99567 A 5 0.39726 180 0 0 -139.35029 3.99567 A 5 0.39726 180 0 0 -130.81475 4.27658 Z" />
    <path d="M -24.39518 -10.41139 A 34.5 2.74112 360 0 1 34.5 -8.47313 L 34.5 -4.98137" />
    <path d="M 34.5 -8.47313 A 34.5 2.74112 360 0 1 -34.5 -8.47313 L -34.5 -4.98137" />
    <path d="M -34.5 -8.47313 A 34.5 2.74112 360 0 1 -24.39518 -10.41139" />
    <path d="M -34.5 19.43835 A 34.5 2.74112 180 0 0 34.5 19.43835" />
    <path d="M -32.431 -7.98833 A 33 2.62194 360 0 1 -33 -8.47313 A 33 2.62194 360 0 1 6.10167 -11.04986 L 1.15041 -9.5817 A 14 1.11234 180 0 0 -14 -8.47313 L -14 -8.38072" />
    <path d="M -13.95265 -8.38173 L -32.431 -7.98833" />
    <path d="M -14 -8.47313 A 14 1.11234 180 0 0 -13.95265 -8.38173" />
    <path d="M 5.98004 -9.47889 L 10.9313 -10.94704 L 10.9313 -9.16809" />
    <path d="M 5.98004 -9.47889 A 14 1.11234 360 0 1 14 -8.47313 L 14 -7.6417" />
    <path d="M 14 -8.47313 A 14 1.11234 360 0 1 11.50815 -7.83968" />
    <path d="M 25.03523 -6.76492 L 11.50815 -7.83968" />
    <path d="M 10.9313 -10.94704 A 33 2.62194 360 0 1 33 -8.47313 A 33 2.62194 360 0 1 25.03523 -6.76492" />
    <path d="M 7.97261 -7.55878 L 21.4997 -6.48401 A 33 2.62194 360 0 1 -31.1369 -7.60461 L -12.65856 -7.998 L -12.65856 -6.05176" />
    <path d="M 7.97261 -7.55878 A 14 1.11234 360 0 1 -12.65856 -7.998" />
    <path d="M -7.84889 -9.09674 A 11.1 0.88192 360 0 1 11.1 -8.47313 A 11.1 0.88192 360 0 1 -11.1 -8.47313 A 11.1 0.88192 360 0 1 -7.84889 -9.09674 Z" />
    <path d="M 7.97261 -7.55878 L 7.97261 -5.92886" />
    <path d="M -56.56854 19.05798 L -56.56854 14.07378 L -52.5 13.75053" />
    <path d="M -56.56854 19.05798 L -46.18032 18.23261" />
    <path d="M -116.68074 14.2819 L -56.56854 19.05798" />
    <path d="M -85.31495 11.7898 L -56.56854 14.07378" />
    <path d="M -52.5 12.14978 L -71.17282 10.66617" />
    <path d="M -53.03301 12.66925 A 5 0.39726 360 0 1 -52.5 12.71923" />
    <path d="M -52.5 13.18107 A 5 0.39726 360 0 1 -61.56854 12.95015 A 5 0.39726 360 0 1 -53.03301 12.66925" />
    <path d="M -56.56854 -20.81557 L -56.56854 -25.79976 L -42.42641 -26.92339 L -113.13708 -32.54155 L -127.27922 -31.41792 L -56.56854 -25.79976" />
    <path d="M -42.42641 -21.9392 L -42.42641 -26.92339" />
    <path d="M -56.56854 -20.81557 L -42.42641 -21.9392" />
    <path d="M -127.27922 -26.43372 L -127.27922 -31.41792" />
    <path d="M -127.27922 -26.43372 L -56.56854 -20.81557" />
    <path d="M -53.03301 -27.2043 A 5 0.39726 360 0 1 -51.56854 -26.92339 A 5 0.39726 360 0 1 -61.56854 -26.92339 A 5 0.39726 360 0 1 -53.03301 -27.2043 Z" />
    <path d="M -109.60155 -31.69882 A 5 0.39726 360 0 1 -108.13708 -31.41792 A 5 0.39726 360 0 1 -118.13708 -31.41792 A 5 0.39726 360 0 1 -109.60155 -31.69882 Z" />
    <path d="M 56.56854 19.05798 L 56.56854 14.07378 L 124.20853 8.6996" />
    <path d="M 46.18032 18.23261 L 56.56854 19.05798 L 127.27922 13.43982 L 127.27922 8.94358" />
    <path d="M 52.5 13.75053 L 56.56854 14.07378" />
    <path d="M 60.10408 13.23106 A 5 0.39726 360 0 1 52.60591 13.19242" />
    <path d="M 59.61773 12.63531 A 5 0.39726 360 0 1 61.56854 12.95015 A 5 0.39726 360 0 1 60.10408 13.23106" />
    <path d="M 116.67262 8.73654 A 5 0.39726 360 0 1 109.17445 8.6979" />
    <path d="M 116.18627 8.14079 A 5 0.39726 360 0 1 118.13708 8.45563 A 5 0.39726 360 0 1 116.67262 8.73654" />
    <path d="M 42.42641 -21.9392 L 42.42641 -26.92339 L 56.56854 -25.79976 L 127.27922 -31.41792 L 113.13708 -32.54155 L 42.42641 -26.92339" />
    <path d="M 56.56854 -20.81557 L 56.56854 -25.79976" />
    <path d="M 42.42641 -21.9392 L 56.56854 -20.81557 L 127.27922 -26.43372 L 127.27922 -31.41792" />
    <path d="M 60.10408 -26.64248 A 5 0.39726 360 0 1 51.56854 -26.92339 A 5 0.39726 360 0 1 61.56854 -26.92339 A 5 0.39726 360 0 1 60.10408 -26.64248 Z" />
    <path d="M 116.67262 -31.13701 A 5 0.39726 360 0 1 108.13708 -31.41792 A 5 0.39726 360 0 1 118.13708 -31.41792 A 5 0.39726 360 0 1 116.67262 -31.13701 Z" />
    <path d="M -42.42641 26.92339 L -42.42641 21.9392 L -56.56854 20.81557 L -127.27922 26.43372 L -113.13708 27.55735 L -42.42641 21.9392" />
    <path d="M -113.13708 32.54155 L -113.13708 27.55735" />
    <path d="M -113.13708 32.54155 L -42.42641 26.92339" />
    <path d="M -127.27922 31.41792 L -127.27922 26.43372" />
    <path d="M -127.27922 31.41792 L -113.13708 32.54155" />
    <path d="M -60.10408 21.65829 A 5 0.39726 360 0 1 -51.56854 21.9392 A 5 0.39726 360 0 1 -61.56854 21.9392 A 5 0.39726 360 0 1 -60.10408 21.65829 Z" />
    <path d="M -116.67262 26.15281 A 5 0.39726 360 0 1 -108.13708 26.43372 A 5 0.39726 360 0 1 -118.13708 26.43372 A 5 0.39726 360 0 1 -116.67262 26.15281 Z" />
    <path d="M -42.42641 -12.95015 L -42.42641 -17.93435 L -56.56854 -19.05798 L -127.27922 -13.43982 L -113.13708 -12.31619 L -42.42641 -17.93435" />
    <path d="M -113.13708 -7.332 L -113.13708 -12.31619" />
    <path d="M -113.13708 -7.332 L -42.42641 -12.95015" />
    <path d="M -127.27922 -8.45563 L -127.27922 -13.43982" />
    <path d="M -127.27922 -8.45563 L -113.13708 -7.332" />
    <path d="M -60.10408 -18.21525 A 5 0.39726 360 0 1 -51.56854 -17.93435 A 5 0.39726 360 0 1 -61.56854 -17.93435 A 5 0.39726 360 0 1 -60.10408 -18.21525 Z" />
    <path d="M -116.67262 -13.72073 A 5 0.39726 360 0 1 -108.13708 -13.43982 A 5 0.39726 360 0 1 -118.13708 -13.43982 A 5 0.39726 360 0 1 -116.67262 -13.72073 Z" />
    <path d="M 42.42641 26.92339 L 42.42641 21.9392 L 113.13708 27.55735 L 127.27922 26.43372 L 56.56854 20.81557 L 42.42641 21.9392" />
    <path d="M 127.27922 31.41792 L 127.27922 26.43372" />
    <path d="M 113.13708 32.54155 L 113.13708 27.55735" />
    <path d="M 42.42641 26.92339 L 113.13708 32.54155 L 127.27922 31.41792" />
    <path d="M 53.03301 22.22011 A 5 0.39726 0 0 1 51.56854 21.9392 A 5 0.39726 0 0 1 61.56854 21.9392 A 5 0.39726 0 0 1 53.03301 22.22011 Z" />
    <path d="M 109.60155 26.71463 A 5 0.39726 0 0 1 108.13708 26.43372 A 5 0.39726 0 0 1 118.13708 26.43372 A 5 0.39726 0 0 1 109.60155 26.71463 Z" />
    <path d="M 42.42641 -12.95015 L 42.42641 -17.93435 L 113.13708 -12.31619 L 127.27922 -13.43982 L 56.56854 -19.05798 L 42.42641 -17.93435" />
    <path d="M 127.27922 -8.45563 L 127.27922 -13.43982" />
    <path d="M 113.13708 -7.332 L 113.13708 -12.31619" />
    <path d="M 42.42641 -12.95015 L 113.13708 -7.332 L 127.27922 -8.45563" />
    <path d="M 53.03301 -17.65344 A 5 0.39726 0 0 1 51.56854 -17.93435 A 5 0.39726 0 0 1 61.56854 -17.93435 A 5 0.39726 0 0 1 53.03301 -17.65344 Z" />
    <path d="M 109.60155 -13.15892 A 5 0.39726 0 0 1 108.13708 -13.43982 A 5 0.39726 0 0 1 118.13708 -13.43982 A 5 0.39726 0 0 1 109.60155 -13.15892 Z" />
    <path d="M -52.5 11.26428 L -52.5 16.24847" />
    <path d="M 52.5 11.26428 L 52.5 16.24847" />
    <path d="M -52.5 9.18257 L -52.5 10.06807" />
    <path d="M 52.5 5.08388 L 52.5 10.06807" />
    <path d="M -52.5 -1.09652 L -52.5 1.95111" />
    <path d="M 52.5 3.00217 L 52.5 3.88767" />
    <path d="M -52.5 -7.27692 L -52.5 -2.29273" />
    <path d="M 52.5 -7.27692 L 52.5 -4.22929" />
    <path d="M 127.85029 11.97038 L 127.85029 26.92296" />
    <path d="M 140.85029 11.97038 L 140.85029 26.92296" />
    <path d="M 127.85029 -15.35963 L 127.85029 -0.40705" />
    <path d="M 140.85029 -15.35963 L 140.85029 -0.40705" />
    <path d="M -140.85029 -16.35647 L -140.85029 -6.38809" />
    <path d="M -127.85029 -16.35647 L -127.85029 -6.38809" />
    <path d="M -127.85029 1.03365 L -127.85029 3.99567" />
    <path d="M -34.5 0.85143 L -34.5 1.19903" />
    <path d="M -34.5 13.21223 L -34.5 13.55983" />
    <path d="M -34.5 19.39263 L -34.5 19.43835" />
    <path d="M 34.5 7.03183 L 34.5 7.37943" />
    <path d="M 34.5 13.21223 L 34.5 13.55983" />
    <path d="M 34.5 19.39263 L 34.5 19.43835" />
</svg>