<svg version="1.1" xmlns="http://www.w3.org/2000/svg" viewBox="-149.492425049175 -27.659946530902523 298.98485009834997 55.31989306180506" fill="none" stroke="black" stroke-width="0.6%" vector-effect="non-scaling-stroke">
    <path d="M -52.5 11.27832 A 52.5 3.2504 180 0 0 52.5 11.27832" />
    <path d="M 51.60128 5.68907 A 52.5 3.2504 360 0 1 52.5 6.28791 A 52.5 3.2504 360 0 1 -52.5 6.28791 A 52.5 3.2504 360 0 1 -51.60128 5.68907" />
    <path d="M 52.5 8.9035 L 148.49242 2.96038 L 148.49242 1.03195 L 148.49242 -3.95846 L 146.88034 -4.05827" />
    <path d="M 52.5 3.91309 L 109.62195 0.37653" />
    <path d="M 95.47982 -0.49904 L 52.5 2.16194" />
    <path d="M 44.04373 6.85922 A 45 2.78606 360 0 1 -44.04373 6.85922" />
    <path d="M -52.5 5.09022 A 52.5 3.2504 180 0 0 52.5 5.09022" />
    <path d="M 51.60128 -0.49904 A 52.5 3.2504 360 0 1 52.5 0.09981 A 52.5 3.2504 360 0 1 -39.6333 2.23147" />
    <path d="M -148.49242 -3.22773 L -140.85029 -2.75459" />
    <path d="M -127.85029 -1.94972 L -104.41904 -0.49904" />
    <path d="M -52.5 -4.02616 L -87.41938 -6.18811" />
    <path d="M -101.56152 -5.31253 L -64.11685 -2.99424" />
    <path d="M -31.81981 2.06985 A 45 2.78606 360 0 1 -34.31474 1.90219" />
    <path d="M 44.04373 0.67111 A 45 2.78606 360 0 1 -31.81981 2.06985" />
    <path d="M -148.49242 -3.22773 L -148.49242 -4.15808 L -148.49242 -9.14848 L -134.35029 -8.27291 L -63.63961 -12.65078 L -77.78175 -13.52635 L -148.49242 -9.14848" />
    <path d="M -29.37238 1.5962 A 52.5 3.2504 180 0 0 52.5 -1.09789" />
    <path d="M -43.51452 -4.26978 A 52.5 3.2504 360 0 1 -52.5 -6.0883 A 52.5 3.2504 360 0 1 -51.60128 -6.68715" />
    <path d="M 39.6333 -3.95663 A 52.5 3.2504 360 0 1 -29.37238 -3.39421 L -29.37238 1.5962" />
    <path d="M -134.35029 8.09563 L -29.37238 1.5962" />
    <path d="M -148.49242 7.22005 L -134.35029 8.09563 L -134.35029 3.10522 L -29.37238 -3.39421" />
    <path d="M -148.49242 7.22005 L -148.49242 2.22965 L -134.35029 3.10522" />
    <path d="M -43.51452 -4.26978 L -127.85029 0.95164" />
    <path d="M -140.60139 1.74109 L -148.49242 2.22965" />
    <path d="M 31.81981 -4.11826 A 45 2.78606 360 0 1 -44.04373 -5.51699" />
    <path d="M 34.31474 -4.28592 A 45 2.78606 360 0 1 31.81981 -4.11826" />
    <path d="M -130.81475 2.44854 A 5 0.30956 360 0 1 -139.35029 2.22965 A 5 0.30956 360 0 1 -137.42282 1.98543" />
    <path d="M -131.27776 1.98543 A 5 0.30956 360 0 1 -129.35029 2.22965 A 5 0.30956 360 0 1 -130.81475 2.44854" />
    <path d="M -52.5 -7.286 A 52.5 3.2504 180 0 0 29.37238 -4.59191 L 134.35029 1.90752 L 134.35029 -3.08289 L 148.49242 -3.95846" />
    <path d="M 29.37238 -9.58232 L 29.37238 -4.59191" />
    <path d="M 29.37238 -9.58232 A 52.5 3.2504 0 0 1 -52.5 -12.2764 A 52.5 3.2504 0 0 1 -15.53797 -15.38118" />
    <path d="M 15.53797 -15.38118 A 52.5 3.2504 0 0 1 52.5 -12.2764 A 52.5 3.2504 0 0 1 43.51452 -10.45789" />
    <path d="M 134.35029 1.90752 L 148.49242 1.03195" />
    <path d="M 29.37238 -9.58232 L 134.35029 -3.08289" />
    <path d="M 63.63961 -9.2119 L 43.51452 -10.45789" />
    <path d="M 32.3817 -14.21103 A 45 2.78606 360 0 1 45 -12.2764 A 45 2.78606 360 0 1 -45 -12.2764 A 45 2.78606 360 0 1 -32.3817 -14.21103" />
    <path d="M 129.75409 4.34048 A 6.5 0.40243 360 0 1 140.85029 4.62504 A 6.5 0.40243 360 0 1 127.85029 4.62504 A 6.5 0.40243 360 0 1 129.75409 4.34048 Z" />
    <path d="M 127.85029 19.59627 A 6.5 0.40243 180 0 0 140.85029 19.59627" />
    <path d="M 137.88582 4.84394 A 5 0.30956 180 0 0 139.35029 4.62504 A 5 0.30956 180 0 0 129.35029 4.62504 A 5 0.30956 180 0 0 137.88582 4.84394 Z" />
    <path d="M 129.75409 -18.2839 A 6.5 0.40243 360 0 1 140.85029 -17.99934 A 6.5 0.40243 360 0 1 127.85029 -17.99934 A 6.5 0.40243 360 0 1 129.75409 -18.2839 Z" />
    <path d="M 137.88582 -17.78044 A 5 0.30956 180 0 0 139.35029 -17.99934 A 5 0.30956 180 0 0 129.35029 -17.99934 A 5 0.30956 180 0 0 137.88582 -17.78044 Z" />
    <path d="M -138.94648 -19.28198 A 6.5 0.40243 360 0 1 -127.85029 -18.99742 A 6.5 0.40243 360 0 1 -140.85029 -18.99742 A 6.5 0.40243 360 0 1 -138.94648 -19.28198 Z" />
    <path d="M -130.81475 -18.77852 A 5 0.30956 180 0 0 -129.35029 -18.99742 A 5 0.30956 180 0 0 -139.35029 -18.99742 A 5 0.30956 180 0 0 -130.81475 -18.77852 Z" />
    <path d="M -138.94648 9.33089 A 6.5 0.40243 360 0 1 -127.85029 9.61545 A 6.5 0.40243 360 0 1 -140.85029 9.61545 A 6.5 0.40243 360 0 1 -138.94648 9.33089 Z" />
    <path d="M -140.85029 19.59627 A 6.5 0.40243 180 0 0 -127.85029 19.59627" />
    <path d="M -130.81475 9.83434 A 5 0.30956 180 0 0 -129.35029 9.61545 A 5 0.30956 180 0 0 -139.35029 9.61545 A 5 0.30956 180 0 0 -130.81475 9.83434 Z" />
    <path d="M -129.17376 -3.60299 A 6.5 0.40243 360 0 1 -127.85029 -3.35961 A 6.5 0.40243 360 0 1 -140.85029 -3.35961 A 6.5 0.40243 360 0 1 -139.52682 -3.60299" />
    <path d="M -140.85029 1.6308 A 6.5 0.40243 180 0 0 -127.85029 1.6308" />
    <path d="M -130.81475 -3.14072 A 5 0.30956 180 0 0 -129.35029 -3.35961 A 5 0.30956 180 0 0 -130.24731 -3.53653" />
    <path d="M -138.45327 -3.53653 A 5 0.30956 180 0 0 -139.35029 -3.35961 A 5 0.30956 180 0 0 -130.81475 -3.14072" />
    <path d="M -24.39518 -14.98447 A 34.5 2.13598 360 0 1 34.5 -13.4741 L 34.5 -10.48763" />
    <path d="M 34.5 -13.4741 A 34.5 2.13598 360 0 1 -34.5 -13.4741 L -34.5 -10.48763" />
    <path d="M -34.5 -13.4741 A 34.5 2.13598 360 0 1 -24.39518 -14.98447" />
    <path d="M -34.5 14.47218 A 34.5 2.13598 180 0 0 34.5 14.47218" />
    <path d="M -32.431 -13.09633 A 33 2.04311 360 0 1 -33 -13.4741 A 33 2.04311 360 0 1 6.10167 -15.48198 L 1.15041 -14.33794 A 14 0.86677 180 0 0 -14 -13.4741 L -14 -13.40209" />
    <path d="M -13.95265 -13.40288 L -32.431 -13.09633" />
    <path d="M -14 -13.4741 A 14 0.86677 180 0 0 -13.95265 -13.40288" />
    <path d="M 5.98004 -14.25782 L 10.9313 -15.40186 L 10.9313 -14.01564" />
    <path d="M 5.98004 -14.25782 A 14 0.86677 360 0 1 14 -13.4741 L 14 -12.82622" />
    <path d="M 14 -13.4741 A 14 0.86677 360 0 1 11.50815 -12.9805" />
    <path d="M 25.03523 -12.143 L 11.50815 -12.9805" />
    <path d="M 10.9313 -15.40186 A 33 2.04311 360 0 1 33 -13.4741 A 33 2.04311 360 0 1 25.03523 -12.143" />
    <path d="M 7.97261 -12.7616 L 21.4997 -11.92411 A 33 2.04311 360 0 1 -31.1369 -12.79732 L -12.65856 -13.10386 L -12.65856 -11.58729" />
    <path d="M 7.97261 -12.7616 A 14 0.86677 360 0 1 -12.65856 -13.10386" />
    <path d="M -7.84889 -13.96004 A 11.1 0.68723 360 0 1 11.1 -13.4741 A 11.1 0.68723 360 0 1 -11.1 -13.4741 A 11.1 0.68723 360 0 1 -7.84889 -13.96004 Z" />
    <path d="M 7.97261 -12.7616 L 7.97261 -11.49152" />
    <path d="M -77.78175 13.52635 L -77.78175 8.53594 L -63.63961 7.66037 L -95.47982 5.68907" />
    <path d="M -63.63961 12.65078 L -63.63961 7.66037" />
    <path d="M -77.78175 13.52635 L -63.63961 12.65078" />
    <path d="M -148.49242 9.14848 L -148.49242 7.22005" />
    <path d="M -148.49242 9.14848 L -140.85029 9.62163" />
    <path d="M -127.85029 10.42649 L -77.78175 13.52635" />
    <path d="M -109.62195 6.56464 L -77.78175 8.53594" />
    <path d="M -74.24621 7.44147 A 5 0.30956 360 0 1 -72.78175 7.66037 A 5 0.30956 360 0 1 -82.78175 7.66037 A 5 0.30956 360 0 1 -74.24621 7.44147 Z" />
    <path d="M -77.78175 -16.4161 L -77.78175 -21.40651 L -63.63961 -22.28208 L -134.35029 -26.65995 L -148.49242 -25.78437 L -77.78175 -21.40651" />
    <path d="M -63.63961 -17.29167 L -63.63961 -22.28208" />
    <path d="M -77.78175 -16.4161 L -63.63961 -17.29167" />
    <path d="M -148.49242 -20.79396 L -148.49242 -25.78437" />
    <path d="M -148.49242 -20.79396 L -77.78175 -16.4161" />
    <path d="M -74.24621 -22.50097 A 5 0.30956 360 0 1 -72.78175 -22.28208 A 5 0.30956 360 0 1 -82.78175 -22.28208 A 5 0.30956 360 0 1 -74.24621 -22.50097 Z" />
    <path d="M -130.81475 -26.00327 A 5 0.30956 360 0 1 -129.35029 -25.78437 A 5 0.30956 360 0 1 -139.35029 -25.78437 A 5 0.30956 360 0 1 -130.81475 -26.00327 Z" />
    <path d="M 63.63961 12.65078 L 63.63961 8.21382" />
    <path d="M 77.78175 13.52635 L 77.78175 8.53594 L 127.85029 5.43608" />
    <path d="M 63.63961 12.65078 L 77.78175 13.52635 L 127.85029 10.42649" />
    <path d="M 68.10922 7.93709 L 77.78175 8.53594" />
    <path d="M 148.49242 9.14848 L 148.49242 4.15808 L 138.8199 3.55923" />
    <path d="M 140.85029 9.62163 L 148.49242 9.14848" />
    <path d="M 140.85029 4.63122 L 148.49242 4.15808" />
    <path d="M 81.31728 7.87926 A 5 0.30956 360 0 1 72.78175 7.66037 A 5 0.30956 360 0 1 72.78604 7.64754" />
    <path d="M 77.57454 7.35107 A 5 0.30956 360 0 1 82.78175 7.66037 A 5 0.30956 360 0 1 81.31728 7.87926" />
    <path d="M 130.09642 4.32076 A 5 0.30956 360 0 1 129.35029 4.15808 A 5 0.30956 360 0 1 129.35458 4.14525" />
    <path d="M 134.14308 3.84878 A 5 0.30956 360 0 1 139.35029 4.15808 A 5 0.30956 360 0 1 138.60416 4.32076" />
    <path d="M 63.63961 -17.29167 L 63.63961 -22.28208 L 77.78175 -21.40651 L 148.49242 -25.78437 L 134.35029 -26.65995 L 63.63961 -22.28208" />
    <path d="M 77.78175 -16.4161 L 77.78175 -21.40651" />
    <path d="M 63.63961 -17.29167 L 77.78175 -16.4161 L 148.49242 -20.79396 L 148.49242 -25.78437" />
    <path d="M 81.31728 -22.06319 A 5 0.30956 360 0 1 72.78175 -22.28208 A 5 0.30956 360 0 1 82.78175 -22.28208 A 5 0.30956 360 0 1 81.31728 -22.06319 Z" />
    <path d="M 137.88582 -25.56548 A 5 0.30956 360 0 1 129.35029 -25.78437 A 5 0.30956 360 0 1 139.35029 -25.78437 A 5 0.30956 360 0 1 137.88582 -25.56548 Z" />
    <path d="M -63.63961 22.28208 L -63.63961 17.29167 L -77.78175 16.4161 L -127.85029 19.51596" />
    <path d="M -134.35029 26.65995 L -134.35029 21.66954 L -63.63961 17.29167" />
    <path d="M -134.35029 26.65995 L -63.63961 22.28208" />
    <path d="M -148.49242 25.78437 L -148.49242 20.79396 L -134.35029 21.66954" />
    <path d="M -135.53795 19.99192 L -148.49242 20.79396" />
    <path d="M -148.49242 25.78437 L -134.35029 26.65995" />
    <path d="M -81.31728 17.07278 A 5 0.30956 360 0 1 -72.78175 17.29167 A 5 0.30956 360 0 1 -82.78175 17.29167 A 5 0.30956 360 0 1 -81.31728 17.07278 Z" />
    <path d="M -137.88582 20.57507 A 5 0.30956 360 0 1 -129.35029 20.79396 A 5 0.30956 360 0 1 -139.35029 20.79396 A 5 0.30956 360 0 1 -137.88582 20.57507 Z" />
    <path d="M -63.63961 -7.66037 L -63.63961 -12.65078" />
    <path d="M -134.35029 -3.2825 L -134.35029 -8.27291" />
    <path d="M -134.35029 -3.2825 L -63.63961 -7.66037" />
    <path d="M -148.49242 -4.15808 L -134.35029 -3.2825" />
    <path d="M -81.31728 -12.86967 A 5 0.30956 360 0 1 -72.78175 -12.65078 A 5 0.30956 360 0 1 -82.78175 -12.65078 A 5 0.30956 360 0 1 -81.31728 -12.86967 Z" />
    <path d="M -137.88582 -9.36738 A 5 0.30956 360 0 1 -129.35029 -9.14848 A 5 0.30956 360 0 1 -139.35029 -9.14848 A 5 0.30956 360 0 1 -137.88582 -9.36738 Z" />
    <path d="M 63.63961 22.28208 L 63.63961 17.29167 L 134.35029 21.66954 L 148.49242 20.79396 L 135.53795 19.99192" />
    <path d="M 77.78175 16.4161 L 63.63961 17.29167" />
    <path d="M 148.49242 25.78437 L 148.49242 20.79396" />
    <path d="M 127.85029 19.51596 L 77.78175 16.4161" />
    <path d="M 134.35029 26.65995 L 134.35029 21.66954" />
    <path d="M 63.63961 22.28208 L 134.35029 26.65995 L 148.49242 25.78437" />
    <path d="M 74.24621 17.51057 A 5 0.30956 360 0 1 72.78175 17.29167 A 5 0.30956 360 0 1 82.78175 17.29167 A 5 0.30956 360 0 1 74.24621 17.51057 Z" />
    <path d="M 130.81475 21.01286 A 5 0.30956 360 0 1 129.35029 20.79396 A 5 0.30956 360 0 1 139.35029 20.79396 A 5 0.30956 360 0 1 130.81475 21.01286 Z" />
    <path d="M 63.63961 -7.66037 L 63.63961 -12.65078 L 134.35029 -8.27291 L 148.49242 -9.14848 L 77.78175 -13.52635 L 63.63961 -12.65078" />
    <path d="M 148.49242 -4.15808 L 148.49242 -9.14848" />
    <path d="M 134.35029 -3.2825 L 134.35029 -8.27291" />
    <path d="M 63.63961 -7.66037 L 134.35029 -3.2825 L 148.49242 -4.15808" />
    <path d="M 74.24621 -12.43188 A 5 0.30956 360 0 1 72.78175 -12.65078 A 5 0.30956 360 0 1 82.78175 -12.65078 A 5 0.30956 360 0 1 74.24621 -12.43188 Z" />
    <path d="M 130.81475 -8.92959 A 5 0.30956 360 0 1 129.35029 -9.14848 A 5 0.30956 360 0 1 139.35029 -9.14848 A 5 0.30956 360 0 1 130.81475 -8.92959 Z" />
    <path d="M -52.5 6.28791 L -52.5 11.27832" />
    <path d="M 52.5 6.28791 L 52.5 11.27832" />
    <path d="M -52.5 3.02808 L -52.5 5.09022" />
    <path d="M 52.5 0.09981 L 52.5 5.09022" />
    <path d="M -52.5 -6.0883 L -52.5 -3.71347" />
    <path d="M 52.5 -3.16002 L 52.5 -1.09789" />
    <path d="M -52.5 -12.2764 L -52.5 -7.286" />
    <path d="M 52.5 -12.2764 L 52.5 -9.90158" />
    <path d="M 127.85029 4.62504 L 127.85029 19.59627" />
    <path d="M 140.85029 4.62504 L 140.85029 19.59627" />
    <path d="M 127.85029 -17.99934 L 127.85029 -10.42649" />
    <path d="M 140.85029 -17.99934 L 140.85029 -9.62163" />
    <path d="M -140.85029 -18.99742 L -140.85029 -9.62163" />
    <path d="M -127.85029 -18.99742 L -127.85029 -10.42649" />
    <path d="M -140.85029 9.61545 L -140.85029 19.59627" />
    <path d="M -127.85029 9.61545 L -127.85029 19.59627" />
    <path d="M -140.85029 1.6308 L -140.85029 1.7565" />
    <path d="M -140.85029 -3.35961 L -140.85029 1.6308" />
    <path d="M -127.85029 -3.35961 L -127.85029 1.6308" />
    <path d="M -34.5 -4.83595 L -34.5 -4.29952" />
    <path d="M -34.5 7.54026 L -34.5 8.07669" />
    <path d="M -34.5 13.72836 L -34.5 14.47218" />
    <path d="M 34.5 1.35215 L 34.5 1.88858" />
    <path d="M 34.5 7.54026 L 34.5 8.07669" />
    <path d="M 34.5 13.72836 L 34.5 14.47218" />
</svg>