<svg version="1.1" xmlns="http://www.w3.org/2000/svg" viewBox="-254.70310316782974 -33.56764223799869 509.4062063356595 59.679871243854905" fill="none" stroke="black" stroke-width="0.6%" vector-effect="non-scaling-stroke">
    <path d="M -30 23.35187 A 30 1.76036 180 0 0 30 23.35187" />
    <path d="M 29.95172 18.26065 A 30 1.76036 360 0 1 30 18.36048 A 30 1.76036 360 0 1 -30 18.36048 A 30 1.76036 360 0 1 -29.95172 18.26065" />
    <path d="M 30 22.42135 L 132.69824 16.39515" />
    <path d="M 168.29141 11.83264 L 168.29141 9.3152 L 154.14928 8.48536 L 132.69824 9.74408" />
    <path d="M 30 17.42996 L 90.16675 13.89946" />
    <path d="M 146.84038 10.57392 L 168.29141 9.3152" />
    <path d="M 76.02462 13.06961 L 30 15.77028" />
    <path d="M 152.02796 9.02476 A 5 0.29339 180 0 0 150.56349 9.23222 A 5 0.29339 180 0 0 160.56349 9.23222 A 5 0.29339 180 0 0 152.02796 9.02476 Z" />
    <path d="M -30 18.16083 A 30 1.76036 180 0 0 30 18.16083" />
    <path d="M 29.95172 13.06961 A 30 1.76036 360 0 1 30 13.16944 A 30 1.76036 360 0 1 -15.1525 14.68876" />
    <path d="M -168.29141 9.11555 L -100.90637 13.06961" />
    <path d="M -44.23275 16.39515 L -30 17.23031" />
    <path d="M -44.23275 9.74408 L -154.14928 3.29432 L -168.29141 4.12416 L -58.37488 10.57392" />
    <path d="M -159.09903 4.24864 A 5 0.29339 180 0 0 -150.56349 4.04118 A 5 0.29339 180 0 0 -160.56349 4.04118 A 5 0.29339 180 0 0 -159.09903 4.24864 Z" />
    <path d="M -168.29141 9.11555 L -168.29141 4.12416" />
    <path d="M -12.92893 14.55828 A 30 1.76036 180 0 0 30 12.96979" />
    <path d="M -27.07107 8.73706 A 30 1.76036 360 0 1 -30 7.9784 A 30 1.76036 360 0 1 -29.95172 7.87857" />
    <path d="M 15.1525 9.49772 A 30 1.76036 360 0 1 -12.92893 9.5669 L -12.92893 14.55828" />
    <path d="M -154.14928 22.84491 L -12.92893 14.55828" />
    <path d="M -168.29141 22.01507 L -154.14928 22.84491 L -154.14928 17.85352 L -12.92893 9.5669" />
    <path d="M -168.29141 22.01507 L -168.29141 17.02368 L -154.14928 17.85352" />
    <path d="M -27.07107 8.73706 L -168.29141 17.02368" />
    <path d="M -152.02796 17.31413 A 5 0.29339 180 0 0 -150.56349 17.10667 A 5 0.29339 180 0 0 -160.56349 17.10667 A 5 0.29339 180 0 0 -152.02796 17.31413 Z" />
    <path d="M -30 7.77875 A 30 1.76036 180 0 0 12.92893 9.36724 L 154.14928 17.65387 L 154.14928 12.66248 L 168.29141 11.83264 L 27.07107 3.54602" />
    <path d="M 12.92893 4.37586 L 12.92893 9.36724" />
    <path d="M 12.92893 4.37586 A 30 1.76036 360 0 1 -30 2.78736 A 30 1.76036 360 1 1 30 2.78736 A 30 1.76036 360 0 1 27.07107 3.54602" />
    <path d="M 154.14928 17.65387 L 168.29141 16.82403 L 168.29141 11.83264" />
    <path d="M 12.92893 4.37586 L 154.14928 12.66248" />
    <path d="M 17.67767 1.75006 A 25 1.46697 360 0 1 25 2.78736 A 25 1.46697 360 0 1 -25 2.78736 A 25 1.46697 360 0 1 17.67767 1.75006 Z" />
    <path d="M 159.09903 11.70817 A 5 0.29339 180 0 0 150.56349 11.91563 A 5 0.29339 180 0 0 160.56349 11.91563 A 5 0.29339 180 0 0 159.09903 11.70817 Z" />
    <path d="M -243.59829 -23.81752 A 34.5 2.02442 360 0 1 -253.7031 -25.249 L -253.7031 10.68897 A 34.5 2.02442 180 0 0 -243.59829 12.12045 A 34.5 2.02442 180 0 0 -202.92626 12.47392 L -162.63456 14.83818 L -148.49242 14.00834 L -188.78412 11.64407 A 34.5 2.02442 180 0 0 -184.7031 10.68897" />
    <path d="M -253.7031 -25.249 A 34.5 2.02442 360 0 1 -233.34524 -27.09551" />
    <path d="M -189.79201 -24.19077 A 34.5 2.02442 360 0 1 -243.59829 -23.81752" />
    <path d="M -202.92626 12.47392 A 34.5 2.02442 180 0 0 -188.78412 11.64407" />
    <path d="M -222.73864 -25.04154 A 5 0.29339 360 0 1 -224.2031 -25.249 A 5 0.29339 360 0 1 -214.2031 -25.249 A 5 0.29339 360 0 1 -222.73864 -25.04154 Z" />
    <path d="M -166.17009 14.2158 A 5 0.29339 360 0 1 -167.63456 14.00834 A 5 0.29339 360 0 1 -157.63456 14.00834 A 5 0.29339 360 0 1 -166.17009 14.2158 Z" />
    <path d="M -233.34524 15.68035 L -233.34524 12.53549" />
    <path d="M -162.63456 16.69174 L -162.63456 14.83818" />
    <path d="M -233.34524 15.68035 L -168.29141 19.49763" />
    <path d="M -148.49242 15.8619 L -148.49242 14.00834" />
    <path d="M -162.63456 -22.5972 L -162.63456 -27.58859 L -148.49242 -28.41843 L -219.2031 -32.56764 L -233.34524 -31.7378 L -162.63456 -27.58859" />
    <path d="M -148.49242 -23.42705 L -148.49242 -28.41843" />
    <path d="M -162.63456 -22.5972 L -148.49242 -23.42705" />
    <path d="M -233.34524 -26.74641 L -233.34524 -31.7378" />
    <path d="M -233.34524 -26.74641 L -162.63456 -22.5972" />
    <path d="M -166.17009 -28.21097 A 5 0.29339 360 0 1 -167.63456 -28.41843 A 5 0.29339 360 0 1 -157.63456 -28.41843 A 5 0.29339 360 0 1 -166.17009 -28.21097 Z" />
    <path d="M -222.73864 -31.53034 A 5 0.29339 360 0 1 -224.2031 -31.7378 A 5 0.29339 360 0 1 -214.2031 -31.7378 A 5 0.29339 360 0 1 -222.73864 -31.53034 Z" />
    <path d="M 233.34524 -27.09551 A 34.5 2.02442 360 0 1 253.7031 -25.249 L 253.7031 10.68897" />
    <path d="M 253.7031 -25.249 A 34.5 2.02442 360 0 1 189.79201 -24.19077" />
    <path d="M 202.92626 12.47392 A 34.5 2.02442 180 0 0 253.7031 10.68897" />
    <path d="M 188.78412 11.64407 A 34.5 2.02442 180 0 0 202.92626 12.47392" />
    <path d="M 184.7031 10.68897 A 34.5 2.02442 180 0 0 188.78412 11.64407 L 168.29141 12.84656" />
    <path d="M 215.66757 -25.45646 A 5 0.29339 360 0 1 224.2031 -25.249 A 5 0.29339 360 0 1 214.2031 -25.249 A 5 0.29339 360 0 1 215.66757 -25.45646 Z" />
    <path d="M 168.29141 14.50624 L 202.92626 12.47392" />
    <path d="M 148.49242 18.99972 L 148.49242 17.32193" />
    <path d="M 233.34524 15.68035 L 233.34524 12.53549" />
    <path d="M 162.63456 19.82957 L 162.63456 17.15596" />
    <path d="M 162.63456 19.82957 L 233.34524 15.68035" />
    <path d="M 148.49242 18.99972 L 162.63456 19.82957" />
    <path d="M 148.49242 -23.42705 L 148.49242 -28.41843 L 162.63456 -27.58859 L 233.34524 -31.7378 L 219.2031 -32.56764 L 148.49242 -28.41843" />
    <path d="M 162.63456 -22.5972 L 162.63456 -27.58859" />
    <path d="M 148.49242 -23.42705 L 162.63456 -22.5972 L 233.34524 -26.74641 L 233.34524 -31.7378" />
    <path d="M 159.09903 -28.62589 A 5 0.29339 360 0 1 167.63456 -28.41843 A 5 0.29339 360 0 1 157.63456 -28.41843 A 5 0.29339 360 0 1 159.09903 -28.62589 Z" />
    <path d="M 215.66757 -31.94526 A 5 0.29339 360 0 1 224.2031 -31.7378 A 5 0.29339 360 0 1 214.2031 -31.7378 A 5 0.29339 360 0 1 215.66757 -31.94526 Z" />
    <path d="M -30 18.36048 L -30 23.35187" />
    <path d="M 30 18.36048 L 30 23.35187" />
    <path d="M -30 15.55999 L -30 18.16083" />
    <path d="M 30 13.16944 L 30 18.16083" />
    <path d="M -30 7.9784 L -30 8.90892" />
    <path d="M 30 10.36895 L 30 12.96979" />
    <path d="M -30 2.78736 L -30 7.77875" />
    <path d="M 30 2.78736 L 30 3.71788" />
    <path d="M -184.7031 -23.89216 L -184.7031 10.68897" />
    <path d="M 184.7031 -23.89216 L 184.7031 10.68897" />
</svg>