<svg version="1.1" xmlns="http://www.w3.org/2000/svg" viewBox="-180.509246925864 -40.09266881686215 361.01849385172807 80.89714798659813" fill="none" stroke="black" stroke-width="0.6%" vector-effect="non-scaling-stroke">
    <path d="M -179.50925 19.30472 A 34.5 2.86184 180 0 0 -159.58958 21.89843 A 34.5 2.86184 180 0 0 -140.35029 22.14035" />
    <path d="M -119.31011 17.44806 L -119.31011 21.21406 L -102.11892 21.87904" />
    <path d="M -128.35029 21.81081 A 34.5 2.86184 180 0 0 -119.31011 21.21406" />
    <path d="M -159.58958 -17.96371 A 34.5 2.86184 0 0 1 -179.50925 -20.55742 A 34.5 2.86184 0 0 1 -110.86018 -20.96457" />
    <path d="M -110.54027 -20.67876 A 34.5 2.86184 0 0 1 -110.50925 -20.55742 A 34.5 2.86184 0 0 1 -110.54027 -20.43609" />
    <path d="M -150.69469 -17.73471 A 34.5 2.86184 0 0 1 -159.58958 -17.96371" />
    <path d="M -109.3065 16.61825 L -102.11892 16.89627" />
    <path d="M -147.12234 -20.18152 A 5 0.41476 0 0 1 -150.00925 -20.55742 A 5 0.41476 0 1 1 -140.00925 -20.55742 A 5 0.41476 0 0 1 -147.12234 -20.18152 Z" />
    <path d="M -47.75824 -29.1006 L -47.75824 -34.08337 L -39.30587 -35.58697 L -129.93665 -39.09267 L -138.38902 -37.58907 L -47.75824 -34.08337" />
    <path d="M -39.30587 -30.6042 L -39.30587 -35.58697" />
    <path d="M -47.75824 -29.1006 L -39.30587 -30.6042" />
    <path d="M -138.38902 -32.6063 L -138.38902 -37.58907" />
    <path d="M -138.38902 -32.6063 L -47.75824 -29.1006" />
    <path d="M -54.70823 -34.80984 A 5 0.41476 0 0 1 -57.59514 -35.18574 A 5 0.41476 0 1 1 -47.59514 -35.18574 A 5 0.41476 0 0 1 -54.70823 -34.80984 Z" />
    <path d="M -127.21285 -37.6144 A 5 0.41476 0 0 1 -130.09976 -37.9903 A 5 0.41476 0 1 1 -120.09976 -37.9903 A 5 0.41476 0 0 1 -127.21285 -37.6144 Z" />
    <path d="M -102.11892 36.94264 A 34.5 2.86184 180 0 0 -36.3513 38.1521 A 34.5 2.86184 180 0 0 -33.11892 36.94264" />
    <path d="M -36.3513 -1.71004 A 34.5 2.86184 0 0 1 -102.11892 -2.91951 A 34.5 2.86184 0 1 1 -33.11892 -2.91951 A 34.5 2.86184 0 0 1 -36.3513 -1.71004 Z" />
    <path d="M -33.11892 32.76821 L -20.5202 30.52701 L -20.5202 25.54424 L -33.11892 25.05691" />
    <path d="M -33.11892 27.78544 L -20.5202 25.54424" />
    <path d="M -29.27792 26.12075 A 5 0.41476 0 0 1 -33.11892 26.35625" />
    <path d="M -33.11892 25.53468 A 5 0.41476 0 0 1 -28.80946 25.94547 A 5 0.41476 0 0 1 -29.27792 26.12075" />
    <path d="M -63.08738 -2.74422 A 5 0.41476 0 0 1 -72.61892 -2.91951 A 5 0.41476 0 1 1 -62.61892 -2.91951 A 5 0.41476 0 0 1 -63.08738 -2.74422 Z" />
    <path d="M -110.54027 -15.96943 L -110.54027 -20.9522 L -128.66642 -21.65334 L -170.92825 -14.13534 L -152.80209 -13.4342 L -110.54027 -20.9522" />
    <path d="M -152.80209 -8.45143 L -152.80209 -13.4342" />
    <path d="M -152.80209 -8.45143 L -110.54027 -15.96943" />
    <path d="M -170.92825 -9.15257 L -170.92825 -14.13534" />
    <path d="M -170.92825 -9.15257 L -152.80209 -8.45143" />
    <path d="M -119.29799 -20.37569 A 5 0.41476 0 0 1 -128.82953 -20.55097 A 5 0.41476 0 1 1 -118.82953 -20.55097 A 5 0.41476 0 0 1 -119.29799 -20.37569 Z" />
    <path d="M -153.10745 -14.36129 A 5 0.41476 0 0 1 -162.63899 -14.53657 A 5 0.41476 0 1 1 -152.63899 -14.53657 A 5 0.41476 0 0 1 -153.10745 -14.36129 Z" />
    <path d="M 110.50925 30.52296 A 34.5 2.86184 180 0 0 179.50925 30.52296" />
    <path d="M 159.58958 -11.93289 A 34.5 2.86184 360 0 1 179.50925 -9.33918 A 34.5 2.86184 360 0 1 134.74171 -6.60702" />
    <path d="M 138.38902 -12.14784 A 34.5 2.86184 360 0 1 159.58958 -11.93289" />
    <path d="M 59.21536 28.11963 L 110.50925 30.10373" />
    <path d="M 59.21536 23.13686 L 110.50925 25.12097" />
    <path d="M 59.21536 28.11963 L 59.21536 23.13686" />
    <path d="M 110.50925 23.29042 L 67.66773 21.63326 L 59.21536 23.13686" />
    <path d="M 74.61771 22.35973 A 5 0.41476 360 0 1 77.50462 22.73563 A 5 0.41476 360 0 1 67.50462 22.73563 A 5 0.41476 360 0 1 74.61771 22.35973 Z" />
    <path d="M 147.12234 -9.71508 A 5 0.41476 360 0 1 150.00925 -9.33918 A 5 0.41476 360 0 1 140.00925 -9.33918 A 5 0.41476 360 0 1 147.12234 -9.71508 Z" />
    <path d="M 39.30587 -9.25794 L 39.30587 -14.24071 L 129.93665 -10.73501 L 138.38902 -12.23861 L 47.75824 -15.74431 L 39.30587 -14.24071" />
    <path d="M 138.38902 -7.25584 L 138.38902 -12.23861" />
    <path d="M 129.93665 -5.75224 L 129.93665 -10.73501" />
    <path d="M 39.30587 -9.25794 L 129.93665 -5.75224 L 138.38902 -7.25584" />
    <path d="M 54.70823 -15.01784 A 5 0.41476 360 0 1 57.59514 -14.64194 A 5 0.41476 360 0 1 47.59514 -14.64194 A 5 0.41476 360 0 1 54.70823 -15.01784 Z" />
    <path d="M 127.21285 -12.21328 A 5 0.41476 360 0 1 130.09976 -11.83738 A 5 0.41476 360 0 1 120.09976 -11.83738 A 5 0.41476 360 0 1 127.21285 -12.21328 Z" />
    <path d="M 62.7276 15.71797 A 34.5 2.86184 180 0 0 102.11892 12.88504" />
    <path d="M 62.7276 14.70495 L 62.7276 15.71797" />
    <path d="M 36.3513 -28.18657 A 34.5 2.86184 0 0 1 102.11892 -26.9771 L 102.11892 -13.64158" />
    <path d="M 102.11892 -26.9771 A 34.5 2.86184 0 1 1 33.11892 -26.9771 L 33.11892 -8.16255" />
    <path d="M 33.11892 -26.9771 A 34.5 2.86184 0 0 1 36.3513 -28.18657" />
    <path d="M 52.5 17.53737 L 62.7276 15.71797" />
    <path d="M 20.5202 17.07458 L 20.5202 16.56511" />
    <path d="M 63.08738 -27.15239 A 5 0.41476 0 0 1 72.61892 -26.9771 A 5 0.41476 0 1 1 62.61892 -26.9771 A 5 0.41476 0 0 1 63.08738 -27.15239 Z" />
    <path d="M 110.54027 -23.89271 L 110.54027 -28.87548 L 128.66642 -28.17434 L 170.92825 -35.69234 L 152.80209 -36.39348 L 110.54027 -28.87548" />
    <path d="M 128.66642 -23.19157 L 128.66642 -28.17434" />
    <path d="M 110.54027 -23.89271 L 128.66642 -23.19157 L 170.92825 -30.70957 L 170.92825 -35.69234" />
    <path d="M 119.29799 -29.45199 A 5 0.41476 0 0 1 128.82953 -29.27671 A 5 0.41476 0 1 1 118.82953 -29.27671 A 5 0.41476 0 0 1 119.29799 -29.45199 Z" />
    <path d="M 153.10745 -35.46639 A 5 0.41476 0 0 1 162.63899 -35.29111 A 5 0.41476 0 1 1 152.63899 -35.29111 A 5 0.41476 0 0 1 153.10745 -35.46639 Z" />
    <path d="M -33.11892 22.1143 A 52.5 4.35498 180 0 0 52.5 18.73521" />
    <path d="M 52.00281 13.15451 A 52.5 4.35498 360 0 1 52.5 13.75244 L 52.5 18.73521" />
    <path d="M 52.5 13.75244 A 52.5 4.35498 360 0 1 -33.11892 17.13153" />
    <path d="M -31.29768 10.25593 A 52.5 4.35498 360 0 1 -27.93583 10.06519" />
    <path d="M 27.93583 10.06519 A 52.5 4.35498 360 0 1 29.37238 10.14283" />
    <path d="M 52.5 15.55335 L 110.50925 10.74137" />
    <path d="M -31.81981 16.09569 A 45 3.73284 180 0 0 -33.11892 16.20805" />
    <path d="M 33.51052 16.24382 A 45 3.73284 180 0 0 31.29768 16.05308" />
    <path d="M -31.29768 16.05308 A 45 3.73284 180 0 0 -31.81981 16.09569" />
    <path d="M 52.5 10.57058 L 81.69266 8.14899" />
    <path d="M 67.55052 6.97587 L 52.5 8.22434" />
    <path d="M 31.95662 9.92846 L 29.37238 10.14283" />
    <path d="M -25.25897 10.66312 A 45 3.73284 360 0 1 -19.9467 10.40635" />
    <path d="M 19.9467 10.40635 A 45 3.73284 360 0 1 25.25897 10.66312" />
    <path d="M 41.17578 15.25832 A 45 3.73284 360 0 1 -33.11892 16.2796" />
    <path d="M -33.11892 15.93567 A 52.5 4.35498 180 0 0 52.5 12.55657" />
    <path d="M -29.37238 3.96419 A 52.5 4.35498 0 0 1 -27.93583 3.88656" />
    <path d="M 27.93583 3.88656 A 52.5 4.35498 0 0 1 31.29768 4.0773" />
    <path d="M 52.00281 6.97587 A 52.5 4.35498 0 0 1 52.5 7.57381 L 52.5 12.55657" />
    <path d="M 52.5 7.57381 A 52.5 4.35498 0 0 1 -33.11892 10.9529" />
    <path d="M -110.50925 4.56274 L -102.11892 5.25873" />
    <path d="M 33.51052 10.06519 A 45 3.73284 180 0 0 31.29768 9.87445" />
    <path d="M -29.37238 3.96419 L -31.95662 3.74983" />
    <path d="M -102.11892 -2.07027 L -110.50925 -2.76627" />
    <path d="M -110.50925 -0.42003 L -102.11892 0.27596" />
    <path d="M -31.81981 10.21332 A 45 3.73284 360 0 1 -31.95662 10.20192" />
    <path d="M -25.25897 4.48449 A 45 3.73284 360 0 1 -19.9467 4.22772" />
    <path d="M 19.9467 4.22772 A 45 3.73284 360 0 1 25.25897 4.48449" />
    <path d="M 41.17578 9.07969 A 45 3.73284 360 0 1 -31.81981 10.21332" />
    <path d="M -29.37238 9.98756 A 52.5 4.35498 180 0 0 52.5 6.37794" />
    <path d="M -31.29768 -2.10133 A 52.5 4.35498 0 0 1 31.29768 -2.10133" />
    <path d="M 37.25996 4.46321 A 52.5 4.35498 0 0 1 -29.37238 5.00479 L -29.37238 9.98756" />
    <path d="M -134.35029 18.69568 L -102.11892 16.02202" />
    <path d="M -33.11892 10.29834 L -29.37238 9.98756" />
    <path d="M -148.49242 17.52256 L -134.35029 18.69568 L -134.35029 13.71291 L -102.11892 11.03925" />
    <path d="M -31.29768 3.69582 A 45 3.73284 180 0 0 -33.11892 3.85078" />
    <path d="M -148.49242 17.52256 L -148.49242 12.53979 L -134.35029 13.71291" />
    <path d="M -102.11892 8.69302 L -128.35029 10.86896" />
    <path d="M -140.35029 11.86439 L -148.49242 12.53979" />
    <path d="M -33.11892 5.31557 L -29.37238 5.00479" />
    <path d="M 31.81981 4.03469 A 45 3.73284 360 0 1 -33.11892 3.92233" />
    <path d="M -25.25897 -1.69414 A 45 3.73284 360 0 1 25.25897 -1.69414" />
    <path d="M 31.95662 4.02329 A 45 3.73284 360 0 1 31.81981 4.03469" />
    <path d="M -130.81475 12.83307 A 5 0.41476 180 0 0 -129.35029 12.53979 A 5 0.41476 180 0 0 -130.23588 12.30412" />
    <path d="M -138.4647 12.30412 A 5 0.41476 180 0 0 -139.35029 12.53979 A 5 0.41476 180 0 0 -130.81475 12.83307" />
    <path d="M -33.11892 3.57841 A 52.5 4.35498 180 0 0 29.37238 3.80892 L 134.35029 12.51704 L 134.35029 7.53428 L 148.49242 6.36116 L 43.51452 -2.34696" />
    <path d="M 29.37238 -1.17384 L 29.37238 3.80892" />
    <path d="M 29.37238 -1.17384 A 52.5 4.35498 0 0 1 -33.11892 -1.40436" />
    <path d="M -51.85303 -5.46504 A 52.5 4.35498 0 0 1 52.5 -4.78346 L 52.5 -1.6016" />
    <path d="M 52.5 -4.78346 A 52.5 4.35498 0 0 1 43.51452 -2.34696" />
    <path d="M 134.35029 12.51704 L 148.49242 11.34393 L 148.49242 6.36116" />
    <path d="M 31.81981 -2.4402 A 45 3.73284 180 0 0 -33.11892 -2.32785" />
    <path d="M 33.51052 -2.29207 A 45 3.73284 180 0 0 31.81981 -2.4402" />
    <path d="M 29.37238 -1.17384 L 134.35029 7.53428" />
    <path d="M 31.81981 -7.42297 A 45 3.73284 0 0 1 45 -4.78346 A 45 3.73284 0 0 1 -33.11892 -2.2563" />
    <path d="M -44.86649 -5.07079 A 45 3.73284 0 0 1 31.81981 -7.42297" />
    <path d="M 137.88582 6.06788 A 5 0.41476 180 0 0 129.35029 6.36116 A 5 0.41476 180 0 0 139.35029 6.36116 A 5 0.41476 180 0 0 137.88582 6.06788 Z" />
    <path d="M 130.10765 14.57958 A 6 0.49771 360 0 1 140.35029 14.93152 L 140.35029 29.87982" />
    <path d="M 140.35029 14.93152 A 6 0.49771 360 0 1 128.35029 14.93152 L 128.35029 29.87982 A 6 0.49771 180 0 0 140.35029 29.87982" />
    <path d="M 128.35029 14.93152 A 6 0.49771 360 0 1 130.10765 14.57958" />
    <path d="M 137.88582 15.2248 A 5 0.41476 180 0 0 139.35029 14.93152 A 5 0.41476 180 0 0 129.35029 14.93152 A 5 0.41476 180 0 0 137.88582 15.2248 Z" />
    <path d="M 130.10765 -13.68897 A 6 0.49771 360 0 1 140.35029 -13.33703 L 140.35029 -12.17481" />
    <path d="M 140.35029 -13.33703 A 6 0.49771 360 0 1 128.35029 -13.33703 L 128.35029 -12.62692" />
    <path d="M 128.35029 -13.33703 A 6 0.49771 360 0 1 130.10765 -13.68897" />
    <path d="M 137.88582 -13.04375 A 5 0.41476 180 0 0 139.35029 -13.33703 A 5 0.41476 180 0 0 129.35029 -13.33703 A 5 0.41476 180 0 0 137.88582 -13.04375 Z" />
    <path d="M -138.59293 19.56235 A 6 0.49771 360 0 1 -128.35029 19.91429 L -128.35029 29.87982" />
    <path d="M -128.35029 19.91429 A 6 0.49771 360 0 1 -140.35029 19.91429 L -140.35029 29.87982 A 6 0.49771 180 0 0 -128.35029 29.87982" />
    <path d="M -140.35029 19.91429 A 6 0.49771 360 0 1 -138.59293 19.56235" />
    <path d="M -130.81475 20.20757 A 5 0.41476 180 0 0 -129.35029 19.91429 A 5 0.41476 180 0 0 -139.35029 19.91429 A 5 0.41476 180 0 0 -130.81475 20.20757 Z" />
    <path d="M -138.59293 6.60716 A 6 0.49771 360 0 1 -128.35029 6.95909 L -128.35029 11.94186" />
    <path d="M -128.35029 6.95909 A 6 0.49771 360 0 1 -140.35029 6.95909 L -140.35029 11.94186 A 6 0.49771 180 0 0 -128.35029 11.94186" />
    <path d="M -140.35029 6.95909 A 6 0.49771 360 0 1 -138.59293 6.60716" />
    <path d="M -130.81475 7.25237 A 5 0.41476 180 0 0 -129.35029 6.95909 A 5 0.41476 180 0 0 -139.35029 6.95909 A 5 0.41476 180 0 0 -130.81475 7.25237 Z" />
    <path d="M -179.50925 -20.55742 L -179.50925 19.30472" />
    <path d="M -110.50925 -20.55742 L -110.50925 9.38901" />
    <path d="M -102.11892 -2.91951 L -102.11892 36.94264" />
    <path d="M -33.11892 -2.91951 L -33.11892 36.94264" />
    <path d="M 110.50925 -6.50372 L 110.50925 3.21038" />
    <path d="M 110.50925 10.53938 L 110.50925 30.52296" />
    <path d="M 179.50925 -9.33918 L 179.50925 30.52296" />
    <path d="M 33.11892 -2.32785 L 33.11892 -2.2563" />
    <path d="M 102.11892 -6.82826 L 102.11892 2.51439" />
    <path d="M 102.11892 11.43736 L 102.11892 12.88504" />
    <path d="M 52.5 5.7274 L 52.5 6.37794" />
</svg>