<svg version="1.1" xmlns="http://www.w3.org/2000/svg" viewBox="-254.7031031678298 -36.10532951485043 509.4062063356596 72.21065902970089" fill="none" stroke="black" stroke-width="0.6%" vector-effect="non-scaling-stroke">
    <path d="M -243.59829 -26.73305 A 34.5 1.68306 0 0 1 -253.7031 -27.92315 A 34.5 1.68306 0 0 1 -233.34524 -29.45831" />
    <path d="M -187.97325 -27.20792 A 34.5 1.68306 0 0 1 -243.59829 -26.73305" />
    <path d="M -222.73864 -27.75067 A 5 0.24392 0 0 1 -224.2031 -27.92315 A 5 0.24392 0 0 1 -214.2031 -27.92315 A 5 0.24392 0 0 1 -222.73864 -27.75067 Z" />
    <path d="M -184.7031 10.40696 L -168.29141 11.2076" />
    <path d="M -159.69681 10.24705 L -184.7031 9.02713" />
    <path d="M -162.63456 16.47761 L -162.63456 15.93634" />
    <path d="M -184.7031 15.40101 L -162.63456 16.47761 L -157.08703 16.20698" />
    <path d="M -162.63456 -25.97179 L -162.63456 -30.96584 L -148.49242 -31.65575 L -219.2031 -35.10533 L -233.34524 -34.41541 L -162.63456 -30.96584" />
    <path d="M -148.49242 -26.6617 L -148.49242 -31.65575" />
    <path d="M -162.63456 -25.97179 L -148.49242 -26.6617" />
    <path d="M -233.34524 -29.42137 L -233.34524 -34.41541" />
    <path d="M -233.34524 -29.42137 L -162.63456 -25.97179" />
    <path d="M -166.17009 -31.48327 A 5 0.24392 0 0 1 -167.63456 -31.65575 A 5 0.24392 0 0 1 -157.63456 -31.65575 A 5 0.24392 0 0 1 -166.17009 -31.48327 Z" />
    <path d="M -222.73864 -34.24293 A 5 0.24392 0 0 1 -224.2031 -34.41541 A 5 0.24392 0 0 1 -214.2031 -34.41541 A 5 0.24392 0 0 1 -222.73864 -34.24293 Z" />
    <path d="M -194.80792 -5.34567 A 34.5 1.68306 0 0 1 -253.7031 -6.53577 A 34.5 1.68306 0 0 1 -233.34524 -8.07093" />
    <path d="M -204.54204 -8.0593 A 34.5 1.68306 0 0 1 -184.7031 -6.53577 A 34.5 1.68306 0 0 1 -194.80792 -5.34567" />
    <path d="M -253.7031 29.42137 A 34.5 1.68306 180 0 0 -194.80792 30.61147 A 34.5 1.68306 180 0 0 -184.7031 29.42137" />
    <path d="M -215.66757 -6.36329 A 5 0.24392 0 0 1 -224.2031 -6.53577 A 5 0.24392 0 0 1 -214.2031 -6.53577 A 5 0.24392 0 0 1 -215.66757 -6.36329 Z" />
    <path d="M -184.7031 28.42822 L -148.49242 26.6617 L -162.63456 25.97179 L -184.7031 27.04839" />
    <path d="M -159.09903 26.83418 A 5 0.24392 0 0 1 -167.63456 26.6617 A 5 0.24392 0 0 1 -157.63456 26.6617 A 5 0.24392 0 0 1 -159.09903 26.83418 Z" />
    <path d="M -219.2031 35.10533 L -219.2031 31.10443" />
    <path d="M -148.49242 31.65575 L -148.49242 26.6617" />
    <path d="M -219.2031 35.10533 L -148.49242 31.65575" />
    <path d="M -233.34524 34.41541 L -233.34524 30.95653" />
    <path d="M -233.34524 34.41541 L -219.2031 35.10533" />
    <path d="M -148.49242 -10.79365 L -148.49242 -15.78769 L -162.63456 -16.47761 L -233.34524 -13.02803 L -219.2031 -12.33811 L -148.49242 -15.78769" />
    <path d="M -219.2031 -7.34407 L -219.2031 -12.33811" />
    <path d="M -219.2031 -7.34407 L -148.49242 -10.79365" />
    <path d="M -233.34524 -8.03398 L -233.34524 -13.02803" />
    <path d="M -233.34524 -8.03398 L -219.2031 -7.34407" />
    <path d="M -159.09903 -15.61521 A 5 0.24392 0 0 1 -167.63456 -15.78769 A 5 0.24392 0 0 1 -157.63456 -15.78769 A 5 0.24392 0 0 1 -159.09903 -15.61521 Z" />
    <path d="M -215.66757 -12.85555 A 5 0.24392 0 0 1 -224.2031 -13.02803 A 5 0.24392 0 0 1 -214.2031 -13.02803 A 5 0.24392 0 0 1 -215.66757 -12.85555 Z" />
    <path d="M 243.59829 -7.72587 A 34.5 1.68306 0 0 1 253.7031 -6.53577 L 253.7031 29.42137" />
    <path d="M 253.7031 -6.53577 A 34.5 1.68306 0 0 1 184.7031 -6.53577 L 184.7031 29.42137 A 34.5 1.68306 180 0 0 253.7031 29.42137" />
    <path d="M 184.7031 -6.53577 A 34.5 1.68306 0 0 1 204.54204 -8.0593" />
    <path d="M 233.34524 -8.07093 A 34.5 1.68306 0 0 1 243.59829 -7.72587" />
    <path d="M 222.73864 -6.70825 A 5 0.24392 0 0 1 224.2031 -6.53577 A 5 0.24392 0 0 1 214.2031 -6.53577 A 5 0.24392 0 0 1 222.73864 -6.70825 Z" />
    <path d="M 184.7031 27.04839 L 162.63456 25.97179 L 148.49242 26.6617 L 184.7031 28.42822" />
    <path d="M 166.17009 26.48923 A 5 0.24392 0 0 1 167.63456 26.6617 A 5 0.24392 0 0 1 157.63456 26.6617 A 5 0.24392 0 0 1 166.17009 26.48923 Z" />
    <path d="M 233.34524 34.41541 L 233.34524 30.95653" />
    <path d="M 219.2031 35.10533 L 219.2031 31.10443" />
    <path d="M 219.2031 35.10533 L 233.34524 34.41541" />
    <path d="M 148.49242 31.65575 L 148.49242 26.6617" />
    <path d="M 148.49242 31.65575 L 219.2031 35.10533" />
    <path d="M 148.49242 -10.79365 L 148.49242 -15.78769 L 219.2031 -12.33811 L 233.34524 -13.02803 L 162.63456 -16.47761 L 148.49242 -15.78769" />
    <path d="M 233.34524 -8.03398 L 233.34524 -13.02803" />
    <path d="M 219.2031 -7.34407 L 219.2031 -12.33811" />
    <path d="M 148.49242 -10.79365 L 219.2031 -7.34407 L 233.34524 -8.03398" />
    <path d="M 166.17009 -15.96017 A 5 0.24392 0 0 1 167.63456 -15.78769 A 5 0.24392 0 0 1 157.63456 -15.78769 A 5 0.24392 0 0 1 166.17009 -15.96017 Z" />
    <path d="M 222.73864 -13.20051 A 5 0.24392 0 0 1 224.2031 -13.02803 A 5 0.24392 0 0 1 214.2031 -13.02803 A 5 0.24392 0 0 1 222.73864 -13.20051 Z" />
    <path d="M 233.34524 -29.45831 A 34.5 1.68306 360 0 1 253.7031 -27.92315 L 253.7031 -6.53577" />
    <path d="M 253.7031 -27.92315 A 34.5 1.68306 360 0 1 187.97325 -27.20792" />
    <path d="M 215.66757 -28.09563 A 5 0.24392 360 0 1 224.2031 -27.92315 A 5 0.24392 360 0 1 214.2031 -27.92315 A 5 0.24392 360 0 1 215.66757 -28.09563 Z" />
    <path d="M 184.7031 9.02713 L 168.29141 9.82776" />
    <path d="M 162.63456 11.48356 L 184.7031 10.40696" />
    <path d="M 160.58716 11.38368 L 162.63456 11.48356" />
    <path d="M 148.49242 15.78769 L 148.49242 11.97372" />
    <path d="M 162.63456 16.47761 L 162.63456 11.48356" />
    <path d="M 162.63456 16.47761 L 184.7031 15.40101" />
    <path d="M 148.49242 15.78769 L 162.63456 16.47761" />
    <path d="M 148.49242 -26.6617 L 148.49242 -31.65575 L 162.63456 -30.96584 L 233.34524 -34.41541 L 219.2031 -35.10533 L 148.49242 -31.65575" />
    <path d="M 162.63456 -25.97179 L 162.63456 -30.96584" />
    <path d="M 148.49242 -26.6617 L 162.63456 -25.97179 L 233.34524 -29.42137 L 233.34524 -34.41541" />
    <path d="M 159.09903 -31.82823 A 5 0.24392 360 0 1 167.63456 -31.65575 A 5 0.24392 360 0 1 157.63456 -31.65575 A 5 0.24392 360 0 1 159.09903 -31.82823 Z" />
    <path d="M 215.66757 -34.58789 A 5 0.24392 360 0 1 224.2031 -34.41541 A 5 0.24392 360 0 1 214.2031 -34.41541 A 5 0.24392 360 0 1 215.66757 -34.58789 Z" />
    <path d="M -30 18.52791 A 30 1.46353 180 0 0 30 18.52791" />
    <path d="M 29.93005 13.43399 A 30 1.46353 360 0 1 30 13.53387 L 30 18.52791" />
    <path d="M 30 13.53387 A 30 1.46353 360 0 1 -30 13.53387 L -30 18.52791" />
    <path d="M -30 13.53387 A 30 1.46353 360 0 1 -29.93005 13.43399" />
    <path d="M 30 17.7543 L 168.29141 11.00783 L 168.29141 10.46657 L 168.29141 5.47252 L 27.07107 -1.41683" />
    <path d="M 30 12.76025 L 108.51194 8.93009" />
    <path d="M 94.3698 8.24018 L 30 11.38042" />
    <path d="M -30 13.3341 A 30 1.46353 180 0 0 30 13.3341" />
    <path d="M 29.93005 8.24018 A 30 1.46353 0 0 1 30 8.34006 L 30 13.3341" />
    <path d="M 30 8.34006 A 30 1.46353 0 0 1 -15.5861 9.59057" />
    <path d="M -168.29141 5.81402 L -118.55928 8.24018" />
    <path d="M -53.23227 11.42712 L -30 12.56049" />
    <path d="M -53.23227 5.05324 L -154.14928 0.13006 L -168.29141 0.81998 L -67.37441 5.74315" />
    <path d="M -159.09903 0.92347 A 5 0.24392 180 0 0 -150.56349 0.75099 A 5 0.24392 180 0 0 -160.56349 0.75099 A 5 0.24392 180 0 0 -159.09903 0.92347 Z" />
    <path d="M -168.29141 5.81402 L -168.29141 0.81998" />
    <path d="M -12.92893 9.46094 A 30 1.46353 180 0 0 30 8.1403" />
    <path d="M -27.07107 3.77698 A 30 1.46353 0 0 1 -30 3.14625 L -30 3.91987" />
    <path d="M -30 3.14625 A 30 1.46353 0 0 1 -29.93005 3.04637" />
    <path d="M 15.5861 4.39676 A 30 1.46353 0 0 1 -12.92893 4.4669 L -12.92893 9.46094" />
    <path d="M -154.14928 16.35029 L -12.92893 9.46094" />
    <path d="M -168.29141 15.66038 L -154.14928 16.35029 L -154.14928 11.35624 L -12.92893 4.4669" />
    <path d="M -168.29141 15.66038 L -168.29141 10.66633 L -154.14928 11.35624" />
    <path d="M -27.07107 3.77698 L -168.29141 10.66633" />
    <path d="M -152.02796 10.9078 A 5 0.24392 180 0 0 -150.56349 10.73532 A 5 0.24392 180 0 0 -160.56349 10.73532 A 5 0.24392 180 0 0 -152.02796 10.9078 Z" />
    <path d="M -30 2.94649 A 30 1.46353 180 0 0 12.92893 4.26713 L 154.14928 11.15648 L 168.29141 10.46657" />
    <path d="M 12.92893 -0.72691 L 12.92893 4.26713" />
    <path d="M 12.92893 -0.72691 A 30 1.46353 360 0 1 -30 -2.04756 L -30 2.94649" />
    <path d="M -30 -2.04756 A 30 1.46353 360 1 1 30 -2.04756 L 30 -1.27394" />
    <path d="M 30 -2.04756 A 30 1.46353 360 0 1 27.07107 -1.41683" />
    <path d="M 154.14928 11.15648 L 154.14928 6.16244 L 168.29141 5.47252" />
    <path d="M 12.92893 -0.72691 L 154.14928 6.16244" />
    <path d="M 17.67767 -2.90995 A 25 1.21961 0 0 1 25 -2.04756 A 25 1.21961 0 0 1 -25 -2.04756 A 25 1.21961 0 0 1 17.67767 -2.90995 Z" />
    <path d="M 159.09903 5.36903 A 5 0.24392 0 0 1 160.56349 5.54151 A 5 0.24392 0 0 1 150.56349 5.54151 A 5 0.24392 0 0 1 159.09903 5.36903 Z" />
    <path d="M -253.7031 -27.92315 L -253.7031 -6.53577 L -253.7031 29.42137" />
    <path d="M -184.7031 -27.04839 L -184.7031 -15.40101" />
    <path d="M -184.7031 -9.02713 L -184.7031 -6.53577 L -184.7031 29.42137" />
    <path d="M 184.7031 -27.04839 L 184.7031 -15.40101" />
    <path d="M 184.7031 -9.02713 L 184.7031 -6.53577" />
    <path d="M -30 10.29374 L -30 13.3341" />
    <path d="M 30 5.09994 L 30 8.1403" />
</svg>