<svg version="1.1" xmlns="http://www.w3.org/2000/svg" viewBox="-152.49210178495096 -34.810608242067914 278.30039369107044 66.3893277933398" fill="none" stroke="black" stroke-width="0.6%" vector-effect="non-scaling-stroke">
    <path d="M 104.44477 -29.11968 A 34.5 3.53256 360 0 1 124.80829 -25.89729 A 34.5 3.53256 360 0 1 64.83009 -23.51545" />
    <path d="M 73.17743 12.97979 A 34.5 3.53256 180 0 0 124.80829 9.91349" />
    <path d="M 71.9203 12.90248 A 34.5 3.53256 180 0 0 73.17743 12.97979" />
    <path d="M 97.65756 -2.15304 A 34.5 3.53256 360 0 1 90.18047 -2.07198 A 25 2.55983 360 0 1 48.59126 -3.98703 A 25 2.55983 360 0 1 55.80829 -5.78625" />
    <path d="M 97.65756 -2.15304 L 97.65756 2.82068" />
    <path d="M 73.17743 7.80712 A 34.5 3.53256 360 0 1 68.87343 7.50884 A 5 0.51197 360 0 1 59.86934 7.20222 A 5 0.51197 360 0 1 62.10604 6.77554 A 34.5 3.53256 360 0 1 59.44103 6.31868 L 42.37119 7.9703" />
    <path d="M 73.17743 7.80712 L 73.17743 12.78084" />
    <path d="M 62.10604 6.77554 L 62.10604 7.62889" />
    <path d="M 93.51054 -26.29048 A 5 0.51197 360 0 1 95.30829 -25.89729 A 5 0.51197 360 0 1 86.29333 -25.59217" />
    <path d="M 37.86248 16.39676 L 73.17743 12.97979" />
    <path d="M 46.16528 -2.74214 L -1.09238 1.83037" />
    <path d="M -39.87744 5.5831 L -98.99356 11.303 L -85.25716 12.79144 L -26.14103 7.07154" />
    <path d="M 12.64403 3.31881 L 59.90169 -1.2537 L 59.90169 3.72002 A 30 3.07179 180 0 0 97.65756 2.82068" />
    <path d="M 97.65756 -2.15304 A 30 3.07179 360 0 1 59.90169 -1.2537" />
    <path d="M 46.16528 -2.74214 A 30 3.07179 360 0 1 43.59126 -3.98703 A 30 3.07179 360 0 1 55.80829 -6.46097" />
    <path d="M -81.42298 11.71607 A 5 0.51197 180 0 0 -79.85709 11.34396 A 5 0.51197 180 0 0 -89.85709 11.34396 A 5 0.51197 180 0 0 -81.42298 11.71607 Z" />
    <path d="M -98.99356 16.27672 L -85.25716 17.76516 L -85.25716 12.79144" />
    <path d="M -85.25716 17.76516 L -1.89252 9.69905" />
    <path d="M 36.89254 5.94632 L 59.90169 3.72002" />
    <path d="M -66.15303 21.28832 L -26.14103 17.41688" />
    <path d="M 12.64403 13.66415 L 24.29588 12.53675" />
    <path d="M 42.37119 10.78784 L 73.17743 7.80712" />
    <path d="M -66.15303 21.28832 A 30 3.07179 360 0 1 -63.57901 22.53321 A 30 3.07179 360 0 1 -123.57901 22.53321 A 30 3.07179 360 0 1 -79.88944 19.79988" />
    <path d="M 10.55947 11.04831 L -1.09238 12.17571" />
    <path d="M -39.87744 15.92844 L -79.88944 19.79988" />
    <path d="M -110.74952 20.67265 A 25 2.55983 360 0 1 -68.57901 22.53321 A 25 2.55983 360 0 1 -118.57901 22.53321 A 25 2.55983 360 0 1 -110.74952 20.67265 Z" />
    <path d="M -63.57901 26.01298 L -1.89252 20.04438" />
    <path d="M 36.89254 16.29166 L 73.17743 12.78084" />
    <path d="M -123.57901 27.50693 A 30 3.07179 180 1 0 -63.57901 27.50693" />
    <path d="M -87.65257 25.02007 A 25 2.55983 180 0 0 -99.50546 25.02007" />
    <path d="M 104.44477 14.92818 L 104.44477 13.13588" />
    <path d="M 71.5611 18.1099 L 104.44477 14.92818" />
    <path d="M -98.99356 16.27672 L -98.99356 11.303" />
    <path d="M 18.02563 -21.80432 L 18.02563 -26.77804 L 31.76204 -25.2896 L 104.44477 -32.32217 L 90.70836 -33.81061 L 18.02563 -26.77804" />
    <path d="M 31.76204 -20.31588 L 31.76204 -25.2896" />
    <path d="M 18.02563 -21.80432 L 31.76204 -20.31588 L 104.44477 -27.34845 L 104.44477 -32.32217" />
    <path d="M 28.72801 -27.10919 A 5 0.51197 360 0 1 37.16211 -26.73708 A 5 0.51197 360 0 1 27.16211 -26.73708 A 5 0.51197 360 0 1 28.72801 -27.10919 Z" />
    <path d="M 86.87419 -32.73524 A 5 0.51197 360 0 1 95.30829 -32.36313 A 5 0.51197 360 0 1 85.30829 -32.36313 A 5 0.51197 360 0 1 86.87419 -32.73524 Z" />
    <path d="M 38.07029 26.13455 A 30 3.07179 180 1 0 98.07029 26.13455" />
    <path d="M 55.91236 18.3526 A 30 3.07179 360 0 1 98.07029 21.16083 L 98.07029 26.13455" />
    <path d="M 98.07029 21.16083 A 30 3.07179 360 0 1 38.07029 21.16083 L 38.07029 26.13455" />
    <path d="M 38.07029 21.16083 A 30 3.07179 360 0 1 41.37581 19.75911" />
    <path d="M -95.793 9.86957 L -90.31435 10.46322" />
    <path d="M -52.32943 14.57917 L 38.07029 24.37465" />
    <path d="M 73.99674 23.64769 A 25 2.55983 180 0 0 62.14385 23.64769" />
    <path d="M 55.91236 18.3526 L -13.54437 10.82644" />
    <path d="M -51.52929 6.7105 L -81.25645 3.48934 L -95.793 4.89585 L -66.06583 8.11701" />
    <path d="M -28.08091 12.23296 L 41.37581 19.75911" />
    <path d="M 49.89961 22.91897 A 25 2.55983 360 0 1 43.07029 21.16083 A 25 2.55983 360 0 1 93.07029 21.16083 A 25 2.55983 360 0 1 49.89961 22.91897 Z" />
    <path d="M -85.29066 5.28844 A 5 0.51197 180 0 0 -76.65652 4.93681 A 5 0.51197 180 1 0 -86.65652 4.93681 A 5 0.51197 180 0 0 -85.29066 5.28844 Z" />
    <path d="M -95.793 9.86957 L -95.793 4.89585" />
    <path d="M -151.4921 -4.75128 A 30 3.07179 180 0 0 -109.33416 -1.94305 L 27.83465 12.9202 L 27.83465 7.94648 L 42.37119 6.53997 L -94.79762 -8.32329" />
    <path d="M -109.33416 -6.91677 L -109.33416 -1.94305" />
    <path d="M -109.33416 -6.91677 A 30 3.07179 360 0 1 -151.4921 -9.725 L -151.4921 -4.75128" />
    <path d="M -151.4921 -9.725 A 30 3.07179 360 0 1 -91.4921 -9.725 L -91.4921 -7.96511" />
    <path d="M -91.4921 -9.725 A 30 3.07179 360 0 1 -94.79762 -8.32329" />
    <path d="M 27.83465 12.9202 L 42.37119 11.51369 L 42.37119 6.53997" />
    <path d="M -115.56565 -7.23814 A 25 2.55983 180 0 0 -127.41855 -7.23814" />
    <path d="M -109.33416 -6.91677 L 27.83465 7.94648" />
    <path d="M -103.32142 -11.48315 A 25 2.55983 360 0 1 -96.4921 -9.725 A 25 2.55983 360 0 1 -146.4921 -9.725 A 25 2.55983 360 0 1 -103.32142 -11.48315 Z" />
    <path d="M 31.86886 6.14738 A 5 0.51197 360 0 1 33.23472 6.49901 A 5 0.51197 360 0 1 23.23472 6.49901 A 5 0.51197 360 0 1 31.86886 6.14738 Z" />
    <path d="M 55.80829 -22.64253 L 55.80829 -2.1878" />
    <path d="M 55.80829 4.11609 L 55.80829 6.67017" />
    <path d="M 124.80829 -25.89729 L 124.80829 9.91349" />
    <path d="M 43.59126 -3.98703 L 43.59126 -2.49308" />
    <path d="M -123.57901 22.53321 L -123.57901 27.50693" />
    <path d="M -63.57901 22.53321 L -63.57901 27.50693" />
</svg>