<svg version="1.1" xmlns="http://www.w3.org/2000/svg" viewBox="-180.509246925864 -33.63960591025454 361.01849385172807 67.27921182050906" fill="none" stroke="black" stroke-width="0.6%" vector-effect="non-scaling-stroke">
    <path d="M -179.50925 15.16993 A 34.5 2.43883 180 0 0 -159.58958 17.38027 A 34.5 2.43883 180 0 0 -119.31011 16.79706 L -102.11892 17.36374" />
    <path d="M -110.85775 10.52821 A 34.5 2.43883 360 0 1 -119.31011 11.80957 L -119.31011 16.79706" />
    <path d="M -159.58958 -22.51967 A 34.5 2.43883 360 0 1 -179.50925 -24.73 A 34.5 2.43883 360 1 1 -110.50925 -24.73 A 34.5 2.43883 360 0 1 -159.58958 -22.51967 Z" />
    <path d="M -102.11892 10.81628 L -110.85775 10.52821" />
    <path d="M -119.31011 11.80957 L -102.11892 12.37625" />
    <path d="M -147.12234 -24.40966 A 5 0.35345 360 0 1 -150.00925 -24.73 A 5 0.35345 360 1 1 -140.00925 -24.73 A 5 0.35345 360 0 1 -147.12234 -24.40966 Z" />
    <path d="M -102.11892 30.20077 A 34.5 2.43883 180 0 0 -36.3513 31.23147 A 34.5 2.43883 180 0 0 -33.11892 30.20077" />
    <path d="M -36.3513 -8.66846 A 34.5 2.43883 360 0 1 -102.11892 -9.69916 A 34.5 2.43883 360 1 1 -33.11892 -9.69916 A 34.5 2.43883 360 0 1 -36.3513 -8.66846 Z" />
    <path d="M -33.11892 26.64337 L -20.5202 24.73345 L -20.5202 19.74596 L -33.11892 19.33066" />
    <path d="M -33.11892 21.65588 L -20.5202 19.74596" />
    <path d="M -29.27792 20.23725 A 5 0.35345 360 0 1 -33.11892 20.43795" />
    <path d="M -33.11892 19.73781 A 5 0.35345 360 0 1 -28.80946 20.08788 A 5 0.35345 360 0 1 -29.27792 20.23725" />
    <path d="M -63.08738 -9.54978 A 5 0.35345 360 0 1 -72.61892 -9.69916 A 5 0.35345 360 1 1 -62.61892 -9.69916 A 5 0.35345 360 0 1 -63.08738 -9.54978 Z" />
    <path d="M 110.50925 24.73 A 34.5 2.43883 180 0 0 179.50925 24.73" />
    <path d="M 159.58958 -17.38027 A 34.5 2.43883 360 0 1 179.50925 -15.16993 A 34.5 2.43883 360 0 1 110.50925 -15.16993 A 34.5 2.43883 360 0 1 159.58958 -17.38027 Z" />
    <path d="M 59.21536 22.6819 L 110.50925 24.37274" />
    <path d="M 59.21536 17.69441 L 110.50925 19.38525" />
    <path d="M 59.21536 22.6819 L 59.21536 17.69441" />
    <path d="M 110.50925 17.82527 L 67.66773 16.41306 L 59.21536 17.69441" />
    <path d="M 74.61771 17.03215 A 5 0.35345 360 0 1 77.50462 17.35249 A 5 0.35345 360 0 1 67.50462 17.35249 A 5 0.35345 360 0 1 74.61771 17.03215 Z" />
    <path d="M 147.12234 -15.49027 A 5 0.35345 360 0 1 150.00925 -15.16993 A 5 0.35345 360 0 1 140.00925 -15.16993 A 5 0.35345 360 0 1 147.12234 -15.49027 Z" />
    <path d="M 62.7276 12.11335 A 34.5 2.43883 180 0 0 102.11892 9.69916" />
    <path d="M 62.7276 10.33093 L 62.7276 12.11335" />
    <path d="M 36.3513 -31.23147 A 34.5 2.43883 360 0 1 102.11892 -30.20077 L 102.11892 -3.55634" />
    <path d="M 102.11892 -30.20077 A 34.5 2.43883 360 1 1 33.11892 -30.20077 L 33.11892 -12.65511" />
    <path d="M 33.11892 -30.20077 A 34.5 2.43883 360 0 1 36.3513 -31.23147" />
    <path d="M 52.5 13.66382 L 62.7276 12.11335" />
    <path d="M 20.5202 11.60908 L 20.5202 10.99702" />
    <path d="M 63.08738 -30.35015 A 5 0.35345 360 0 1 72.61892 -30.20077 A 5 0.35345 360 1 1 62.61892 -30.20077 A 5 0.35345 360 0 1 63.08738 -30.35015 Z" />
    <path d="M -33.11892 16.6451 A 52.5 3.71126 180 0 0 52.5 13.76548" />
    <path d="M 51.81283 8.17949 A 52.5 3.71126 0 0 1 52.5 8.77798 L 52.5 13.76548" />
    <path d="M 52.5 8.77798 A 52.5 3.71126 0 0 1 -33.11892 11.65761" />
    <path d="M -21.44025 5.39031 A 52.5 3.71126 0 0 1 -5.51311 5.08724" />
    <path d="M 5.51311 5.08724 A 52.5 3.71126 0 0 1 21.44025 5.39031" />
    <path d="M 52.5 11.05393 L 110.50925 6.95322" />
    <path d="M 27.93822 11.27173 A 45 3.18108 180 0 0 21.44025 10.96866" />
    <path d="M -21.44025 10.96866 A 45 3.18108 180 0 0 -27.93822 11.27173" />
    <path d="M 52.5 6.06644 L 95.95301 2.99471" />
    <path d="M 81.81088 1.995 L 52.5 4.067" />
    <path d="M -10.56054 5.68574 A 45 3.18108 360 0 1 10.56054 5.68574" />
    <path d="M 43.04305 9.70588 A 45 3.18108 360 0 1 -33.11892 10.9316" />
    <path d="M -33.11892 10.46061 A 52.5 3.71126 180 0 0 52.5 7.58099" />
    <path d="M -21.44025 -0.79418 A 52.5 3.71126 360 0 1 -5.51311 -1.09725" />
    <path d="M 5.51311 -1.09725 A 52.5 3.71126 360 0 1 21.44025 -0.79418" />
    <path d="M 51.81283 1.995 A 52.5 3.71126 360 0 1 52.5 2.5935 L 52.5 7.58099" />
    <path d="M 52.5 2.5935 A 52.5 3.71126 360 0 1 -33.11892 5.47312" />
    <path d="M -110.50925 0.76873 L -102.11892 1.36184" />
    <path d="M 27.93822 5.08724 A 45 3.18108 180 0 0 21.44025 4.78417" />
    <path d="M -21.44025 4.78417 A 45 3.18108 180 0 0 -27.93822 5.08724" />
    <path d="M -102.11892 -5.62508 L -110.50925 -6.2182" />
    <path d="M -110.50925 -4.21877 L -102.11892 -3.62565" />
    <path d="M -31.81981 4.84286 A 45 3.18108 360 0 1 -33.11892 4.74711" />
    <path d="M -10.56054 -0.49875 A 45 3.18108 360 0 1 10.56054 -0.49875" />
    <path d="M 43.04305 3.52139 A 45 3.18108 360 0 1 -31.81981 4.84286" />
    <path d="M -29.37238 4.47257 A 52.5 3.71126 180 0 0 52.5 1.3965" />
    <path d="M -21.44025 -6.97867 A 52.5 3.71126 360 0 1 21.44025 -6.97867" />
    <path d="M 38.49225 -1.06723 A 52.5 3.71126 360 0 1 -29.37238 -0.51492 L -29.37238 4.47257" />
    <path d="M -134.35029 11.89354 L -102.11892 9.61508" />
    <path d="M -33.11892 4.73742 L -29.37238 4.47257" />
    <path d="M -148.49242 10.89382 L -134.35029 11.89354 L -134.35029 6.90604 L -102.11892 4.62758" />
    <path d="M 27.93822 -1.09725 A 45 3.18108 180 0 0 21.44025 -1.40032" />
    <path d="M -21.44025 -1.40032 A 45 3.18108 180 0 0 -27.93822 -1.09725" />
    <path d="M -148.49242 10.89382 L -148.49242 5.90633 L -134.35029 6.90604" />
    <path d="M -102.11892 2.62815 L -148.49242 5.90633" />
    <path d="M -33.11892 -0.25008 L -29.37238 -0.51492" />
    <path d="M 31.81981 -1.34163 A 45 3.18108 360 0 1 -33.11892 -1.43738" />
    <path d="M -10.56054 -6.68324 A 45 3.18108 360 0 1 10.56054 -6.68324" />
    <path d="M 33.18457 -1.44243 A 45 3.18108 360 0 1 31.81981 -1.34163" />
    <path d="M -130.81475 6.15626 A 5 0.35345 180 0 0 -129.35029 5.90633 A 5 0.35345 180 0 0 -139.35029 5.90633 A 5 0.35345 180 0 0 -130.81475 6.15626 Z" />
    <path d="M -33.11892 -1.90836 A 52.5 3.71126 180 0 0 29.37238 -1.71192 L 134.35029 5.70905 L 134.35029 0.72155 L 148.49242 -0.27816 L 43.51452 -7.69913" />
    <path d="M 29.37238 -6.69941 L 29.37238 -1.71192" />
    <path d="M 29.37238 -6.69941 A 52.5 3.71126 360 0 1 -33.11892 -6.89586" />
    <path d="M -45.80726 -11.58873 A 52.5 3.71126 360 0 1 52.5 -9.77548 L 52.5 -7.06394" />
    <path d="M 52.5 -9.77548 A 52.5 3.71126 360 0 1 43.51452 -7.69913" />
    <path d="M 134.35029 5.70905 L 148.49242 4.70933 L 148.49242 -0.27816" />
    <path d="M 27.93822 -7.28174 A 45 3.18108 180 0 0 -27.93822 -7.28174" />
    <path d="M 29.37238 -6.69941 L 134.35029 0.72155" />
    <path d="M 31.81981 -12.02485 A 45 3.18108 0 0 1 45 -9.77548 A 45 3.18108 0 0 1 -33.11892 -7.62187" />
    <path d="M -40.30994 -11.18949 A 45 3.18108 0 0 1 31.81981 -12.02485" />
    <path d="M 137.88582 -0.52809 A 5 0.35345 0 0 1 139.35029 -0.27816 A 5 0.35345 0 0 1 129.35029 -0.27816 A 5 0.35345 0 0 1 137.88582 -0.52809 Z" />
    <path d="M -179.50925 -24.73 L -179.50925 15.16993" />
    <path d="M -110.50925 -24.73 L -110.50925 3.22127" />
    <path d="M -110.50925 10.20819 L -110.50925 10.5397" />
    <path d="M -102.11892 -9.69916 L -102.11892 30.20077" />
    <path d="M -33.11892 -9.69916 L -33.11892 30.20077" />
    <path d="M 110.50925 -15.16993 L 110.50925 -2.96322" />
    <path d="M 110.50925 4.02371 L 110.50925 24.73" />
    <path d="M 179.50925 -15.16993 L 179.50925 24.73" />
    <path d="M 102.11892 7.54633 L 102.11892 9.69916" />
    <path d="M 52.5 -0.07701 L 52.5 1.3965" />
</svg>