<svg version="1.1" xmlns="http://www.w3.org/2000/svg" viewBox="-254.7031031678298 -36.10538613347379 509.4062063356596 72.21077226694757" fill="none" stroke="black" stroke-width="0.6%" vector-effect="non-scaling-stroke">
    <path d="M -243.59829 -26.7331 A 34.5 1.68307 0 0 1 -253.7031 -27.92321 A 34.5 1.68307 0 0 1 -233.34524 -29.45837" />
    <path d="M -187.9733 -27.20797 A 34.5 1.68307 0 0 1 -243.59829 -26.7331" />
    <path d="M -222.73864 -27.75073 A 5 0.24392 0 0 1 -224.2031 -27.92321 A 5 0.24392 0 0 1 -214.2031 -27.92321 A 5 0.24392 0 0 1 -222.73864 -27.75073 Z" />
    <path d="M -184.7031 10.40692 L -173.83815 10.93696" />
    <path d="M -159.69601 10.24704 L -184.7031 9.02708" />
    <path d="M -184.7031 15.40097 L -183.84776 15.44269" />
    <path d="M -162.63456 -25.97182 L -162.63456 -30.96587 L -148.49242 -31.65579 L -219.2031 -35.10539 L -233.34524 -34.41547 L -162.63456 -30.96587" />
    <path d="M -148.49242 -26.66174 L -148.49242 -31.65579" />
    <path d="M -162.63456 -25.97182 L -148.49242 -26.66174" />
    <path d="M -233.34524 -29.42142 L -233.34524 -34.41547" />
    <path d="M -233.34524 -29.42142 L -162.63456 -25.97182" />
    <path d="M -166.17009 -31.48331 A 5 0.24392 0 0 1 -167.63456 -31.65579 A 5 0.24392 0 0 1 -157.63456 -31.65579 A 5 0.24392 0 0 1 -166.17009 -31.48331 Z" />
    <path d="M -222.73864 -34.24299 A 5 0.24392 0 0 1 -224.2031 -34.41547 A 5 0.24392 0 0 1 -214.2031 -34.41547 A 5 0.24392 0 0 1 -222.73864 -34.24299 Z" />
    <path d="M -194.80792 -5.34561 A 34.5 1.68307 0 0 1 -253.7031 -6.53572 A 34.5 1.68307 0 0 1 -233.34524 -8.07088" />
    <path d="M -204.54194 -8.05925 A 34.5 1.68307 0 0 1 -184.7031 -6.53572 A 34.5 1.68307 0 0 1 -194.80792 -5.34561" />
    <path d="M -253.7031 29.42142 A 34.5 1.68307 180 0 0 -194.80792 30.61153 A 34.5 1.68307 180 0 0 -184.7031 29.42142" />
    <path d="M -215.66757 -6.36324 A 5 0.24392 0 0 1 -224.2031 -6.53572 A 5 0.24392 0 0 1 -214.2031 -6.53572 A 5 0.24392 0 0 1 -215.66757 -6.36324 Z" />
    <path d="M -184.7031 28.42827 L -148.49242 26.66174 L -162.63456 25.97182 L -184.7031 27.04843" />
    <path d="M -159.09903 26.83422 A 5 0.24392 0 0 1 -167.63456 26.66174 A 5 0.24392 0 0 1 -157.63456 26.66174 A 5 0.24392 0 0 1 -159.09903 26.83422 Z" />
    <path d="M -219.2031 35.10539 L -219.2031 31.10449" />
    <path d="M -148.49242 31.65579 L -148.49242 26.66174" />
    <path d="M -219.2031 35.10539 L -148.49242 31.65579" />
    <path d="M -233.34524 34.41547 L -233.34524 30.95659" />
    <path d="M -233.34524 34.41547 L -219.2031 35.10539" />
    <path d="M -148.49242 -10.79361 L -148.49242 -15.78765 L -162.63456 -16.47757 L -233.34524 -13.02798 L -219.2031 -12.33806 L -148.49242 -15.78765" />
    <path d="M -219.2031 -7.34401 L -219.2031 -12.33806" />
    <path d="M -219.2031 -7.34401 L -148.49242 -10.79361" />
    <path d="M -233.34524 -8.03393 L -233.34524 -13.02798" />
    <path d="M -233.34524 -8.03393 L -219.2031 -7.34401" />
    <path d="M -159.09903 -15.61517 A 5 0.24392 0 0 1 -167.63456 -15.78765 A 5 0.24392 0 0 1 -157.63456 -15.78765 A 5 0.24392 0 0 1 -159.09903 -15.61517 Z" />
    <path d="M -215.66757 -12.8555 A 5 0.24392 0 0 1 -224.2031 -13.02798 A 5 0.24392 0 0 1 -214.2031 -13.02798 A 5 0.24392 0 0 1 -215.66757 -12.8555 Z" />
    <path d="M 243.59829 -7.72583 A 34.5 1.68307 0 0 1 253.7031 -6.53572 A 34.5 1.68307 0 0 1 184.7031 -6.53572 A 34.5 1.68307 0 0 1 204.54194 -8.05925" />
    <path d="M 233.34524 -8.07088 A 34.5 1.68307 0 0 1 243.59829 -7.72583" />
    <path d="M 184.7031 29.42142 A 34.5 1.68307 180 0 0 253.7031 29.42142" />
    <path d="M 222.73864 -6.7082 A 5 0.24392 0 0 1 224.2031 -6.53572 A 5 0.24392 0 0 1 214.2031 -6.53572 A 5 0.24392 0 0 1 222.73864 -6.7082 Z" />
    <path d="M 184.7031 27.04843 L 162.63456 25.97182 L 148.49242 26.66174 L 184.7031 28.42827" />
    <path d="M 166.17009 26.48926 A 5 0.24392 0 0 1 167.63456 26.66174 A 5 0.24392 0 0 1 157.63456 26.66174 A 5 0.24392 0 0 1 166.17009 26.48926 Z" />
    <path d="M 233.34524 34.41547 L 233.34524 30.95659" />
    <path d="M 219.2031 35.10539 L 219.2031 31.10449" />
    <path d="M 219.2031 35.10539 L 233.34524 34.41547" />
    <path d="M 148.49242 31.65579 L 148.49242 26.66174" />
    <path d="M 148.49242 31.65579 L 219.2031 35.10539" />
    <path d="M 148.49242 -10.79361 L 148.49242 -15.78765 L 219.2031 -12.33806 L 233.34524 -13.02798 L 162.63456 -16.47757 L 148.49242 -15.78765" />
    <path d="M 233.34524 -8.03393 L 233.34524 -13.02798" />
    <path d="M 219.2031 -7.34401 L 219.2031 -12.33806" />
    <path d="M 148.49242 -10.79361 L 219.2031 -7.34401 L 233.34524 -8.03393" />
    <path d="M 166.17009 -15.96013 A 5 0.24392 0 0 1 167.63456 -15.78765 A 5 0.24392 0 0 1 157.63456 -15.78765 A 5 0.24392 0 0 1 166.17009 -15.96013 Z" />
    <path d="M 222.73864 -13.20046 A 5 0.24392 0 0 1 224.2031 -13.02798 A 5 0.24392 0 0 1 214.2031 -13.02798 A 5 0.24392 0 0 1 222.73864 -13.20046 Z" />
    <path d="M 233.34524 -29.45837 A 34.5 1.68307 360 0 1 253.7031 -27.92321 L 253.7031 -6.53572 L 253.7031 29.42142" />
    <path d="M 253.7031 -27.92321 A 34.5 1.68307 360 0 1 187.9733 -27.20797" />
    <path d="M 215.66757 -28.09569 A 5 0.24392 360 0 1 224.2031 -27.92321 A 5 0.24392 360 0 1 214.2031 -27.92321 A 5 0.24392 360 0 1 215.66757 -28.09569 Z" />
    <path d="M 184.7031 9.02708 L 183.84776 9.06881" />
    <path d="M 183.84776 10.44865 L 184.7031 10.40692" />
    <path d="M 148.49242 15.78765 L 148.49242 11.97368" />
    <path d="M 162.63456 16.47757 L 162.63456 11.57048" />
    <path d="M 162.63456 16.47757 L 184.7031 15.40097" />
    <path d="M 148.49242 15.78765 L 162.63456 16.47757" />
    <path d="M 148.49242 -26.66174 L 148.49242 -31.65579 L 162.63456 -30.96587 L 233.34524 -34.41547 L 219.2031 -35.10539 L 148.49242 -31.65579" />
    <path d="M 162.63456 -25.97182 L 162.63456 -30.96587" />
    <path d="M 148.49242 -26.66174 L 162.63456 -25.97182 L 233.34524 -29.42142 L 233.34524 -34.41547" />
    <path d="M 159.09903 -31.82827 A 5 0.24392 360 0 1 167.63456 -31.65579 A 5 0.24392 360 0 1 157.63456 -31.65579 A 5 0.24392 360 0 1 159.09903 -31.82827 Z" />
    <path d="M 215.66757 -34.58795 A 5 0.24392 360 0 1 224.2031 -34.41547 A 5 0.24392 360 0 1 214.2031 -34.41547 A 5 0.24392 360 0 1 215.66757 -34.58795 Z" />
    <path d="M -50 18.52791 A 50 2.43923 180 0 0 50 18.52791" />
    <path d="M 49.95806 13.43399 A 50 2.43923 360 0 1 50 13.53387 L 50 18.52791" />
    <path d="M 50 13.53387 A 50 2.43923 360 0 1 -50 13.53387 L -50 18.52791" />
    <path d="M -50 13.53387 A 50 2.43923 360 0 1 -49.95806 13.43399" />
    <path d="M 50 16.7786 L 159.69601 11.42712" />
    <path d="M 50 11.78455 L 108.51139 8.9301" />
    <path d="M 173.83815 5.74315 L 183.84776 5.25484 L 169.70563 4.56492 L 159.69601 5.05323" />
    <path d="M 94.36926 8.24018 L 50 10.40472" />
    <path d="M 166.17009 5.08236 A 5 0.24392 180 0 0 164.70563 5.25484 A 5 0.24392 180 0 0 164.80114 5.30229" />
    <path d="M 168.73302 5.4941 A 5 0.24392 180 0 0 174.70563 5.25484 A 5 0.24392 180 0 0 166.17009 5.08236" />
    <path d="M 183.84776 6.23147 L 183.84776 5.25484" />
    <path d="M -50 13.3341 A 50 2.43923 180 0 0 -35.35534 15.0589 A 50 2.43923 180 0 0 50 13.3341" />
    <path d="M 49.95806 8.24018 A 50 2.43923 0 0 1 50 8.34006 L 50 13.3341" />
    <path d="M 50 8.34006 A 50 2.43923 0 0 1 -29.97293 10.29243" />
    <path d="M -183.84776 5.05508 L -118.55876 8.24018" />
    <path d="M -53.232 11.42712 L -50 11.58479" />
    <path d="M -53.232 5.05323 L -169.70563 -0.62889 L -183.84776 0.06103 L -67.37414 5.74315" />
    <path d="M -173.24116 0.23351 A 5 0.24392 180 0 0 -164.70563 0.06103 A 5 0.24392 180 0 0 -174.70563 0.06103 A 5 0.24392 180 0 0 -173.24116 0.23351 Z" />
    <path d="M -183.84776 5.05508 L -183.84776 0.06103" />
    <path d="M -28.28427 10.15174 A 50 2.43923 180 0 0 35.35534 9.86509 A 50 2.43923 180 0 0 50 8.1403" />
    <path d="M 29.97293 5.09862 A 50 2.43923 0 0 1 -35.35534 4.87105 L -42.42641 4.52609 L -183.84776 11.42528 L -169.70563 12.1152 L -28.28427 5.21601 L -35.35534 4.87105 A 50 2.43923 0 0 1 -50 3.14625 L -50 4.89556" />
    <path d="M -50 3.14625 A 50 2.43923 0 0 1 -49.95806 3.04637" />
    <path d="M -28.28427 10.21005 L -28.28427 5.21601" />
    <path d="M -183.84776 16.41932 L -169.70563 17.10924 L -169.70563 12.1152" />
    <path d="M -169.70563 17.10924 L -28.28427 10.21005" />
    <path d="M -166.17009 11.59776 A 5 0.24392 180 0 0 -164.70563 11.42528 A 5 0.24392 180 0 0 -174.70563 11.42528 A 5 0.24392 180 0 0 -166.17009 11.59776 Z" />
    <path d="M -183.84776 16.41932 L -183.84776 11.42528" />
    <path d="M 35.35534 -3.77236 A 50 2.43923 0 0 1 50 -2.04756 L 50 -0.29825" />
    <path d="M 50 -2.04756 A 50 2.43923 0 0 1 35.35534 -0.32276 L 28.28427 0.0222 L 169.70563 6.92139 L 183.84776 6.23147 L 42.42641 -0.66772 L 35.35534 -0.32276 A 50 2.43923 0 0 1 -50 -2.04756 L -50 2.94649 A 50 2.43923 180 0 0 28.28427 4.95793" />
    <path d="M -50 -2.04756 A 50 2.43923 0 0 1 35.35534 -3.77236" />
    <path d="M 31.81981 -3.59988 A 45 2.19531 0 0 1 45 -2.04756 A 45 2.19531 0 0 1 -45 -2.04756 A 45 2.19531 0 0 1 31.81981 -3.59988 Z" />
    <path d="M 28.28427 5.01624 L 169.70563 11.91543 L 169.70563 6.92139" />
    <path d="M 169.70563 11.91543 L 183.84776 11.22552 L 183.84776 6.23147" />
    <path d="M 28.28427 5.01624 L 28.28427 0.0222" />
    <path d="M 173.24116 6.05899 A 5 0.24392 0 0 1 174.70563 6.23147 A 5 0.24392 0 0 1 164.70563 6.23147 A 5 0.24392 0 0 1 173.24116 6.05899 Z" />
    <path d="M -253.7031 -27.92321 L -253.7031 -6.53572 L -253.7031 29.42142" />
    <path d="M -184.7031 -27.04843 L -184.7031 -15.40097" />
    <path d="M -184.7031 -9.02708 L -184.7031 -6.53572 L -184.7031 29.42142" />
    <path d="M 184.7031 -6.53572 L 184.7031 29.42142" />
    <path d="M 184.7031 -27.04843 L 184.7031 -15.40097" />
    <path d="M 184.7031 -9.02708 L 184.7031 -6.53572" />
    <path d="M -50 11.26945 L -50 13.3341" />
    <path d="M 50 6.07564 L 50 8.1403" />
</svg>