<svg version="1.1" xmlns="http://www.w3.org/2000/svg" viewBox="-175.71890822954347 -36.10562371780516 350.5414245354374 58.10975558861735" fill="none" stroke="black" stroke-width="0.6%" vector-effect="non-scaling-stroke">
    <path d="M 166.00035 9.89695 A 34.5 2.50462 180 0 0 173.82252 8.30883" />
    <path d="M 153.46336 -29.88075 A 34.5 2.50462 360 0 1 173.82252 -27.59618 A 34.5 2.50462 360 0 1 112.31954 -26.03729" />
    <path d="M 123.45832 5.34667 L 123.45832 6.29921" />
    <path d="M 123.45832 5.34667 A 34.5 2.50462 360 0 1 109.12632 4.33395 L 102.56829 4.8231" />
    <path d="M 83.71492 13.4973 L 104.32392 11.96013" />
    <path d="M 82.3416 13.40026 L 83.71492 13.4973" />
    <path d="M 137.87917 -27.94372 A 5 0.36299 360 0 1 144.32252 -27.59618 A 5 0.36299 360 0 1 134.32252 -27.59618 A 5 0.36299 360 0 1 134.49811 -27.69153" />
    <path d="M 25.64072 17.62943 L 102.9506 11.86309" />
    <path d="M 25.64072 12.64262 L 68.61768 9.43708" />
    <path d="M 116.90029 5.83581 L 123.45832 5.34667" />
    <path d="M 25.60925 13.73966 A 30 2.17793 360 0 1 25.64072 13.83939 A 30 2.17793 360 0 1 -34.35928 13.83939 A 30 2.17793 360 0 1 -34.3278 13.73966" />
    <path d="M 54.28568 8.42437 L 25.64072 10.56092" />
    <path d="M -34.35928 18.8262 A 30 2.17793 180 0 0 25.64072 18.8262" />
    <path d="M 69.38292 17.47139 L 69.38292 14.36681" />
    <path d="M 83.71492 18.48411 L 83.71492 13.4973" />
    <path d="M 83.71492 18.48411 L 138.65685 14.38613" />
    <path d="M 69.38292 17.47139 L 83.71492 18.48411" />
    <path d="M -34.35928 13.63992 A 30 2.17793 180 1 0 25.64072 13.63992" />
    <path d="M 25.60925 8.55338 A 30 2.17793 360 0 1 25.64072 8.65311 A 30 2.17793 360 0 1 -18.71721 10.56541" />
    <path d="M -174.71891 2.6152 L -88.53929 8.70475" />
    <path d="M -39.87436 12.14347 L -34.35928 12.53317" />
    <path d="M -40.25667 5.10348 L -160.76922 -3.41208 L -174.71891 -2.37161 L -54.20636 6.14395" />
    <path d="M -165.49869 -2.22664 A 5 0.36299 180 0 0 -157.01126 -2.48676 A 5 0.36299 180 1 0 -167.01126 -2.48676 A 5 0.36299 180 0 0 -165.49869 -2.22664 Z" />
    <path d="M -174.71891 2.6152 L -174.71891 -2.37161" />
    <path d="M -16.92112 10.43145 A 30 2.17793 180 0 0 25.64072 8.45364" />
    <path d="M -31.25312 4.43192 A 30 2.17793 360 0 1 -34.35928 3.46684 A 30 2.17793 360 0 1 -34.3278 3.3671" />
    <path d="M 10.75256 5.34827 A 30 2.17793 360 0 1 -16.92112 5.44464 L -16.92112 10.43145" />
    <path d="M -156.21973 20.82136 L -16.92112 10.43145" />
    <path d="M -170.55173 19.80865 L -156.21973 20.82136 L -156.21973 15.83456 L -16.92112 5.44464" />
    <path d="M -170.55173 19.80865 L -170.55173 14.82184 L -156.21973 15.83456" />
    <path d="M -31.25312 4.43192 L -170.55173 14.82184" />
    <path d="M -154.22285 15.16519 A 5 0.36299 180 0 0 -152.80585 14.91201 A 5 0.36299 180 1 0 -162.80585 14.91201 A 5 0.36299 180 0 0 -154.22285 15.16519 Z" />
    <path d="M -34.35928 3.26736 A 30 2.17793 180 0 0 8.93438 5.21979 L 152.05066 15.33256 L 166.00035 14.29209 L 166.00035 9.30528 L 22.88407 -0.80748" />
    <path d="M 8.93438 0.23299 L 8.93438 5.21979" />
    <path d="M 8.93438 0.23299 A 30 2.17793 360 0 1 -34.35928 -1.71944 L -34.35928 3.26736" />
    <path d="M -34.35928 -1.71944 A 30 2.17793 360 0 1 25.64072 -1.71944 L 25.64072 -0.61269" />
    <path d="M 25.64072 -1.71944 A 30 2.17793 360 0 1 22.88407 -0.80748" />
    <path d="M 152.05066 15.33256 L 152.05066 10.34575 L 166.00035 9.30528" />
    <path d="M 8.93438 0.23299 L 152.05066 10.34575" />
    <path d="M 13.07783 -3.02003 A 25 1.81494 0 0 1 20.64072 -1.71944 A 25 1.81494 0 0 1 -29.35928 -1.71944 A 25 1.81494 0 0 1 13.07783 -3.02003 Z" />
    <path d="M 156.78013 9.16031 A 5 0.36299 180 0 0 148.29271 9.42043 A 5 0.36299 180 0 0 158.29271 9.42043 A 5 0.36299 180 0 0 156.78013 9.16031 Z" />
    <path d="M -110.9942 -25.57933 A 34.5 2.50462 360 0 1 -121.43098 -27.37414 L -121.43098 -0.63239" />
    <path d="M -121.43098 -27.37414 A 34.5 2.50462 360 0 1 -101.07183 -29.65871" />
    <path d="M -59.12041 -25.89197 A 34.5 2.50462 360 0 1 -110.9942 -25.57933" />
    <path d="M -121.43098 8.53086 A 34.5 2.50462 180 0 0 -110.9942 10.32568 A 34.5 2.50462 180 0 0 -110.62022 10.35171" />
    <path d="M -90.41841 -27.11402 A 5 0.36299 360 0 1 -91.93098 -27.37414 A 5 0.36299 360 0 1 -84.68657 -27.69851" />
    <path d="M -82.52533 -27.54579 A 5 0.36299 360 0 1 -81.93098 -27.37414 A 5 0.36299 360 0 1 -90.41841 -27.11402" />
    <path d="M -44.86964 12.51605 L -34.35928 13.25873" />
    <path d="M -34.35928 12.69367 A 5 0.36299 360 0 1 -34.60299 12.58173 A 5 0.36299 360 0 1 -34.53238 12.52094" />
    <path d="M -79.20257 15.07686 L -34.35928 18.24553" />
    <path d="M -29.41183 -23.79273 L -29.41183 -28.77954 L -15.46214 -29.82001 L -87.12214 -34.88358 L -101.07183 -33.84311 L -29.41183 -28.77954" />
    <path d="M -15.46214 -24.8332 L -15.46214 -29.82001" />
    <path d="M -29.41183 -23.79273 L -15.46214 -24.8332" />
    <path d="M -101.07183 -28.85631 L -101.07183 -33.84311" />
    <path d="M -101.07183 -28.85631 L -29.41183 -23.79273" />
    <path d="M -33.09041 -29.54601 A 5 0.36299 360 0 1 -34.60299 -29.80613 A 5 0.36299 360 0 1 -24.60299 -29.80613 A 5 0.36299 360 0 1 -33.09041 -29.54601 Z" />
    <path d="M -90.41841 -33.59687 A 5 0.36299 360 0 1 -91.93098 -33.85699 A 5 0.36299 360 0 1 -81.93098 -33.85699 A 5 0.36299 360 0 1 -90.41841 -33.59687 Z" />
    <path d="M 69.38292 -24.91646 L 69.38292 -29.90327 L 83.71492 -28.89055 L 153.46336 -34.09291 L 139.13136 -35.10562 L 69.38292 -29.90327" />
    <path d="M 83.71492 -23.90375 L 83.71492 -28.89055" />
    <path d="M 69.38292 -24.91646 L 83.71492 -23.90375 L 153.46336 -29.1061 L 153.46336 -34.09291" />
    <path d="M 79.94076 -30.17033 A 5 0.36299 360 0 1 88.52376 -29.91715 A 5 0.36299 360 0 1 78.52376 -29.91715 A 5 0.36299 360 0 1 79.94076 -30.17033 Z" />
    <path d="M 135.73952 -34.33221 A 5 0.36299 360 0 1 144.32252 -34.07903 A 5 0.36299 360 0 1 134.32252 -34.07903 A 5 0.36299 360 0 1 135.73952 -34.33221 Z" />
    <path d="M 104.82252 -25.47811 L 104.82252 4.65496" />
    <path d="M 173.82252 -27.59618 L 173.82252 8.30883" />
    <path d="M -34.35928 13.83939 L -34.35928 18.8262" />
    <path d="M 25.64072 13.83939 L 25.64072 18.8262" />
    <path d="M -34.35928 11.73211 L -34.35928 13.63992" />
    <path d="M 25.64072 8.65311 L 25.64072 13.63992" />
    <path d="M -34.35928 3.46684 L -34.35928 4.66361" />
    <path d="M 25.64072 6.40028 L 25.64072 8.45364" />
    <path d="M -121.43098 6.38058 L -121.43098 8.53086" />
    <path d="M -52.43098 -25.41929 L -52.43098 4.24323" />
</svg>