<svg version="1.1" xmlns="http://www.w3.org/2000/svg" viewBox="-58.648587320300386 -48.58578468659275 120.8738452273069 100.50273978949079" fill="none" stroke="black" stroke-width="0.6%" vector-effect="non-scaling-stroke">
    <path d="M 29.73752 6.62687 A 34.5 5.32396 180 0 0 61.22526 1.32324" />
    <path d="M 29.73752 1.68676 L 29.73752 6.62687" />
    <path d="M 29.73752 1.68676 A 34.5 5.32396 0 0 1 10.16306 1.05349 L 2.78031 6.48786 L 22.35477 7.12113 L 29.73752 1.68676 Z" />
    <path d="M -7.77474 1.32324 A 34.5 5.32396 180 0 0 4.30019 5.36909" />
    <path d="M -7.0407 -35.33792 A 34.5 5.32396 0 0 1 7.00691 -38.61421" />
    <path d="M 38.76952 -39.23451 A 34.5 5.32396 0 0 1 61.22526 -34.24553 A 34.5 5.32396 0 0 1 27.6994 -28.92369" />
    <path d="M 2.78031 -30.4127 A 34.5 5.32396 0 0 1 -7.77474 -34.24553 A 34.5 5.32396 0 0 1 -7.0407 -35.33792" />
    <path d="M -6.30103 38.09461 L 36.73211 6.41832" />
    <path d="M -12.05786 37.39206 L 22.35477 12.06124 L 22.35477 7.12113" />
    <path d="M 9.52058 5.28687 A 5 0.77159 0 0 1 19.4142 5.44519 A 5 0.77159 0 1 1 9.4142 5.44519 A 5 0.77159 0 0 1 9.52058 5.28687 Z" />
    <path d="M 2.78031 11.42797 L 2.78031 6.48786" />
    <path d="M 2.78031 11.42797 L -31.63233 36.75879" />
    <path d="M 2.78031 11.42797 L 22.35477 12.06124" />
    <path d="M -57.64859 46.28743 A 30 4.62953 180 0 0 2.35141 46.28743" />
    <path d="M -8.44446 43.81737 A 25 3.85794 180 0 0 -46.85271 43.81737" />
    <path d="M -12.05786 37.39206 A 30 4.62953 360 0 1 2.35141 41.34732 L 2.35141 46.28743" />
    <path d="M 2.35141 41.34732 A 30 4.62953 360 0 1 -57.64859 41.34732 L -57.64859 46.28743" />
    <path d="M -57.64859 41.34732 A 30 4.62953 360 0 1 -31.63233 36.75879" />
    <path d="M -52.11667 40.55573 A 25 3.85794 0 0 1 -2.64859 41.34732 A 25 3.85794 0 1 1 -52.64859 41.34732 A 25 3.85794 0 0 1 -52.11667 40.55573 Z" />
    <path d="M 2.78031 -25.62283 L 2.78031 -35.50304 L 22.35477 -34.86977 L 38.76952 -46.95251 L 19.19505 -47.58578 L 2.78031 -35.50304" />
    <path d="M 22.35477 -24.98956 L 22.35477 -34.86977" />
    <path d="M 2.78031 -25.62283 L 22.35477 -24.98956 L 38.76952 -37.0723 L 38.76952 -46.95251" />
    <path d="M 9.52058 -36.70403 A 5 0.77159 0 0 1 19.4142 -36.54572 A 5 0.77159 0 1 1 9.4142 -36.54572 A 5 0.77159 0 0 1 9.52058 -36.70403 Z" />
    <path d="M 21.83164 -45.76609 A 5 0.77159 0 0 1 31.72526 -45.60777 A 5 0.77159 0 1 1 21.72526 -45.60777 A 5 0.77159 0 0 1 21.83164 -45.76609 Z" />
    <path d="M -7.77474 -34.24553 L -7.77474 1.32324" />
    <path d="M 61.22526 -34.24553 L 61.22526 1.32324" />
</svg>