<svg version="1.1" xmlns="http://www.w3.org/2000/svg" viewBox="-58.94367266313707 -48.82268461466626 121.50384184571922 95.71703748465134" fill="none" stroke="black" stroke-width="0.6%" vector-effect="non-scaling-stroke">
    <path d="M 16.564 16.12143 L 23.26081 16.3213 L 23.26081 11.17889" />
    <path d="M 23.26081 16.3213 L 37.33724 5.93227" />
    <path d="M -6.77008 33.34302 L 23.26081 11.17889" />
    <path d="M -12.56379 32.67441 L 26.80944 3.61521 L 7.20196 3.03002 L -32.17127 32.08922" />
    <path d="M 26.80944 3.813 L 26.80944 3.61521" />
    <path d="M 26.80944 3.813 L 30.35435 1.1967 A 34.5 5.12034 0 0 1 10.74686 0.61151 L 7.45953 3.03771" />
    <path d="M 30.35435 1.1967 L 30.35435 6.14133 A 34.5 5.12034 180 0 0 61.56017 1.04438" />
    <path d="M -57.94367 41.44188 A 30 4.45247 180 1 0 2.05633 41.44188" />
    <path d="M -9.30206 38.96957 A 25 3.71039 180 0 0 -46.58529 38.96957" />
    <path d="M 10.25551 4.75711 L 10.25551 4.90274" />
    <path d="M 10.77318 5.1659 A 5 0.74208 0 0 1 10.23139 4.82993 A 5 0.74208 0 0 1 10.25551 4.75711" />
    <path d="M -7.43983 1.04438 A 34.5 5.12034 180 0 0 4.62237 4.93388" />
    <path d="M -6.76274 -35.56637 A 34.5 5.12034 0 0 1 7.11111 -38.73446" />
    <path d="M 39.03252 -39.35906 A 34.5 5.12034 0 0 1 61.56017 -34.55692 L 61.56017 1.04438" />
    <path d="M 61.56017 -34.55692 A 34.5 5.12034 0 0 1 28.31737 -29.43998" />
    <path d="M 3.65333 -30.79532 A 34.5 5.12034 0 0 1 -7.43983 -34.55692 L -7.43983 1.04438" />
    <path d="M -7.43983 -34.55692 A 34.5 5.12034 0 0 1 -6.76274 -35.56637" />
    <path d="M -12.56379 32.67441 A 30 4.45247 360 0 1 2.05633 36.49726 L 2.05633 41.44188" />
    <path d="M 2.05633 36.49726 A 30 4.45247 360 0 1 -57.94367 36.49726 L -57.94367 41.44188" />
    <path d="M -57.94367 36.49726 A 30 4.45247 360 0 1 -32.17127 32.08922" />
    <path d="M -52.45302 35.76577 A 25 3.71039 0 0 1 -2.94367 36.49726 A 25 3.71039 0 0 1 -52.94367 36.49726 A 25 3.71039 0 0 1 -52.45302 35.76577 Z" />
    <path d="M 10.13237 4.82913 A 5 0.74208 0 0 1 10.25551 4.75711" />
    <path d="M 10.07884 4.87654 A 5 0.74208 0 0 1 10.13237 4.82913" />
    <path d="M 10.13237 4.63135 A 5 0.74208 0 0 1 20.03424 4.77765 A 5 0.74208 0 0 1 10.03424 4.77765 A 5 0.74208 0 0 1 10.13237 4.63135 Z" />
    <path d="M 3.65333 -26.29321 L 3.65333 -36.18246 L 23.26081 -35.59727 L 39.03252 -47.23749 L 19.42504 -47.82268 L 3.65333 -36.18246" />
    <path d="M 23.26081 -25.70802 L 23.26081 -35.59727" />
    <path d="M 3.65333 -26.29321 L 23.26081 -25.70802 L 39.03252 -37.34824 L 39.03252 -47.23749" />
    <path d="M 10.32952 -37.34569 A 5 0.74208 0 0 1 20.23139 -37.19939 A 5 0.74208 0 0 1 10.23139 -37.19939 A 5 0.74208 0 0 1 10.32952 -37.34569 Z" />
    <path d="M 22.1583 -46.07585 A 5 0.74208 0 0 1 32.06017 -45.92956 A 5 0.74208 0 0 1 22.06017 -45.92956 A 5 0.74208 0 0 1 22.1583 -46.07585 Z" />
</svg>