<svg version="1.1" xmlns="http://www.w3.org/2000/svg" viewBox="-190.99111677244179 -36.40893405840013 387.57894295505935 60.08403373271406" fill="none" stroke="black" stroke-width="0.6%" vector-effect="non-scaling-stroke">
    <path d="M 160.38687 10.25368 A 34.5 2.31193 180 0 0 195.58783 7.94223" />
    <path d="M 175.21506 -30.08605 A 34.5 2.31193 0 0 1 195.58783 -27.97685 A 34.5 2.31193 0 0 1 134.3569 -26.51526" />
    <path d="M 146.22426 4.84028 L 146.22426 9.04676" />
    <path d="M 146.22426 4.84028 A 34.5 2.31193 0 0 1 131.44795 3.93708 L 100.19434 6.23318" />
    <path d="M 157.39375 -28.20265 A 5 0.33506 0 0 1 166.08783 -27.97685 A 5 0.33506 0 0 1 156.08783 -27.97685 A 5 0.33506 0 0 1 157.39375 -28.20265 Z" />
    <path d="M 15.19788 19.45511 L 101.49249 13.11534" />
    <path d="M 15.19788 14.46635 L 64.42661 10.84968" />
    <path d="M 114.97065 7.13638 L 146.22426 4.84028" />
    <path d="M 15.16091 15.57619 A 30 2.01037 0 0 1 15.19788 15.67597 A 30 2.01037 0 0 1 -44.80212 15.67597 A 30 2.01037 0 0 1 -44.76515 15.57619" />
    <path d="M 49.6503 9.94648 L 15.19788 12.47758" />
    <path d="M 129.76353 4.55802 A 5 0.33506 180 0 0 128.4576 4.78382 A 5 0.33506 180 0 0 138.4576 4.78382 A 5 0.33506 180 0 0 129.76353 4.55802 Z" />
    <path d="M -44.80212 20.66473 A 30 2.01037 180 0 0 15.19788 20.66473" />
    <path d="M 93.04796 16.93527 L 93.04796 13.73573" />
    <path d="M 175.21506 12.8875 L 175.21506 10.05144" />
    <path d="M 107.82427 17.83847 L 107.82427 13.50237" />
    <path d="M 107.82427 17.83847 L 140.041 15.47162" />
    <path d="M 160.38687 13.97687 L 175.21506 12.8875" />
    <path d="M 93.04796 16.93527 L 107.82427 17.83847" />
    <path d="M -44.80212 15.47642 A 30 2.01037 180 1 0 15.19788 15.47642" />
    <path d="M 15.16091 10.38788 A 30 2.01037 0 0 1 15.19788 10.48766 A 30 2.01037 0 0 1 -28.38301 12.28023" />
    <path d="M -189.99112 5.675 L -104.54375 10.89798" />
    <path d="M -52.70156 14.06684 L -44.80212 14.54969" />
    <path d="M -53.99971 7.18468 L -176.51296 -0.30396 L -189.99112 0.68624 L -67.47787 8.17487" />
    <path d="M -180.71105 0.79997 A 5 0.33506 180 0 0 -172.34151 0.55242 A 5 0.33506 180 0 0 -182.34151 0.55242 A 5 0.33506 180 0 0 -180.71105 0.79997 Z" />
    <path d="M -189.99112 5.675 L -189.99112 0.68624" />
    <path d="M -26.47496 12.14005 A 30 2.01037 180 0 0 15.19788 10.28811" />
    <path d="M -41.25127 6.24809 A 30 2.01037 0 0 1 -44.80212 5.29935 A 30 2.01037 0 0 1 -44.76515 5.19957" />
    <path d="M 1.34364 6.99373 A 30 2.01037 0 0 1 -26.47496 7.15129 L -26.47496 12.14005" />
    <path d="M -161.06496 22.02793 L -26.47496 12.14005" />
    <path d="M -175.84127 21.12473 L -161.06496 22.02793 L -161.06496 17.03917 L -26.47496 7.15129" />
    <path d="M -175.84127 21.12473 L -175.84127 16.13597 L -161.06496 17.03917" />
    <path d="M -41.25127 6.24809 L -175.84127 16.13597" />
    <path d="M -159.36777 16.41729 A 5 0.33506 180 0 0 -158.06185 16.19149 A 5 0.33506 180 0 0 -168.06185 16.19149 A 5 0.33506 180 0 0 -159.36777 16.41729 Z" />
    <path d="M -44.80212 5.09979 A 30 2.01037 180 0 0 -0.64435 6.87221 L 146.90871 15.89141 L 160.38687 14.90121 L 160.38687 9.91245 L 12.83381 0.89326" />
    <path d="M -0.64435 1.88345 L -0.64435 6.87221" />
    <path d="M -0.64435 1.88345 A 30 2.01037 0 0 1 -44.80212 0.11103 L -44.80212 5.09979" />
    <path d="M -44.80212 0.11103 A 30 2.01037 0 0 1 15.19788 0.11103 L 15.19788 1.03776" />
    <path d="M 15.19788 0.11103 A 30 2.01037 0 0 1 12.83381 0.89326" />
    <path d="M 146.90871 15.89141 L 146.90871 10.90265 L 160.38687 9.91245" />
    <path d="M -0.64435 1.88345 L 146.90871 10.90265" />
    <path d="M 2.04557 -1.12671 A 25 1.67531 0 0 1 10.19788 0.11103 A 25 1.67531 0 0 1 -39.80212 0.11103 A 25 1.67531 0 0 1 2.04557 -1.12671 Z" />
    <path d="M 151.1068 9.79872 A 5 0.33506 180 0 0 142.73727 10.04627 A 5 0.33506 180 0 0 152.73727 10.04627 A 5 0.33506 180 0 0 151.1068 9.79872 Z" />
    <path d="M -165.8975 -25.33359 A 34.5 2.31193 0 0 1 -177.14768 -27.04168 L -177.14768 -0.25732" />
    <path d="M -177.14768 -27.04168 A 34.5 2.31193 0 0 1 -156.77491 -29.15089" />
    <path d="M -113.2344 -25.83339 A 34.5 2.31193 0 0 1 -165.8975 -25.33359" />
    <path d="M -177.14768 8.8774 A 34.5 2.31193 180 0 0 -165.8975 10.58548 A 34.5 2.31193 180 0 0 -124.99186 10.86364 L -113.57513 11.56148" />
    <path d="M -124.99186 10.86364 A 34.5 2.31193 180 0 0 -114.99043 10.25942" />
    <path d="M -146.01721 -26.79413 A 5 0.33506 0 0 1 -147.64768 -27.04168 A 5 0.33506 0 1 1 -137.64768 -27.04168 A 5 0.33506 0 0 1 -146.01721 -26.79413 Z" />
    <path d="M -156.77491 13.90965 L -156.77491 10.98661" />
    <path d="M -82.89337 18.42567 L -82.89337 16.28493" />
    <path d="M -156.77491 13.90965 L -150.64101 14.28459" />
    <path d="M -98.79883 17.45345 L -82.89337 18.42567 L -69.41521 17.43547 L -69.41521 15.29473" />
    <path d="M -82.89337 -23.9788 L -82.89337 -28.96756 L -69.41521 -29.95775 L -143.29675 -34.47377 L -156.77491 -33.48357 L -82.89337 -28.96756" />
    <path d="M -69.41521 -24.96899 L -69.41521 -29.95775" />
    <path d="M -82.89337 -23.9788 L -69.41521 -24.96899" />
    <path d="M -156.77491 -28.49481 L -156.77491 -33.48357" />
    <path d="M -156.77491 -28.49481 L -82.89337 -23.9788" />
    <path d="M -86.91198 -29.66671 A 5 0.33506 0 0 1 -88.54244 -29.91426 A 5 0.33506 0 1 1 -78.54244 -29.91426 A 5 0.33506 0 0 1 -86.91198 -29.66671 Z" />
    <path d="M -146.01721 -33.27952 A 5 0.33506 0 0 1 -147.64768 -33.52707 A 5 0.33506 0 1 1 -137.64768 -33.52707 A 5 0.33506 0 0 1 -146.01721 -33.27952 Z" />
    <path d="M 93.04796 -25.4692 L 93.04796 -30.45796 L 107.82427 -29.55475 L 175.21506 -34.50573 L 160.43875 -35.40893 L 93.04796 -30.45796" />
    <path d="M 107.82427 -24.56599 L 107.82427 -29.55475" />
    <path d="M 93.04796 -25.4692 L 107.82427 -24.56599 L 175.21506 -29.51697 L 175.21506 -34.50573" />
    <path d="M 103.48112 -30.72725 A 5 0.33506 0 0 1 112.1752 -30.50145 A 5 0.33506 0 0 1 102.1752 -30.50145 A 5 0.33506 0 0 1 103.48112 -30.72725 Z" />
    <path d="M 157.39375 -34.68803 A 5 0.33506 0 0 1 166.08783 -34.46223 A 5 0.33506 0 0 1 156.08783 -34.46223 A 5 0.33506 0 0 1 157.39375 -34.68803 Z" />
    <path d="M 126.58783 -25.94449 L 126.58783 4.29414" />
    <path d="M 195.58783 -27.97685 L 195.58783 7.94223" />
    <path d="M -44.80212 15.67597 L -44.80212 20.66473" />
    <path d="M 15.19788 15.67597 L 15.19788 20.66473" />
    <path d="M -44.80212 13.48649 L -44.80212 15.47642" />
    <path d="M 15.19788 10.48766 L 15.19788 15.47642" />
    <path d="M -44.80212 5.29935 L -44.80212 6.50896" />
    <path d="M 15.19788 7.84057 L 15.19788 10.28811" />
    <path d="M -177.14768 6.46006 L -177.14768 8.8774" />
    <path d="M -108.14768 -25.52247 L -108.14768 3.87488" />
</svg>