<svg version="1.1" xmlns="http://www.w3.org/2000/svg" viewBox="-245.63651664738222 -35.56374618150565 510.7445998393723 62.51910623091649" fill="none" stroke="black" stroke-width="0.6%" vector-effect="non-scaling-stroke">
    <path d="M -42.33128 24.27942 A 30 1.67594 180 0 0 17.66872 24.27942" />
    <path d="M 17.61543 19.18738 A 30 1.67594 0 0 1 17.66872 19.28723 A 30 1.67594 0 0 1 -42.33128 19.28723 A 30 1.67594 0 0 1 -42.278 19.18738" />
    <path d="M 17.66872 23.2922 L 127.20683 16.68596" />
    <path d="M 149.94313 11.34734 L 149.94313 10.32255 L 135.27061 9.56329 L 126.12537 10.11483" />
    <path d="M 17.66872 18.30001 L 82.65638 14.38061" />
    <path d="M 140.79789 10.8741 L 149.94313 10.32255" />
    <path d="M 67.98386 13.62135 L 17.66872 16.65585" />
    <path d="M 133.50231 10.08097 A 5 0.27932 180 0 0 132.17044 10.27079 A 5 0.27932 180 0 0 142.17044 10.27079 A 5 0.27932 180 0 0 133.50231 10.08097 Z" />
    <path d="M -42.33128 19.08754 A 30 1.67594 180 1 0 17.66872 19.08754" />
    <path d="M 17.61543 13.9955 A 30 1.67594 360 0 1 17.66872 14.09535 A 30 1.67594 360 0 1 -26.50377 15.57248" />
    <path d="M -186.39358 10.8418 L -117.34598 14.41482" />
    <path d="M -58.12301 17.47944 L -42.33128 18.29661" />
    <path d="M -59.20447 10.90831 L -172.80251 5.02993 L -186.39358 5.84961 L -72.79553 11.72798" />
    <path d="M -177.1268 5.94839 A 5 0.27932 180 0 0 -168.72903 5.74348 A 5 0.27932 180 0 0 -178.72903 5.74348 A 5 0.27932 180 0 0 -177.1268 5.94839 Z" />
    <path d="M -186.39358 10.8418 L -186.39358 5.84961" />
    <path d="M -24.21569 15.43449 A 30 1.67594 180 0 0 17.66872 13.89566" />
    <path d="M -38.88821 9.68303 A 30 1.67594 360 0 1 -42.33128 8.90347 A 30 1.67594 360 0 1 -42.278 8.80362" />
    <path d="M 3.98809 10.30975 A 30 1.67594 360 0 1 -24.21569 10.44229 L -24.21569 15.43449" />
    <path d="M -159.93317 23.6196 L -24.21569 15.43449" />
    <path d="M -174.60569 22.86034 L -159.93317 23.6196 L -159.93317 18.62741 L -24.21569 10.44229" />
    <path d="M -174.60569 22.86034 L -174.60569 17.86815 L -159.93317 18.62741" />
    <path d="M -38.88821 9.68303 L -174.60569 17.86815" />
    <path d="M -158.16487 18.10972 A 5 0.27932 180 0 0 -156.833 17.91991 A 5 0.27932 180 0 0 -166.833 17.91991 A 5 0.27932 180 0 0 -158.16487 18.10972 Z" />
    <path d="M -42.33128 8.70378 A 30 1.67594 180 0 0 1.62327 10.18737 L 148.13995 17.76919 L 148.13995 12.777 L 161.73101 11.95732 L 15.21433 4.37551" />
    <path d="M 1.62327 5.19518 L 1.62327 10.18737" />
    <path d="M 1.62327 5.19518 A 30 1.67594 0 0 1 -42.33128 3.71159 L -42.33128 8.70378" />
    <path d="M -42.33128 3.71159 A 30 1.67594 0 1 1 17.66872 3.71159 L 17.66872 4.50251" />
    <path d="M 17.66872 3.71159 A 30 1.67594 0 0 1 15.21433 4.37551" />
    <path d="M 148.13995 17.76919 L 161.73101 16.94952 L 161.73101 11.95732" />
    <path d="M 1.62327 5.19518 L 148.13995 12.777" />
    <path d="M 4.65755 2.68699 A 25 1.39662 0 0 1 12.66872 3.71159 A 25 1.39662 0 0 1 -37.33128 3.71159 A 25 1.39662 0 0 1 4.65755 2.68699 Z" />
    <path d="M 152.46424 11.85854 A 5 0.27932 180 0 0 144.06647 12.06346 A 5 0.27932 180 0 0 154.06647 12.06346 A 5 0.27932 180 0 0 152.46424 11.85854 Z" />
    <path d="M -231.94053 -23.70453 A 34.5 1.92733 0 0 1 -242.99594 -25.11848 L -242.99594 10.8253 A 34.5 1.92733 180 0 0 -231.94053 12.23925 A 34.5 1.92733 180 0 0 -191.06792 12.48864 L -171.2739 13.51293 L -157.68283 12.69325 L -177.47685 11.66897 A 34.5 1.92733 180 0 0 -175.57462 11.40165" />
    <path d="M -242.99594 -25.11848 A 34.5 1.92733 0 0 1 -226.22242 -26.77194" />
    <path d="M -177.63025 -24.25744 A 34.5 1.92733 0 0 1 -231.94053 -23.70453" />
    <path d="M -191.06792 12.48864 A 34.5 1.92733 180 0 0 -177.47685 11.66897" />
    <path d="M -211.8937 -24.91356 A 5 0.27932 0 0 1 -213.49594 -25.11848 A 5 0.27932 0 0 1 -203.49594 -25.11848 A 5 0.27932 0 0 1 -211.8937 -24.91356 Z" />
    <path d="M -244.63652 9.71662 L -242.99594 9.80152" />
    <path d="M -242.99594 9.61768 L -244.63652 9.71662" />
    <path d="M -244.63652 14.70881 L -244.63652 9.71662" />
    <path d="M -171.2739 17.66721 L -171.2739 13.51293" />
    <path d="M -244.63652 14.70881 L -174.60569 18.33271" />
    <path d="M -157.68283 16.84753 L -157.68283 12.69325" />
    <path d="M -171.2739 -23.92851 L -171.2739 -28.9207 L -157.68283 -29.74038 L -231.04545 -33.53669 L -244.63652 -32.71701 L -171.2739 -28.9207" />
    <path d="M -157.68283 -24.74819 L -157.68283 -29.74038" />
    <path d="M -171.2739 -23.92851 L -157.68283 -24.74819" />
    <path d="M -244.63652 -27.72482 L -244.63652 -32.71701" />
    <path d="M -244.63652 -27.72482 L -171.2739 -23.92851" />
    <path d="M 246.33058 -27.74013 A 34.5 1.92733 0 0 1 264.08969 -26.05491 L 264.08969 9.88887" />
    <path d="M 264.08969 -26.05491 A 34.5 1.92733 0 0 1 200.79106 -24.99365" />
    <path d="M 214.48783 11.62174 A 34.5 1.92733 180 0 0 264.08969 9.88887" />
    <path d="M 199.8153 10.86248 A 34.5 1.92733 180 0 0 214.48783 11.62174" />
    <path d="M 195.08969 9.88887 A 34.5 1.92733 180 0 0 199.8153 10.86248 L 181.48023 11.96827 L 196.15275 12.72753 L 214.48783 11.62174" />
    <path d="M 225.92156 -26.24473 A 5 0.27932 0 0 1 234.58969 -26.05491 A 5 0.27932 0 0 1 224.58969 -26.05491 A 5 0.27932 0 0 1 225.92156 -26.24473 Z" />
    <path d="M 264.10808 8.62915 L 264.08969 8.62819" />
    <path d="M 264.08969 8.63025 L 264.10808 8.62915" />
    <path d="M 181.48023 16.96046 L 181.48023 11.96827" />
    <path d="M 264.10808 13.62134 L 264.10808 8.62915" />
    <path d="M 196.15275 17.71972 L 196.15275 12.72753" />
    <path d="M 196.15275 17.71972 L 264.10808 13.62134" />
    <path d="M 181.48023 16.96046 L 196.15275 17.71972" />
    <path d="M 181.48023 -25.47317 L 181.48023 -30.46536 L 196.15275 -29.7061 L 264.10808 -33.80448 L 249.43556 -34.56375 L 181.48023 -30.46536" />
    <path d="M 196.15275 -24.71391 L 196.15275 -29.7061" />
    <path d="M 181.48023 -25.47317 L 196.15275 -24.71391 L 264.10808 -28.81229 L 264.10808 -33.80448" />
    <path d="M -42.33128 19.28723 L -42.33128 24.27942" />
    <path d="M 17.66872 19.28723 L 17.66872 24.27942" />
    <path d="M -42.33128 16.52704 L -42.33128 19.08754" />
    <path d="M 17.66872 14.09535 L 17.66872 19.08754" />
    <path d="M -42.33128 8.90347 L -42.33128 9.89069" />
    <path d="M 17.66872 11.01768 L 17.66872 13.89566" />
    <path d="M -173.99594 -24.06937 L -173.99594 5.10191" />
    <path d="M 195.08969 -24.76892 L 195.08969 9.88887" />
</svg>