<svg version="1.1" xmlns="http://www.w3.org/2000/svg" viewBox="-254.7031031678298 -36.10538613347379 509.4062063356596 72.21077226694757" fill="none" stroke="black" stroke-width="0.6%" vector-effect="non-scaling-stroke">
    <path d="M -243.59829 -26.7331 A 34.5 1.68307 0 0 1 -253.7031 -27.92321 A 34.5 1.68307 0 0 1 -233.34524 -29.45837" />
    <path d="M -187.9733 -27.20797 A 34.5 1.68307 0 0 1 -243.59829 -26.7331" />
    <path d="M -222.73864 -27.75073 A 5 0.24392 0 0 1 -224.2031 -27.92321 A 5 0.24392 0 0 1 -214.2031 -27.92321 A 5 0.24392 0 0 1 -222.73864 -27.75073 Z" />
    <path d="M -184.7031 10.40692 L -162.63456 11.48353 L -148.49242 10.79361 L -184.7031 9.02708" />
    <path d="M -166.17009 10.96609 A 5 0.24392 0 0 1 -167.63456 10.79361 A 5 0.24392 0 0 1 -157.63456 10.79361 A 5 0.24392 0 0 1 -166.17009 10.96609 Z" />
    <path d="M -162.63456 16.47757 L -162.63456 11.48353" />
    <path d="M -184.7031 15.40097 L -162.63456 16.47757 L -148.49242 15.78765 L -148.49242 14.69453 L -134.35029 15.38445 L -134.35029 10.3904 L -29.37238 5.26909 L -29.37238 10.26314 A 52.5 2.56119 180 0 0 52.5 8.1403" />
    <path d="M -162.63456 -25.97182 L -162.63456 -30.96587 L -148.49242 -31.65579 L -219.2031 -35.10539 L -233.34524 -34.41547 L -162.63456 -30.96587" />
    <path d="M -148.49242 -26.66174 L -148.49242 -31.65579" />
    <path d="M -162.63456 -25.97182 L -148.49242 -26.66174" />
    <path d="M -233.34524 -29.42142 L -233.34524 -34.41547" />
    <path d="M -233.34524 -29.42142 L -162.63456 -25.97182" />
    <path d="M -166.17009 -31.48331 A 5 0.24392 0 0 1 -167.63456 -31.65579 A 5 0.24392 0 0 1 -157.63456 -31.65579 A 5 0.24392 0 0 1 -166.17009 -31.48331 Z" />
    <path d="M -222.73864 -34.24299 A 5 0.24392 0 0 1 -224.2031 -34.41547 A 5 0.24392 0 0 1 -214.2031 -34.41547 A 5 0.24392 0 0 1 -222.73864 -34.24299 Z" />
    <path d="M -194.80792 -5.34561 A 34.5 1.68307 0 0 1 -253.7031 -6.53572 A 34.5 1.68307 0 0 1 -233.34524 -8.07088" />
    <path d="M -204.54194 -8.05925 A 34.5 1.68307 0 0 1 -184.7031 -6.53572 A 34.5 1.68307 0 0 1 -194.80792 -5.34561" />
    <path d="M -253.7031 29.42142 A 34.5 1.68307 180 0 0 -194.80792 30.61153 A 34.5 1.68307 180 0 0 -184.7031 29.42142" />
    <path d="M -215.66757 -6.36324 A 5 0.24392 0 0 1 -224.2031 -6.53572 A 5 0.24392 0 0 1 -214.2031 -6.53572 A 5 0.24392 0 0 1 -215.66757 -6.36324 Z" />
    <path d="M -184.7031 28.42827 L -148.49242 26.66174 L -162.63456 25.97182 L -184.7031 27.04843" />
    <path d="M -159.09903 26.83422 A 5 0.24392 0 0 1 -167.63456 26.66174 A 5 0.24392 0 0 1 -157.63456 26.66174 A 5 0.24392 0 0 1 -159.09903 26.83422 Z" />
    <path d="M -219.2031 35.10539 L -219.2031 31.10449" />
    <path d="M -148.49242 31.65579 L -148.49242 26.66174" />
    <path d="M -219.2031 35.10539 L -148.49242 31.65579" />
    <path d="M -233.34524 34.41547 L -233.34524 30.95659" />
    <path d="M -233.34524 34.41547 L -219.2031 35.10539" />
    <path d="M -148.49242 -10.79361 L -148.49242 -15.78765 L -162.63456 -16.47757 L -233.34524 -13.02798 L -219.2031 -12.33806 L -148.49242 -15.78765" />
    <path d="M -219.2031 -7.34401 L -219.2031 -12.33806" />
    <path d="M -219.2031 -7.34401 L -148.49242 -10.79361" />
    <path d="M -233.34524 -8.03393 L -233.34524 -13.02798" />
    <path d="M -233.34524 -8.03393 L -219.2031 -7.34401" />
    <path d="M -159.09903 -15.61517 A 5 0.24392 0 0 1 -167.63456 -15.78765 A 5 0.24392 0 0 1 -157.63456 -15.78765 A 5 0.24392 0 0 1 -159.09903 -15.61517 Z" />
    <path d="M -215.66757 -12.8555 A 5 0.24392 0 0 1 -224.2031 -13.02798 A 5 0.24392 0 0 1 -214.2031 -13.02798 A 5 0.24392 0 0 1 -215.66757 -12.8555 Z" />
    <path d="M 243.59829 -7.72583 A 34.5 1.68307 0 0 1 253.7031 -6.53572 L 253.7031 29.42142" />
    <path d="M 253.7031 -6.53572 A 34.5 1.68307 0 0 1 184.7031 -6.53572 L 184.7031 29.42142 A 34.5 1.68307 180 0 0 253.7031 29.42142" />
    <path d="M 184.7031 -6.53572 A 34.5 1.68307 0 0 1 204.54194 -8.05925" />
    <path d="M 233.34524 -8.07088 A 34.5 1.68307 0 0 1 243.59829 -7.72583" />
    <path d="M 222.73864 -6.7082 A 5 0.24392 0 0 1 224.2031 -6.53572 A 5 0.24392 0 0 1 214.2031 -6.53572 A 5 0.24392 0 0 1 222.73864 -6.7082 Z" />
    <path d="M 184.7031 27.04843 L 162.63456 25.97182 L 148.49242 26.66174 L 184.7031 28.42827" />
    <path d="M 166.17009 26.48926 A 5 0.24392 0 0 1 167.63456 26.66174 A 5 0.24392 0 0 1 157.63456 26.66174 A 5 0.24392 0 0 1 166.17009 26.48926 Z" />
    <path d="M 233.34524 34.41547 L 233.34524 30.95659" />
    <path d="M 219.2031 35.10539 L 219.2031 31.10449" />
    <path d="M 219.2031 35.10539 L 233.34524 34.41547" />
    <path d="M 148.49242 31.65579 L 148.49242 26.66174" />
    <path d="M 148.49242 31.65579 L 219.2031 35.10539" />
    <path d="M 148.49242 -10.79361 L 148.49242 -15.78765 L 219.2031 -12.33806 L 233.34524 -13.02798 L 162.63456 -16.47757 L 148.49242 -15.78765" />
    <path d="M 233.34524 -8.03393 L 233.34524 -13.02798" />
    <path d="M 219.2031 -7.34401 L 219.2031 -12.33806" />
    <path d="M 148.49242 -10.79361 L 219.2031 -7.34401 L 233.34524 -8.03393" />
    <path d="M 166.17009 -15.96013 A 5 0.24392 0 0 1 167.63456 -15.78765 A 5 0.24392 0 0 1 157.63456 -15.78765 A 5 0.24392 0 0 1 166.17009 -15.96013 Z" />
    <path d="M 222.73864 -13.20046 A 5 0.24392 0 0 1 224.2031 -13.02798 A 5 0.24392 0 0 1 214.2031 -13.02798 A 5 0.24392 0 0 1 222.73864 -13.20046 Z" />
    <path d="M 233.34524 -29.45837 A 34.5 1.68307 360 0 1 253.7031 -27.92321 L 253.7031 -6.53572" />
    <path d="M 253.7031 -27.92321 A 34.5 1.68307 360 0 1 187.9733 -27.20797" />
    <path d="M 215.66757 -28.09569 A 5 0.24392 360 0 1 224.2031 -27.92321 A 5 0.24392 360 0 1 214.2031 -27.92321 A 5 0.24392 360 0 1 215.66757 -28.09569 Z" />
    <path d="M 184.7031 9.02708 L 148.49242 10.79361 L 162.63456 11.48353 L 184.7031 10.40692" />
    <path d="M 159.09903 10.62113 A 5 0.24392 360 0 1 167.63456 10.79361 A 5 0.24392 360 0 1 157.63456 10.79361 A 5 0.24392 360 0 1 159.09903 10.62113 Z" />
    <path d="M 148.49242 15.78765 L 148.49242 11.97368 L 148.49242 9.50072 L 148.49242 4.50667 L 43.51452 -0.61464" />
    <path d="M 162.63456 16.47757 L 162.63456 11.48353" />
    <path d="M 162.63456 16.47757 L 184.7031 15.40097" />
    <path d="M 148.49242 15.78765 L 162.63456 16.47757" />
    <path d="M 148.49242 -26.66174 L 148.49242 -31.65579 L 162.63456 -30.96587 L 233.34524 -34.41547 L 219.2031 -35.10539 L 148.49242 -31.65579" />
    <path d="M 162.63456 -25.97182 L 162.63456 -30.96587" />
    <path d="M 148.49242 -26.66174 L 162.63456 -25.97182 L 233.34524 -29.42142 L 233.34524 -34.41547" />
    <path d="M 159.09903 -31.82827 A 5 0.24392 360 0 1 167.63456 -31.65579 A 5 0.24392 360 0 1 157.63456 -31.65579 A 5 0.24392 360 0 1 159.09903 -31.82827 Z" />
    <path d="M 215.66757 -34.58795 A 5 0.24392 360 0 1 224.2031 -34.41547 A 5 0.24392 360 0 1 214.2031 -34.41547 A 5 0.24392 360 0 1 215.66757 -34.58795 Z" />
    <path d="M -52.5 18.52791 A 52.5 2.56119 180 0 0 52.5 18.52791" />
    <path d="M 52.46006 13.43399 A 52.5 2.56119 360 0 1 52.5 13.53387 L 52.5 18.52791" />
    <path d="M 52.5 13.53387 A 52.5 2.56119 360 0 1 -52.5 13.53387 L -52.5 18.52791" />
    <path d="M -52.5 13.53387 A 52.5 2.56119 360 0 1 -52.46006 13.43399" />
    <path d="M 52.5 16.65664 L 148.49242 11.97368" />
    <path d="M 52.5 11.66259 L 108.51139 8.9301" />
    <path d="M 94.36926 8.24018 L 52.5 10.28275" />
    <path d="M -52.5 13.3341 A 52.5 2.56119 180 0 0 52.5 13.3341" />
    <path d="M 52.46006 8.24018 A 52.5 2.56119 360 0 1 52.5 8.34006 L 52.5 13.3341" />
    <path d="M 52.5 8.34006 A 52.5 2.56119 360 0 1 -31.75794 10.37951" />
    <path d="M -148.49242 6.77987 L -118.55876 8.24018" />
    <path d="M -53.232 11.42712 L -52.5 11.46283" />
    <path d="M -53.232 5.05323 L -134.35029 1.09591 L -148.49242 1.78583 L -67.37414 5.74315" />
    <path d="M -137.88582 1.95831 A 5 0.24392 180 0 0 -129.35029 1.78583 A 5 0.24392 180 0 0 -139.35029 1.78583 A 5 0.24392 180 0 0 -137.88582 1.95831 Z" />
    <path d="M -148.49242 6.77987 L -148.49242 1.78583" />
    <path d="M -43.51452 4.57917 A 52.5 2.56119 360 0 1 -52.5 3.14625 L -52.5 5.01752" />
    <path d="M -52.5 3.14625 A 52.5 2.56119 360 0 1 -52.46006 3.04637" />
    <path d="M 31.75794 5.18571 A 52.5 2.56119 360 0 1 -29.37238 5.26909" />
    <path d="M -134.35029 15.38445 L -29.37238 10.26314" />
    <path d="M -148.49242 14.69453 L -148.49242 9.70048 L -134.35029 10.3904" />
    <path d="M -43.51452 4.57917 L -148.49242 9.70048" />
    <path d="M -130.81475 9.87296 A 5 0.24392 180 0 0 -129.35029 9.70048 A 5 0.24392 180 0 0 -139.35029 9.70048 A 5 0.24392 180 0 0 -130.81475 9.87296 Z" />
    <path d="M -52.5 2.94649 A 52.5 2.56119 180 0 0 29.37238 5.06933 L 134.35029 10.19064 L 134.35029 5.19659 L 148.49242 4.50667" />
    <path d="M 29.37238 0.07528 L 29.37238 5.06933" />
    <path d="M 29.37238 0.07528 A 52.5 2.56119 0 0 1 -52.5 -2.04756 L -52.5 2.94649" />
    <path d="M -52.5 -2.04756 A 52.5 2.56119 0 0 1 52.5 -2.04756 L 52.5 -0.17628" />
    <path d="M 52.5 -2.04756 A 52.5 2.56119 0 0 1 43.51452 -0.61464" />
    <path d="M 134.35029 10.19064 L 148.49242 9.50072" />
    <path d="M 29.37238 0.07528 L 134.35029 5.19659" />
    <path d="M 31.81981 -3.59988 A 45 2.19531 0 0 1 45 -2.04756 A 45 2.19531 0 0 1 -45 -2.04756 A 45 2.19531 0 0 1 31.81981 -3.59988 Z" />
    <path d="M 137.88582 4.33419 A 5 0.24392 0 0 1 139.35029 4.50667 A 5 0.24392 0 0 1 129.35029 4.50667 A 5 0.24392 0 0 1 137.88582 4.33419 Z" />
    <path d="M -253.7031 -27.92321 L -253.7031 -6.53572 L -253.7031 29.42142" />
    <path d="M -184.7031 -27.04843 L -184.7031 -15.40097" />
    <path d="M -184.7031 -9.02708 L -184.7031 -6.53572 L -184.7031 29.42142" />
    <path d="M 184.7031 -27.04843 L 184.7031 -15.40097" />
    <path d="M 184.7031 -9.02708 L 184.7031 -6.53572" />
    <path d="M -52.5 11.39141 L -52.5 13.3341" />
    <path d="M 52.5 6.1976 L 52.5 8.1403" />
</svg>