<svg version="1.1" xmlns="http://www.w3.org/2000/svg" viewBox="-180.509246925864 -33.639605910254545 361.01849385172807 67.27921182050909" fill="none" stroke="black" stroke-width="0.6%" vector-effect="non-scaling-stroke">
    <path d="M -179.50925 15.16993 A 34.5 2.43883 180 0 0 -159.58958 17.38027 A 34.5 2.43883 180 0 0 -119.31011 16.79706 L -102.11892 17.36374" />
    <path d="M -119.31011 13.82283 L -119.31011 16.79706" />
    <path d="M -159.58958 -22.51967 A 34.5 2.43883 360 0 1 -179.50925 -24.73 A 34.5 2.43883 360 1 1 -110.50925 -24.73 A 34.5 2.43883 360 0 1 -159.58958 -22.51967 Z" />
    <path d="M -147.12234 -24.40966 A 5 0.35345 360 0 1 -150.00925 -24.73 A 5 0.35345 360 1 1 -140.00925 -24.73 A 5 0.35345 360 0 1 -147.12234 -24.40966 Z" />
    <path d="M -102.11892 30.20077 A 34.5 2.43883 180 0 0 -36.3513 31.23147 A 34.5 2.43883 180 0 0 -33.11892 30.20077" />
    <path d="M -36.3513 -8.66846 A 34.5 2.43883 360 0 1 -102.11892 -9.69916 A 34.5 2.43883 360 1 1 -33.11892 -9.69916 A 34.5 2.43883 360 0 1 -36.3513 -8.66846 Z" />
    <path d="M -33.11892 26.64337 L -20.5202 24.73345 L -20.5202 19.74596 L -33.11892 19.33066" />
    <path d="M -33.11892 21.65588 L -20.5202 19.74596" />
    <path d="M -29.27792 20.23725 A 5 0.35345 360 0 1 -33.11892 20.43795" />
    <path d="M -33.11892 19.73781 A 5 0.35345 360 0 1 -28.80946 20.08788 A 5 0.35345 360 0 1 -29.27792 20.23725" />
    <path d="M -63.08738 -9.54978 A 5 0.35345 360 0 1 -72.61892 -9.69916 A 5 0.35345 360 1 1 -62.61892 -9.69916 A 5 0.35345 360 0 1 -63.08738 -9.54978 Z" />
    <path d="M 110.50925 24.73 A 34.5 2.43883 180 0 0 179.50925 24.73" />
    <path d="M 159.58958 -17.38027 A 34.5 2.43883 360 0 1 179.50925 -15.16993 A 34.5 2.43883 360 0 1 110.50925 -15.16993 A 34.5 2.43883 360 0 1 159.58958 -17.38027 Z" />
    <path d="M 59.21536 22.6819 L 110.50925 24.37274" />
    <path d="M 59.21536 17.69441 L 110.50925 19.38525" />
    <path d="M 59.21536 22.6819 L 59.21536 17.69441" />
    <path d="M 110.50925 17.82527 L 67.66773 16.41306 L 59.21536 17.69441" />
    <path d="M 74.61771 17.03215 A 5 0.35345 360 0 1 77.50462 17.35249 A 5 0.35345 360 0 1 67.50462 17.35249 A 5 0.35345 360 0 1 74.61771 17.03215 Z" />
    <path d="M 147.12234 -15.49027 A 5 0.35345 360 0 1 150.00925 -15.16993 A 5 0.35345 360 0 1 140.00925 -15.16993 A 5 0.35345 360 0 1 147.12234 -15.49027 Z" />
    <path d="M 62.7276 12.11335 A 34.5 2.43883 180 0 0 102.11892 9.69916" />
    <path d="M 62.7276 11.32843 L 62.7276 12.11335" />
    <path d="M 36.3513 -31.23147 A 34.5 2.43883 360 0 1 102.11892 -30.20077 L 102.11892 0.43365" />
    <path d="M 102.11892 -30.20077 A 34.5 2.43883 360 1 1 33.11892 -30.20077 L 33.11892 -8.66512" />
    <path d="M 33.11892 -30.20077 A 34.5 2.43883 360 0 1 36.3513 -31.23147" />
    <path d="M 52.5 13.66382 L 62.7276 12.11335" />
    <path d="M 63.08738 -30.35015 A 5 0.35345 360 0 1 72.61892 -30.20077 A 5 0.35345 360 1 1 62.61892 -30.20077 A 5 0.35345 360 0 1 63.08738 -30.35015 Z" />
    <path d="M -33.11892 17.6426 A 52.5 3.71126 180 0 0 52.5 14.76297" />
    <path d="M 52.48103 9.67573 A 52.5 3.71126 0 0 1 52.5 9.77548 L 52.5 14.76297" />
    <path d="M 52.5 9.77548 A 52.5 3.71126 0 0 1 -33.11892 12.65511" />
    <path d="M 52.5 12.05143 L 110.06375 7.98221" />
    <path d="M 52.5 7.06394 L 74.78691 5.48846" />
    <path d="M 110.50925 0.96379 L 110.06375 0.99528" />
    <path d="M 60.64477 4.48874 L 52.5 5.0645" />
    <path d="M -33.11892 12.45561 A 52.5 3.71126 180 0 0 52.5 9.57598" />
    <path d="M 52.48103 4.48874 A 52.5 3.71126 360 0 1 52.5 4.58849 L 52.5 9.57598" />
    <path d="M 52.5 4.58849 A 52.5 3.71126 360 0 1 -31.0291 7.58218" />
    <path d="M -110.50925 2.76372 L -102.11892 3.35684" />
    <path d="M -102.11892 -3.63009 L -110.50925 -4.2232" />
    <path d="M -110.50925 -2.22377 L -102.11892 -1.63065" />
    <path d="M -29.37238 7.46507 A 52.5 3.71126 180 0 0 52.5 4.38899" />
    <path d="M 31.0291 2.39519 A 52.5 3.71126 360 0 1 -29.37238 2.47757 L -29.37238 7.46507" />
    <path d="M -134.35029 14.88603 L -102.11892 12.60757" />
    <path d="M -33.11892 7.72991 L -29.37238 7.46507" />
    <path d="M -148.49242 13.88631 L -134.35029 14.88603 L -134.35029 9.89854 L -102.11892 7.62008" />
    <path d="M -148.49242 13.88631 L -148.49242 8.89882 L -134.35029 9.89854" />
    <path d="M -102.11892 5.62064 L -148.49242 8.89882" />
    <path d="M -33.11892 2.74242 L -29.37238 2.47757" />
    <path d="M -26.05757 -3.19199 A 45 3.18108 360 0 1 26.05757 -3.19199" />
    <path d="M -130.81475 9.14875 A 5 0.35345 180 0 0 -129.35029 8.89882 A 5 0.35345 180 0 0 -139.35029 8.89882 A 5 0.35345 180 0 0 -130.81475 9.14875 Z" />
    <path d="M -33.11892 2.08163 A 52.5 3.71126 180 0 0 29.37238 2.27807 L 134.35029 9.69904 L 134.35029 4.71155 L 148.49242 3.71183 L 43.51452 -3.70913" />
    <path d="M 29.37238 -2.70942 L 29.37238 2.27807" />
    <path d="M 29.37238 -2.70942 A 52.5 3.71126 0 0 1 -33.11892 -2.90586" />
    <path d="M -33.11892 -8.66512 A 52.5 3.71126 0 0 1 52.5 -5.78549 L 52.5 -3.07394" />
    <path d="M 52.5 -5.78549 A 52.5 3.71126 0 0 1 43.51452 -3.70913" />
    <path d="M 134.35029 9.69904 L 148.49242 8.69932 L 148.49242 3.71183" />
    <path d="M 27.93822 -3.29174 A 45 3.18108 180 0 0 -27.93822 -3.29174" />
    <path d="M 29.37238 -2.70942 L 134.35029 4.71155" />
    <path d="M 31.81981 -8.03486 A 45 3.18108 0 0 1 45 -5.78549 A 45 3.18108 0 0 1 -33.11892 -3.63187" />
    <path d="M -33.11892 -7.93911 A 45 3.18108 0 0 1 31.81981 -8.03486" />
    <path d="M 137.88582 3.4619 A 5 0.35345 0 0 1 139.35029 3.71183 A 5 0.35345 0 0 1 129.35029 3.71183 A 5 0.35345 0 0 1 137.88582 3.4619 Z" />
    <path d="M -179.50925 -24.73 L -179.50925 15.16993" />
    <path d="M -110.50925 -24.73 L -110.50925 6.21376" />
    <path d="M -102.11892 -9.69916 L -102.11892 30.20077" />
    <path d="M -33.11892 -9.69916 L -33.11892 30.20077" />
    <path d="M 110.50925 -15.16993 L 110.50925 1.02677" />
    <path d="M 110.50925 8.0137 L 110.50925 24.73" />
    <path d="M 179.50925 -15.16993 L 179.50925 24.73" />
    <path d="M 102.11892 8.54383 L 102.11892 9.69916" />
    <path d="M 52.5 3.91298 L 52.5 4.38899" />
</svg>