<svg version="1.1" xmlns="http://www.w3.org/2000/svg" viewBox="-149.492425049175 -32.76263978788769 355.55339259327377 64.91185131649064" fill="none" stroke="black" stroke-width="0.6%" vector-effect="non-scaling-stroke">
    <path d="M -52.5 18.72674 A 52.5 4.6303 180 0 0 52.5 18.72674" />
    <path d="M 52.06082 13.14856 A 52.5 4.6303 360 0 1 52.5 13.74622 A 52.5 4.6303 360 0 1 -52.5 13.74622 A 52.5 4.6303 360 0 1 -52.06082 13.14856" />
    <path d="M 52.5 15.34372 L 105.03571 10.71026" />
    <path d="M 147.41325 6.97272 L 148.49242 6.87754 L 148.49242 1.89703 L 140.14432 1.16075" />
    <path d="M -34.5 16.17857 A 45 3.96883 180 0 0 -35.03943 16.23648" />
    <path d="M 35.03943 16.23648 A 45 3.96883 180 0 0 34.5 16.17857" />
    <path d="M 52.5 10.3632 L 76.8003 8.22001" />
    <path d="M 119.17784 4.48246 L 148.49242 1.89703" />
    <path d="M 128.55626 1.16075 L 105.03571 3.23518" />
    <path d="M 62.65817 6.97272 L 52.5 7.86863" />
    <path d="M 40.21097 15.52787 A 45 3.96883 360 0 1 -40.21097 15.52787" />
    <path d="M 130.81475 1.58521 A 5 0.44098 360 0 1 133.27684 1.46633" />
    <path d="M 135.42373 1.46633 A 5 0.44098 360 0 1 139.35029 1.89703 A 5 0.44098 360 0 1 129.35029 1.89703 A 5 0.44098 360 0 1 130.81475 1.58521" />
    <path d="M -52.5 12.5509 A 52.5 4.6303 180 0 0 52.5 12.5509" />
    <path d="M 52.06082 6.97272 A 52.5 4.6303 0 0 1 52.5 7.57038 A 52.5 4.6303 0 0 1 -36.82737 10.87038" />
    <path d="M -148.49242 0.7017 L -77.38944 6.97272" />
    <path d="M 35.03943 10.06064 A 45 3.96883 180 0 0 34.5 10.00273" />
    <path d="M -52.5 1.69279 L -127.97522 -4.96384" />
    <path d="M -148.49242 -4.27881 L -52.5 4.18736" />
    <path d="M -140.72536 -4.96384 L -148.49242 -4.27881" />
    <path d="M 40.21097 9.35203 A 45 3.96883 360 0 1 -31.52387 10.40263" />
    <path d="M -137.88582 -3.96699 A 5 0.44098 360 0 1 -139.35029 -4.27881 A 5 0.44098 360 0 1 -137.85806 -4.59306" />
    <path d="M -130.84252 -4.59306 A 5 0.44098 360 0 1 -129.35029 -4.27881 A 5 0.44098 360 0 1 -137.88582 -3.96699" />
    <path d="M -148.49242 0.7017 L -148.49242 -4.27881" />
    <path d="M -29.37238 10.21288 A 52.5 4.6303 180 0 0 52.5 6.37506" />
    <path d="M -43.51452 3.98508 A 52.5 4.6303 0 0 1 -52.5 1.39454 A 52.5 4.6303 0 0 1 -52.06082 0.79688" />
    <path d="M 36.82737 4.69454 A 52.5 4.6303 0 0 1 -29.37238 5.23236 L -29.37238 10.21288" />
    <path d="M -134.35029 19.47154 L -29.37238 10.21288" />
    <path d="M -148.49242 18.22426 L -134.35029 19.47154 L -134.35029 14.49102 L -29.37238 5.23236" />
    <path d="M -34.5 3.82689 A 45 3.96883 180 0 0 -35.03943 3.8848" />
    <path d="M -148.49242 18.22426 L -148.49242 13.24374 L -134.35029 14.49102" />
    <path d="M -43.51452 3.98508 L -127.85029 11.42318" />
    <path d="M -140.85029 12.56973 L -148.49242 13.24374" />
    <path d="M 31.52387 4.22679 A 45 3.96883 360 0 1 -40.21097 3.17619" />
    <path d="M -130.81475 13.55556 A 5 0.44098 360 0 1 -139.35029 13.24374 A 5 0.44098 360 0 1 -138.88072 13.05716" />
    <path d="M -129.81986 13.05716 A 5 0.44098 360 0 1 -129.35029 13.24374 A 5 0.44098 360 0 1 -130.81475 13.55556" />
    <path d="M -52.5 0.19922 A 52.5 4.6303 180 0 0 29.37238 4.03704 L 134.35029 13.2957 L 134.35029 8.31518 L 148.49242 7.0679 L 43.51452 -2.19076" />
    <path d="M 29.37238 -0.94348 L 29.37238 4.03704" />
    <path d="M 29.37238 -0.94348 A 52.5 4.6303 0 0 1 -52.5 -4.78129 A 52.5 4.6303 0 0 1 52.5 -4.78129 A 52.5 4.6303 0 0 1 43.51452 -2.19076" />
    <path d="M 134.35029 13.2957 L 148.49242 12.04842 L 148.49242 7.0679" />
    <path d="M -34.5 -2.34895 A 45 3.96883 180 0 0 -35.03943 -2.29104" />
    <path d="M 35.03943 -2.29104 A 45 3.96883 180 0 0 34.5 -2.34895" />
    <path d="M 29.37238 -0.94348 L 134.35029 8.31518" />
    <path d="M 31.81981 -7.58768 A 45 3.96883 360 0 1 45 -4.78129 A 45 3.96883 360 0 1 -45 -4.78129 A 45 3.96883 360 0 1 31.81981 -7.58768 Z" />
    <path d="M 137.88582 6.75608 A 5 0.44098 180 0 0 129.35029 7.0679 A 5 0.44098 180 0 0 139.35029 7.0679 A 5 0.44098 180 0 0 137.88582 6.75608 Z" />
    <path d="M 129.75409 15.22902 A 6.5 0.57328 360 0 1 140.85029 15.63439 L 140.85029 30.57593" />
    <path d="M 140.85029 15.63439 A 6.5 0.57328 360 0 1 127.85029 15.63439 L 127.85029 30.57593 A 6.5 0.57328 180 0 0 140.85029 30.57593" />
    <path d="M 127.85029 15.63439 A 6.5 0.57328 360 0 1 129.75409 15.22902" />
    <path d="M 137.88582 15.94621 A 5 0.44098 180 0 0 139.35029 15.63439 A 5 0.44098 180 0 0 129.35029 15.63439 A 5 0.44098 180 0 0 137.88582 15.94621 Z" />
    <path d="M 129.75409 -14.44599 A 6.5 0.57328 360 0 1 140.85029 -14.04062 L 140.85029 0.90092" />
    <path d="M 140.85029 -14.04062 A 6.5 0.57328 360 0 1 127.85029 -14.04062 L 127.85029 0.90092 A 6.5 0.57328 180 0 0 140.85029 0.90092" />
    <path d="M 127.85029 -14.04062 A 6.5 0.57328 360 0 1 129.75409 -14.44599" />
    <path d="M 137.88582 -13.7288 A 5 0.44098 180 0 0 139.35029 -14.04062 A 5 0.44098 180 0 0 129.35029 -14.04062 A 5 0.44098 180 0 0 137.88582 -13.7288 Z" />
    <path d="M -138.94648 -15.44209 A 6.5 0.57328 360 0 1 -127.85029 -15.03673 L -127.85029 -5.07569" />
    <path d="M -127.85029 -15.03673 A 6.5 0.57328 360 0 1 -140.85029 -15.03673 L -140.85029 -5.07569 A 6.5 0.57328 180 0 0 -127.85029 -5.07569" />
    <path d="M -140.85029 -15.03673 A 6.5 0.57328 360 0 1 -138.94648 -15.44209" />
    <path d="M -130.81475 -14.72491 A 5 0.44098 180 0 0 -129.35029 -15.03673 A 5 0.44098 180 0 0 -139.35029 -15.03673 A 5 0.44098 180 0 0 -130.81475 -14.72491 Z" />
    <path d="M -138.94648 20.20954 A 6.5 0.57328 360 0 1 -127.85029 20.6149 L -127.85029 30.57593" />
    <path d="M -127.85029 20.6149 A 6.5 0.57328 360 0 1 -140.85029 20.6149 L -140.85029 30.57593 A 6.5 0.57328 180 0 0 -127.85029 30.57593" />
    <path d="M -140.85029 20.6149 A 6.5 0.57328 360 0 1 -138.94648 20.20954" />
    <path d="M -130.81475 20.92672 A 5 0.44098 180 0 0 -129.35029 20.6149 A 5 0.44098 180 0 0 -139.35029 20.6149 A 5 0.44098 180 0 0 -130.81475 20.92672 Z" />
    <path d="M -130.05811 2.32754 A 6.5 0.57328 360 0 1 -140.85029 1.89703 L -140.85029 6.87754 A 6.5 0.57328 180 0 0 -139.07174 7.27155" />
    <path d="M -140.85029 1.89703 A 6.5 0.57328 360 0 1 -139.2316 1.51847" />
    <path d="M -129.62884 7.27155 A 6.5 0.57328 180 0 0 -127.85029 6.87754" />
    <path d="M -138.1681 1.61227 A 5 0.44098 180 0 0 -139.35029 1.89703 A 5 0.44098 180 0 0 -131.12162 2.23374" />
    <path d="M -138.94648 7.2602 A 6.5 0.57328 360 0 1 -127.85029 7.66556 L -127.85029 12.64608" />
    <path d="M -127.85029 7.66556 A 6.5 0.57328 360 0 1 -140.85029 7.66556 L -140.85029 12.64608 A 6.5 0.57328 180 0 0 -127.85029 12.64608" />
    <path d="M -140.85029 7.66556 A 6.5 0.57328 360 0 1 -138.94648 7.2602" />
    <path d="M -130.81475 7.97738 A 5 0.44098 180 0 0 -129.35029 7.66556 A 5 0.44098 180 0 0 -139.35029 7.66556 A 5 0.44098 180 0 0 -130.81475 7.97738 Z" />
    <path d="M -24.39518 -5.13987 A 34.5 3.04277 360 0 1 34.5 -2.98831 L 34.5 -2.23312" />
    <path d="M 34.5 -2.98831 A 34.5 3.04277 360 0 1 32.90594 -2.07409" />
    <path d="M -32.90594 -2.07409 A 34.5 3.04277 360 0 1 -34.5 -2.98831 L -34.5 -2.23312" />
    <path d="M -34.5 -2.98831 A 34.5 3.04277 360 0 1 -24.39518 -5.13987" />
    <path d="M -34.5 24.90258 A 34.5 3.04277 180 0 0 34.5 24.90258" />
    <path d="M -32.431 -2.45016 A 33 2.91048 360 0 1 -33 -2.98831 A 33 2.91048 360 0 1 6.10167 -5.8486 L 1.15041 -4.21888 A 14 1.23475 180 0 0 -14 -2.98831 L -14 -2.88573" />
    <path d="M -13.95265 -2.88685 L -32.431 -2.45016" />
    <path d="M -14 -2.98831 A 14 1.23475 180 0 0 -13.95265 -2.88685" />
    <path d="M 5.98004 -4.10475 L 10.9313 -5.73447 L 10.9313 -3.75975" />
    <path d="M 5.98004 -4.10475 A 14 1.23475 360 0 1 14 -2.98831 L 14 -2.06538" />
    <path d="M 14 -2.98831 A 14 1.23475 360 0 1 11.50815 -2.28515" />
    <path d="M 22.29489 -1.3338 L 11.50815 -2.28515" />
    <path d="M 10.9313 -5.73447 A 33 2.91048 360 0 1 33 -2.98831 A 33 2.91048 360 0 1 30.39282 -1.85446" />
    <path d="M 7.97261 -1.97333 L 17.5652 -1.1273" />
    <path d="M 7.97261 -1.97333 A 14 1.23475 360 0 1 -12.65856 -2.46089 L -12.65856 -0.97273" />
    <path d="M -31.1369 -2.02421 L -12.65856 -2.46089" />
    <path d="M -30.39282 -1.85446 A 33 2.91048 360 0 1 -31.1369 -2.02421" />
    <path d="M -7.84889 -3.68055 A 11.1 0.97898 360 0 1 11.1 -2.98831 A 11.1 0.97898 360 0 1 -11.1 -2.98831 A 11.1 0.97898 360 0 1 -7.84889 -3.68055 Z" />
    <path d="M 7.97261 -1.97333 L 7.97261 -0.87525" />
    <path d="M 56.56854 21.16073 L 56.56854 16.18021 L 111.8122 11.30793" />
    <path d="M 48.66588 20.46374 L 56.56854 21.16073 L 127.27922 14.92431 L 127.27922 12.67206" />
    <path d="M 52.5 15.82138 L 56.56854 16.18021" />
    <path d="M 60.10408 15.24475 A 5 0.44098 360 0 1 53.33987 15.26964" />
    <path d="M 60.38635 14.64817 A 5 0.44098 360 0 1 61.56854 14.93293 A 5 0.44098 360 0 1 60.10408 15.24475" />
    <path d="M 120.20815 -20.5457 L 120.20815 -25.52622 L 134.35029 -24.27894 L 205.06097 -30.51535 L 190.91883 -31.76264 L 120.20815 -25.52622" />
    <path d="M 134.35029 -19.29842 L 134.35029 -24.27894" />
    <path d="M 120.20815 -20.5457 L 134.35029 -19.29842 L 205.06097 -25.53484 L 205.06097 -30.51535" />
    <path d="M 137.88582 -25.2144 A 5 0.44098 360 0 1 129.35029 -25.52622 A 5 0.44098 360 0 1 139.35029 -25.52622 A 5 0.44098 360 0 1 137.88582 -25.2144 Z" />
    <path d="M 194.45436 -30.20353 A 5 0.44098 360 0 1 185.91883 -30.51535 A 5 0.44098 360 0 1 195.91883 -30.51535 A 5 0.44098 360 0 1 194.45436 -30.20353 Z" />
    <path d="M -52.5 13.74622 L -52.5 18.72674" />
    <path d="M 52.5 13.74622 L 52.5 18.72674" />
    <path d="M -52.5 12.25265 L -52.5 12.5509" />
    <path d="M 52.5 7.57038 L 52.5 12.5509" />
    <path d="M -52.5 1.39454 L -52.5 4.77757" />
    <path d="M 52.5 6.07681 L 52.5 6.37506" />
    <path d="M -52.5 -4.78129 L -52.5 0.19922" />
    <path d="M 52.5 -4.78129 L 52.5 -1.39827" />
    <path d="M -127.85029 2.52226 L -127.85029 6.87754" />
    <path d="M -34.5 3.68939 L -34.5 3.94271" />
    <path d="M -34.5 16.04107 L -34.5 16.29439" />
    <path d="M -34.5 22.21691 L -34.5 24.90258" />
    <path d="M 34.5 9.86523 L 34.5 10.11855" />
    <path d="M 34.5 16.04107 L 34.5 16.29439" />
    <path d="M 34.5 22.21691 L 34.5 24.90258" />
</svg>