<svg version="1.1" xmlns="http://www.w3.org/2000/svg" viewBox="-59.33165736999512 -44.499877630584415 122.32316677514689 86.74157912255112" fill="none" stroke="black" stroke-width="0.6%" vector-effect="non-scaling-stroke">
    <path d="M -6.40188 -36.38329 A 34.5 4.40074 360 0 1 13.71897 -39.59655" />
    <path d="M 39.18267 -39.70203 A 34.5 4.40074 360 0 1 61.99151 -35.56168 A 34.5 4.40074 360 0 1 28.90305 -31.16463" />
    <path d="M 3.07552 -32.45254 A 34.5 4.40074 360 0 1 -7.00849 -35.56168 A 34.5 4.40074 360 0 1 -6.40188 -36.38329" />
    <path d="M 31.15106 4.52015 A 34.5 4.40074 180 0 0 61.99151 0.14424" />
    <path d="M 24.06001 4.52316 A 34.5 4.40074 180 0 0 31.15106 4.52015" />
    <path d="M 20.51272 11.66072 L 31.15106 4.52015" />
    <path d="M 20.22749 11.6538 L 20.51272 11.66072" />
    <path d="M 20.51272 16.61987 L 20.51272 11.66072" />
    <path d="M 20.51272 16.61987 L 38.86925 4.29878" />
    <path d="M 13.09664 16.4401 L 20.51272 16.61987" />
    <path d="M 0.86438 -26.00925 L 0.86438 -30.96841 L 20.51272 -30.49211 L 39.18267 -43.02358 L 19.53433 -43.49988 L 0.86438 -30.96841" />
    <path d="M 20.51272 -25.53295 L 20.51272 -30.49211" />
    <path d="M 0.86438 -26.00925 L 20.51272 -25.53295 L 39.18267 -38.06442 L 39.18267 -43.02358" />
    <path d="M 7.64346 -32.10248 A 5 0.63779 360 0 1 17.55554 -31.9834 A 5 0.63779 360 1 1 7.55554 -31.9834 A 5 0.63779 360 0 1 7.64346 -32.10248 Z" />
    <path d="M 22.57942 -42.12765 A 5 0.63779 360 0 1 32.49151 -42.00858 A 5 0.63779 360 1 1 22.49151 -42.00858 A 5 0.63779 360 0 1 22.57942 -42.12765 Z" />
    <path d="M -58.33166 37.41497 A 30 3.82673 180 1 0 1.66834 37.41497" />
    <path d="M 1.65827 32.35664 A 30 3.82673 0 0 1 1.66834 32.45582 L 1.66834 37.41497" />
    <path d="M 1.66834 32.45582 A 30 3.82673 0 0 1 -58.33166 32.45582 L -58.33166 37.41497" />
    <path d="M -58.33166 32.45582 A 30 3.82673 0 0 1 -58.32158 32.35664" />
    <path d="M 1.66834 24.11089 L 24.06001 9.08137 L 24.06001 4.12222 L 23.77478 4.1153" />
    <path d="M 1.66834 19.15174 L 24.06001 4.12222" />
    <path d="M -58.33166 32.25745 A 30 3.82673 180 1 0 1.66834 32.25745" />
    <path d="M 1.65827 27.19911 A 30 3.82673 0 0 1 1.66834 27.2983 L 1.66834 32.25745" />
    <path d="M 1.66834 27.2983 A 30 3.82673 0 0 1 -58.33166 27.2983 L -58.33166 32.25745" />
    <path d="M -58.33166 27.2983 A 30 3.82673 0 0 1 -58.32158 27.19911" />
    <path d="M 1.66834 18.95337 L 24.06001 3.92385 L 24.06001 -1.03531 L 23.77478 -1.04222" />
    <path d="M -0.60692 15.5214 L 24.06001 -1.03531" />
    <path d="M -58.33166 27.09993 A 30 3.82673 180 1 0 1.66834 27.09993" />
    <path d="M 1.65827 22.04159 A 30 3.82673 0 0 1 1.66834 22.14077 L 1.66834 27.09993" />
    <path d="M 1.66834 22.14077 A 30 3.82673 0 0 1 -58.33166 22.14077 L -58.33166 27.09993" />
    <path d="M -58.33166 22.14077 A 30 3.82673 0 0 1 -58.32158 22.04159" />
    <path d="M -0.81093 15.45997 L 24.06001 -1.23367 L 24.06001 -6.19283 L 23.77478 -6.19974" />
    <path d="M -6.54866 14.35204 L 24.06001 -6.19283" />
    <path d="M -43.03863 19.56201 A 25 3.18894 360 0 1 -13.62468 19.56201" />
    <path d="M -58.33166 21.94241 A 30 3.82673 180 1 0 1.66834 21.94241" />
    <path d="M -13.22683 13.67697 A 30 3.82673 0 0 1 1.66834 16.98325 L 1.66834 21.94241" />
    <path d="M 1.66834 16.98325 A 30 3.82673 0 0 1 -58.33166 16.98325 L -58.33166 21.94241" />
    <path d="M -58.33166 16.98325 A 30 3.82673 0 0 1 -32.87517 13.20067" />
    <path d="M -6.79529 14.31921 L 24.06001 -6.39119 L 24.06001 -11.35035 L 4.41167 -11.82665 L -32.87517 13.20067" />
    <path d="M -12.61131 19.46283 A 25 3.18894 180 0 0 -44.052 19.46283" />
    <path d="M -13.22683 13.67697 L 24.06001 -11.35035" />
    <path d="M -52.89208 16.38788 A 25 3.18894 360 0 1 -3.33166 16.98325 A 25 3.18894 360 1 1 -53.33166 16.98325 A 25 3.18894 360 0 1 -52.89208 16.38788 Z" />
    <path d="M 7.45676 -10.45443 A 5 0.63779 360 0 1 17.36885 -10.33535 A 5 0.63779 360 1 1 7.36885 -10.33535 A 5 0.63779 360 0 1 7.45676 -10.45443 Z" />
    <path d="M -7.00849 -35.56168 L -7.00849 -4.16132" />
    <path d="M 61.99151 -35.56168 L 61.99151 0.14424" />
</svg>