<svg version="1.1" xmlns="http://www.w3.org/2000/svg" viewBox="-149.492425049175 -32.76263978788769 355.55339259327377 67.90016066128814" fill="none" stroke="black" stroke-width="0.6%" vector-effect="non-scaling-stroke">
    <path d="M -52.5 21.71505 A 52.5 4.6303 180 0 0 52.5 21.71505" />
    <path d="M 52.06082 16.13687 A 52.5 4.6303 360 0 1 52.5 16.73453 A 52.5 4.6303 360 0 1 -52.5 16.73453 A 52.5 4.6303 360 0 1 -52.06082 16.13687" />
    <path d="M 52.5 18.33203 L 56.56854 17.9732" />
    <path d="M -34.5 19.16688 A 45 3.96883 180 0 0 -35.03943 19.22479" />
    <path d="M 35.03943 19.22479 A 45 3.96883 180 0 0 34.5 19.16688" />
    <path d="M 52.5 13.35151 L 76.8003 11.20831" />
    <path d="M 119.17784 7.47077 L 148.49242 4.88534 L 140.14432 4.14906" />
    <path d="M 148.49242 9.86585 L 148.49242 4.88534" />
    <path d="M 147.41325 9.96103 L 148.49242 9.86585" />
    <path d="M 56.56854 21.16073 L 123.10637 15.29234" />
    <path d="M 56.56854 21.16073 L 56.56854 17.9732" />
    <path d="M 128.55626 4.14906 L 105.03571 6.22349" />
    <path d="M 62.65817 9.96103 L 52.5 10.85694" />
    <path d="M 40.21097 18.51618 A 45 3.96883 360 0 1 -40.21097 18.51618" />
    <path d="M 130.81475 4.57352 A 5 0.44098 360 0 1 133.27684 4.45464" />
    <path d="M 135.42373 4.45464 A 5 0.44098 360 0 1 139.35029 4.88534 A 5 0.44098 360 0 1 129.35029 4.88534 A 5 0.44098 360 0 1 130.81475 4.57352" />
    <path d="M 52.5 20.8019 L 56.56854 21.16073" />
    <path d="M -52.5 15.53921 A 52.5 4.6303 180 0 0 52.5 15.53921" />
    <path d="M 52.06082 9.96103 A 52.5 4.6303 0 0 1 52.5 10.55869 A 52.5 4.6303 0 0 1 -36.82737 13.85869" />
    <path d="M -148.49242 3.69001 L -77.38944 9.96103" />
    <path d="M 35.03943 13.04895 A 45 3.96883 180 0 0 34.5 12.99104" />
    <path d="M -52.5 4.6811 L -127.97522 -1.97553" />
    <path d="M -148.49242 -1.2905 L -52.5 7.17567" />
    <path d="M -140.72536 -1.97553 L -148.49242 -1.2905" />
    <path d="M 40.21097 12.34034 A 45 3.96883 360 0 1 -31.52387 13.39094" />
    <path d="M -137.88582 -0.97868 A 5 0.44098 360 0 1 -139.35029 -1.2905 A 5 0.44098 360 0 1 -137.85806 -1.60475" />
    <path d="M -130.84252 -1.60475 A 5 0.44098 360 0 1 -129.35029 -1.2905 A 5 0.44098 360 0 1 -137.88582 -0.97868" />
    <path d="M -148.49242 3.69001 L -148.49242 -1.2905" />
    <path d="M -29.37238 13.20119 A 52.5 4.6303 180 0 0 52.5 9.36337" />
    <path d="M -43.51452 6.97339 A 52.5 4.6303 0 0 1 -52.5 4.38285 A 52.5 4.6303 0 0 1 -52.06082 3.78519" />
    <path d="M 36.82737 7.68285 A 52.5 4.6303 0 0 1 -29.37238 8.22067 L -29.37238 13.20119" />
    <path d="M -134.35029 22.45985 L -29.37238 13.20119" />
    <path d="M -148.49242 21.21257 L -134.35029 22.45985 L -134.35029 17.47933 L -29.37238 8.22067" />
    <path d="M -34.5 6.8152 A 45 3.96883 180 0 0 -35.03943 6.87311" />
    <path d="M -148.49242 21.21257 L -148.49242 16.23205 L -134.35029 17.47933" />
    <path d="M -43.51452 6.97339 L -127.85029 14.41149" />
    <path d="M -140.85029 15.55804 L -148.49242 16.23205" />
    <path d="M 31.52387 7.2151 A 45 3.96883 360 0 1 -40.21097 6.1645" />
    <path d="M -130.81475 16.54387 A 5 0.44098 360 0 1 -139.35029 16.23205 A 5 0.44098 360 0 1 -138.88072 16.04547" />
    <path d="M -129.81986 16.04547 A 5 0.44098 360 0 1 -129.35029 16.23205 A 5 0.44098 360 0 1 -130.81475 16.54387" />
    <path d="M -52.5 3.18753 A 52.5 4.6303 180 0 0 29.37238 7.02535 L 134.35029 16.28401 L 134.35029 11.30349 L 148.49242 10.05621 L 43.51452 0.79755" />
    <path d="M 29.37238 2.04483 L 29.37238 7.02535" />
    <path d="M 29.37238 2.04483 A 52.5 4.6303 0 0 1 -52.5 -1.79299 L -52.5 3.18753" />
    <path d="M -52.5 -1.79299 A 52.5 4.6303 0 0 1 52.5 -1.79299 L 52.5 1.59004" />
    <path d="M 52.5 -1.79299 A 52.5 4.6303 0 0 1 43.51452 0.79755" />
    <path d="M 134.35029 16.28401 L 148.49242 15.03673 L 148.49242 10.05621" />
    <path d="M -34.5 0.63936 A 45 3.96883 180 0 0 -35.03943 0.69727" />
    <path d="M 35.03943 0.69727 A 45 3.96883 180 0 0 34.5 0.63936" />
    <path d="M 29.37238 2.04483 L 134.35029 11.30349" />
    <path d="M 31.81981 -4.59937 A 45 3.96883 360 0 1 45 -1.79299 A 45 3.96883 360 0 1 -45 -1.79299 A 45 3.96883 360 0 1 -24.76538 -5.10672" />
    <path d="M 24.76538 -5.10672 A 45 3.96883 360 0 1 31.81981 -4.59937" />
    <path d="M 137.88582 9.74439 A 5 0.44098 180 0 0 129.35029 10.05621 A 5 0.44098 180 0 0 139.35029 10.05621 A 5 0.44098 180 0 0 137.88582 9.74439 Z" />
    <path d="M 129.75409 18.21733 A 6.5 0.57328 360 0 1 140.85029 18.6227 L 140.85029 33.56424" />
    <path d="M 140.85029 18.6227 A 6.5 0.57328 360 0 1 127.85029 18.6227 L 127.85029 33.56424 A 6.5 0.57328 180 0 0 140.85029 33.56424" />
    <path d="M 127.85029 18.6227 A 6.5 0.57328 360 0 1 129.75409 18.21733" />
    <path d="M 137.88582 18.93452 A 5 0.44098 180 0 0 139.35029 18.6227 A 5 0.44098 180 0 0 129.35029 18.6227 A 5 0.44098 180 0 0 137.88582 18.93452 Z" />
    <path d="M 129.75409 -11.45768 A 6.5 0.57328 360 0 1 140.85029 -11.05231 L 140.85029 3.88923" />
    <path d="M 140.85029 -11.05231 A 6.5 0.57328 360 0 1 127.85029 -11.05231 L 127.85029 3.88923 A 6.5 0.57328 180 0 0 140.85029 3.88923" />
    <path d="M 127.85029 -11.05231 A 6.5 0.57328 360 0 1 129.75409 -11.45768" />
    <path d="M 137.88582 -10.74049 A 5 0.44098 180 0 0 139.35029 -11.05231 A 5 0.44098 180 0 0 129.35029 -11.05231 A 5 0.44098 180 0 0 137.88582 -10.74049 Z" />
    <path d="M -138.94648 -12.45378 A 6.5 0.57328 360 0 1 -127.85029 -12.04842 L -127.85029 -2.08739" />
    <path d="M -127.85029 -12.04842 A 6.5 0.57328 360 0 1 -140.85029 -12.04842 L -140.85029 -2.08739 A 6.5 0.57328 180 0 0 -127.85029 -2.08739" />
    <path d="M -140.85029 -12.04842 A 6.5 0.57328 360 0 1 -138.94648 -12.45378" />
    <path d="M -130.81475 -11.7366 A 5 0.44098 180 0 0 -129.35029 -12.04842 A 5 0.44098 180 0 0 -139.35029 -12.04842 A 5 0.44098 180 0 0 -130.81475 -11.7366 Z" />
    <path d="M -138.94648 23.19785 A 6.5 0.57328 360 0 1 -127.85029 23.60321 L -127.85029 33.56424" />
    <path d="M -127.85029 23.60321 A 6.5 0.57328 360 0 1 -140.85029 23.60321 L -140.85029 33.56424 A 6.5 0.57328 180 0 0 -127.85029 33.56424" />
    <path d="M -140.85029 23.60321 A 6.5 0.57328 360 0 1 -138.94648 23.19785" />
    <path d="M -130.81475 23.91503 A 5 0.44098 180 0 0 -129.35029 23.60321 A 5 0.44098 180 0 0 -139.35029 23.60321 A 5 0.44098 180 0 0 -130.81475 23.91503 Z" />
    <path d="M -130.05811 5.31585 A 6.5 0.57328 360 0 1 -140.85029 4.88534 L -140.85029 9.86585 A 6.5 0.57328 180 0 0 -139.07174 10.25986" />
    <path d="M -140.85029 4.88534 A 6.5 0.57328 360 0 1 -139.2316 4.50678" />
    <path d="M -129.62884 10.25986 A 6.5 0.57328 180 0 0 -127.85029 9.86585" />
    <path d="M -138.1681 4.60058 A 5 0.44098 180 0 0 -139.35029 4.88534 A 5 0.44098 180 0 0 -131.12162 5.22205" />
    <path d="M -138.94648 10.24851 A 6.5 0.57328 360 0 1 -127.85029 10.65387 L -127.85029 15.63439" />
    <path d="M -127.85029 10.65387 A 6.5 0.57328 360 0 1 -140.85029 10.65387 L -140.85029 15.63439 A 6.5 0.57328 180 0 0 -127.85029 15.63439" />
    <path d="M -140.85029 10.65387 A 6.5 0.57328 360 0 1 -138.94648 10.24851" />
    <path d="M -130.81475 10.96569 A 5 0.44098 180 0 0 -129.35029 10.65387 A 5 0.44098 180 0 0 -139.35029 10.65387 A 5 0.44098 180 0 0 -130.81475 10.96569 Z" />
    <path d="M -24.39518 -5.13987 A 34.5 3.04277 360 0 1 34.5 -2.98831 L 34.5 0.75518" />
    <path d="M 34.5 -2.98831 A 34.5 3.04277 360 0 1 -34.5 -2.98831 L -34.5 0.75518" />
    <path d="M -34.5 -2.98831 A 34.5 3.04277 360 0 1 -24.39518 -5.13987" />
    <path d="M -34.31226 25.21958 A 34.5 3.04277 180 0 0 34.31226 25.21958" />
    <path d="M -32.431 -2.45016 A 33 2.91048 360 0 1 -33 -2.98831 A 33 2.91048 360 0 1 6.10167 -5.8486 L 1.15041 -4.21888 A 14 1.23475 180 0 0 -14 -2.98831 L -14 -2.88573" />
    <path d="M -13.95265 -2.88685 L -32.431 -2.45016" />
    <path d="M -14 -2.98831 A 14 1.23475 180 0 0 -13.95265 -2.88685" />
    <path d="M 5.98004 -4.10475 L 10.9313 -5.73447 L 10.9313 -3.75975" />
    <path d="M 5.98004 -4.10475 A 14 1.23475 360 0 1 14 -2.98831 L 14 -2.06538" />
    <path d="M 14 -2.98831 A 14 1.23475 360 0 1 11.50815 -2.28515" />
    <path d="M 25.03523 -1.09212 L 11.50815 -2.28515" />
    <path d="M 10.9313 -5.73447 A 33 2.91048 360 0 1 33 -2.98831 A 33 2.91048 360 0 1 25.03523 -1.09212" />
    <path d="M 7.97261 -1.97333 L 21.4997 -0.78029 A 33 2.91048 360 0 1 -31.1369 -2.02421 L -12.65856 -2.46089 L -12.65856 -0.30048" />
    <path d="M 7.97261 -1.97333 A 14 1.23475 360 0 1 -12.65856 -2.46089" />
    <path d="M -7.84889 -3.68055 A 11.1 0.97898 360 0 1 11.1 -2.98831 A 11.1 0.97898 360 0 1 -11.1 -2.98831 A 11.1 0.97898 360 0 1 -7.84889 -3.68055 Z" />
    <path d="M 7.97261 -1.97333 L 7.97261 -0.16405" />
    <path d="M 120.20815 -20.5457 L 120.20815 -25.52622 L 134.35029 -24.27894 L 205.06097 -30.51535 L 190.91883 -31.76264 L 120.20815 -25.52622" />
    <path d="M 134.35029 -19.29842 L 134.35029 -24.27894" />
    <path d="M 120.20815 -20.5457 L 134.35029 -19.29842 L 205.06097 -25.53484 L 205.06097 -30.51535" />
    <path d="M 137.88582 -25.2144 A 5 0.44098 360 0 1 129.35029 -25.52622 A 5 0.44098 360 0 1 139.35029 -25.52622 A 5 0.44098 360 0 1 137.88582 -25.2144 Z" />
    <path d="M 194.45436 -30.20353 A 5 0.44098 360 0 1 185.91883 -30.51535 A 5 0.44098 360 0 1 195.91883 -30.51535 A 5 0.44098 360 0 1 194.45436 -30.20353 Z" />
    <path d="M -52.5 16.73453 L -52.5 21.71505" />
    <path d="M 52.5 16.73453 L 52.5 21.71505" />
    <path d="M -52.5 15.24096 L -52.5 15.53921" />
    <path d="M 52.5 10.55869 L 52.5 15.53921" />
    <path d="M -52.5 4.38285 L -52.5 7.76587" />
    <path d="M 52.5 9.06512 L 52.5 9.36337" />
    <path d="M -127.85029 5.51057 L -127.85029 9.86585" />
    <path d="M -34.5 6.6777 L -34.5 6.93102" />
    <path d="M -34.5 19.02938 L -34.5 19.2827" />
    <path d="M 34.5 12.85354 L 34.5 13.10686" />
    <path d="M 34.5 19.02938 L 34.5 19.2827" />
</svg>